%TF.GenerationSoftware,KiCad,Pcbnew,9.0.7*%
%TF.CreationDate,2026-07-15T19:52:47+02:00*%
%TF.ProjectId,PSU_Control_RPI,5053555f-436f-46e7-9472-6f6c5f525049,A*%
%TF.SameCoordinates,Original*%
%TF.FileFunction,Legend,Bot*%
%TF.FilePolarity,Positive*%
%FSLAX46Y46*%
G04 Gerber Fmt 4.6, Leading zero omitted, Abs format (unit mm)*
G04 Created by KiCad (PCBNEW 9.0.7) date 2026-07-15 19:52:47*
%MOMM*%
%LPD*%
G01*
G04 APERTURE LIST*
%ADD10C,0.200000*%
%ADD11C,0.250000*%
%ADD12C,0.150000*%
%ADD13C,0.000000*%
G04 APERTURE END LIST*
D10*
X112250000Y-89000000D02*
X113850000Y-89000000D01*
X113850000Y-90600000D01*
X112250000Y-90600000D01*
X112250000Y-89000000D01*
D11*
G36*
X113472883Y-101985878D02*
G01*
X113503721Y-102016715D01*
X113540976Y-102091225D01*
X113540976Y-102412907D01*
X113136214Y-102412907D01*
X113136214Y-102091225D01*
X113173470Y-102016712D01*
X113204306Y-101985877D01*
X113278817Y-101948622D01*
X113398372Y-101948622D01*
X113472883Y-101985878D01*
G37*
G36*
X113472883Y-93890640D02*
G01*
X113503721Y-93921477D01*
X113540976Y-93995987D01*
X113540976Y-94317669D01*
X113136214Y-94317669D01*
X113136214Y-93995987D01*
X113173470Y-93921474D01*
X113204306Y-93890639D01*
X113278817Y-93853384D01*
X113398372Y-93853384D01*
X113472883Y-93890640D01*
G37*
G36*
X113472883Y-92640640D02*
G01*
X113503721Y-92671477D01*
X113540976Y-92745987D01*
X113540976Y-93067669D01*
X113136214Y-93067669D01*
X113136214Y-92745987D01*
X113173470Y-92671474D01*
X113204306Y-92640639D01*
X113278817Y-92603384D01*
X113398372Y-92603384D01*
X113472883Y-92640640D01*
G37*
G36*
X113929865Y-102801796D02*
G01*
X112152087Y-102801796D01*
X112152087Y-102513521D01*
X112293378Y-102513521D01*
X112293378Y-102562293D01*
X112312042Y-102607353D01*
X112346530Y-102641841D01*
X112391590Y-102660505D01*
X112415976Y-102662907D01*
X113665976Y-102662907D01*
X113690362Y-102660505D01*
X113735422Y-102641841D01*
X113769910Y-102607353D01*
X113788574Y-102562293D01*
X113790976Y-102537907D01*
X113790976Y-102061717D01*
X113788574Y-102037331D01*
X113786855Y-102033182D01*
X113786537Y-102028701D01*
X113777780Y-102005816D01*
X113718255Y-101886767D01*
X113711648Y-101876272D01*
X113710385Y-101873222D01*
X113707566Y-101869787D01*
X113705201Y-101866030D01*
X113702709Y-101863868D01*
X113694840Y-101854280D01*
X113635316Y-101794757D01*
X113625728Y-101786889D01*
X113623567Y-101784397D01*
X113619807Y-101782030D01*
X113616373Y-101779212D01*
X113613324Y-101777949D01*
X113602830Y-101771343D01*
X113483782Y-101711819D01*
X113460896Y-101703061D01*
X113456414Y-101702742D01*
X113452266Y-101701024D01*
X113427880Y-101698622D01*
X113249309Y-101698622D01*
X113224923Y-101701024D01*
X113220774Y-101702742D01*
X113216293Y-101703061D01*
X113193408Y-101711818D01*
X113074359Y-101771343D01*
X113063864Y-101777949D01*
X113060814Y-101779213D01*
X113057379Y-101782031D01*
X113053622Y-101784397D01*
X113051460Y-101786888D01*
X113041872Y-101794758D01*
X112982350Y-101854281D01*
X112974483Y-101863866D01*
X112971989Y-101866030D01*
X112969621Y-101869791D01*
X112966805Y-101873223D01*
X112965542Y-101876270D01*
X112958935Y-101886767D01*
X112899411Y-102005815D01*
X112890653Y-102028701D01*
X112890334Y-102033182D01*
X112888616Y-102037331D01*
X112886214Y-102061717D01*
X112886214Y-102412907D01*
X112415976Y-102412907D01*
X112391590Y-102415309D01*
X112346530Y-102433973D01*
X112312042Y-102468461D01*
X112293378Y-102513521D01*
X112152087Y-102513521D01*
X112152087Y-100871241D01*
X112290976Y-100871241D01*
X112290976Y-101168860D01*
X112292191Y-101181203D01*
X112291958Y-101184495D01*
X112292942Y-101188824D01*
X112293378Y-101193246D01*
X112294641Y-101196295D01*
X112297391Y-101208389D01*
X112356915Y-101386959D01*
X112366905Y-101409334D01*
X112398860Y-101446180D01*
X112442485Y-101467992D01*
X112491134Y-101471449D01*
X112537404Y-101456026D01*
X112574249Y-101424070D01*
X112596061Y-101380446D01*
X112599518Y-101331796D01*
X112594085Y-101307902D01*
X112540976Y-101148575D01*
X112540976Y-100900749D01*
X112578232Y-100826237D01*
X112609068Y-100795401D01*
X112683580Y-100758146D01*
X112743610Y-100758146D01*
X112818121Y-100795401D01*
X112848958Y-100826238D01*
X112893273Y-100914868D01*
X112949470Y-101139653D01*
X112950113Y-101141453D01*
X112950177Y-101142351D01*
X112954057Y-101152493D01*
X112957715Y-101162729D01*
X112958251Y-101163452D01*
X112958934Y-101165237D01*
X113018457Y-101284285D01*
X113025065Y-101294782D01*
X113026328Y-101297831D01*
X113029145Y-101301263D01*
X113031511Y-101305022D01*
X113034003Y-101307183D01*
X113041873Y-101316773D01*
X113101397Y-101376296D01*
X113110984Y-101384163D01*
X113113146Y-101386656D01*
X113116905Y-101389022D01*
X113120340Y-101391841D01*
X113123388Y-101393103D01*
X113133883Y-101399710D01*
X113252932Y-101459235D01*
X113275817Y-101467992D01*
X113280298Y-101468310D01*
X113284447Y-101470029D01*
X113308833Y-101472431D01*
X113427880Y-101472431D01*
X113452266Y-101470029D01*
X113456414Y-101468310D01*
X113460896Y-101467992D01*
X113483782Y-101459234D01*
X113602830Y-101399710D01*
X113613324Y-101393103D01*
X113616373Y-101391841D01*
X113619807Y-101389022D01*
X113623567Y-101386656D01*
X113625728Y-101384163D01*
X113635316Y-101376296D01*
X113694840Y-101316773D01*
X113702709Y-101307184D01*
X113705201Y-101305023D01*
X113707566Y-101301265D01*
X113710385Y-101297831D01*
X113711648Y-101294780D01*
X113718255Y-101284286D01*
X113777780Y-101165237D01*
X113786537Y-101142352D01*
X113786855Y-101137870D01*
X113788574Y-101133722D01*
X113790976Y-101109336D01*
X113790976Y-100811717D01*
X113789760Y-100799373D01*
X113789994Y-100796082D01*
X113789009Y-100791752D01*
X113788574Y-100787331D01*
X113787310Y-100784281D01*
X113784561Y-100772188D01*
X113725037Y-100593617D01*
X113715047Y-100571242D01*
X113683092Y-100534397D01*
X113639467Y-100512585D01*
X113590817Y-100509128D01*
X113544548Y-100524551D01*
X113507703Y-100556506D01*
X113485891Y-100600131D01*
X113482434Y-100648781D01*
X113487867Y-100672675D01*
X113540976Y-100832000D01*
X113540976Y-101079828D01*
X113503721Y-101154337D01*
X113472883Y-101185174D01*
X113398372Y-101222431D01*
X113338341Y-101222431D01*
X113263830Y-101185175D01*
X113232993Y-101154338D01*
X113188678Y-101065707D01*
X113132482Y-100840924D01*
X113131838Y-100839124D01*
X113131775Y-100838225D01*
X113127888Y-100828067D01*
X113124237Y-100817849D01*
X113123701Y-100817126D01*
X113123018Y-100815340D01*
X113063493Y-100696291D01*
X113056887Y-100685798D01*
X113055624Y-100682747D01*
X113052803Y-100679310D01*
X113050439Y-100675554D01*
X113047947Y-100673393D01*
X113040079Y-100663805D01*
X112980554Y-100604281D01*
X112970968Y-100596414D01*
X112968804Y-100593919D01*
X112965041Y-100591550D01*
X112961612Y-100588736D01*
X112958566Y-100587474D01*
X112948067Y-100580865D01*
X112829020Y-100521342D01*
X112806135Y-100512585D01*
X112801653Y-100512266D01*
X112797505Y-100510548D01*
X112773119Y-100508146D01*
X112654071Y-100508146D01*
X112629685Y-100510548D01*
X112625535Y-100512266D01*
X112621056Y-100512585D01*
X112598170Y-100521342D01*
X112479122Y-100580865D01*
X112468624Y-100587473D01*
X112465576Y-100588736D01*
X112462143Y-100591553D01*
X112458385Y-100593919D01*
X112456223Y-100596411D01*
X112446634Y-100604281D01*
X112387111Y-100663805D01*
X112379243Y-100673392D01*
X112376751Y-100675554D01*
X112374384Y-100679313D01*
X112371566Y-100682748D01*
X112370303Y-100685796D01*
X112363697Y-100696291D01*
X112304173Y-100815339D01*
X112295415Y-100838225D01*
X112295096Y-100842706D01*
X112293378Y-100846855D01*
X112290976Y-100871241D01*
X112152087Y-100871241D01*
X112152087Y-99621241D01*
X112290976Y-99621241D01*
X112290976Y-99859336D01*
X112293378Y-99883722D01*
X112295096Y-99887870D01*
X112295415Y-99892352D01*
X112304173Y-99915238D01*
X112363697Y-100034286D01*
X112370303Y-100044780D01*
X112371566Y-100047829D01*
X112374384Y-100051263D01*
X112376751Y-100055023D01*
X112379243Y-100057184D01*
X112387111Y-100066772D01*
X112446634Y-100126296D01*
X112456223Y-100134165D01*
X112458385Y-100136658D01*
X112462143Y-100139023D01*
X112465576Y-100141841D01*
X112468624Y-100143103D01*
X112479122Y-100149712D01*
X112598170Y-100209235D01*
X112621056Y-100217992D01*
X112625535Y-100218310D01*
X112629685Y-100220029D01*
X112654071Y-100222431D01*
X113665976Y-100222431D01*
X113690362Y-100220029D01*
X113735422Y-100201365D01*
X113769910Y-100166877D01*
X113788574Y-100121817D01*
X113788574Y-100073045D01*
X113769910Y-100027985D01*
X113735422Y-99993497D01*
X113690362Y-99974833D01*
X113665976Y-99972431D01*
X112683580Y-99972431D01*
X112609068Y-99935175D01*
X112578232Y-99904339D01*
X112540976Y-99829827D01*
X112540976Y-99650749D01*
X112578232Y-99576236D01*
X112609068Y-99545401D01*
X112683579Y-99508146D01*
X113665976Y-99508146D01*
X113690362Y-99505744D01*
X113735422Y-99487080D01*
X113769910Y-99452592D01*
X113788574Y-99407532D01*
X113788574Y-99358760D01*
X113769910Y-99313700D01*
X113735422Y-99279212D01*
X113690362Y-99260548D01*
X113665976Y-99258146D01*
X112654071Y-99258146D01*
X112629685Y-99260548D01*
X112625536Y-99262266D01*
X112621055Y-99262585D01*
X112598170Y-99271342D01*
X112479121Y-99330867D01*
X112468626Y-99337473D01*
X112465576Y-99338737D01*
X112462141Y-99341555D01*
X112458384Y-99343921D01*
X112456222Y-99346412D01*
X112446634Y-99354282D01*
X112387112Y-99413805D01*
X112379245Y-99423390D01*
X112376751Y-99425554D01*
X112374383Y-99429315D01*
X112371567Y-99432747D01*
X112370304Y-99435794D01*
X112363697Y-99446291D01*
X112304173Y-99565339D01*
X112295415Y-99588225D01*
X112295096Y-99592706D01*
X112293378Y-99596855D01*
X112290976Y-99621241D01*
X112152087Y-99621241D01*
X112152087Y-97835527D01*
X112767166Y-97835527D01*
X112767166Y-98787907D01*
X112769568Y-98812293D01*
X112788232Y-98857353D01*
X112822720Y-98891841D01*
X112867780Y-98910505D01*
X112916552Y-98910505D01*
X112961612Y-98891841D01*
X112996100Y-98857353D01*
X113014764Y-98812293D01*
X113017166Y-98787907D01*
X113017166Y-97835527D01*
X113014764Y-97811141D01*
X112996100Y-97766081D01*
X112961612Y-97731593D01*
X112916552Y-97712929D01*
X112867780Y-97712929D01*
X112822720Y-97731593D01*
X112788232Y-97766081D01*
X112769568Y-97811141D01*
X112767166Y-97835527D01*
X112152087Y-97835527D01*
X112152087Y-96764098D01*
X112290976Y-96764098D01*
X112290976Y-96883146D01*
X112292191Y-96895489D01*
X112291958Y-96898781D01*
X112292942Y-96903110D01*
X112293378Y-96907532D01*
X112294641Y-96910581D01*
X112297391Y-96922675D01*
X112356915Y-97101245D01*
X112366905Y-97123620D01*
X112369846Y-97127011D01*
X112371566Y-97131163D01*
X112387111Y-97150105D01*
X112506159Y-97269153D01*
X112515745Y-97277021D01*
X112517909Y-97279515D01*
X112521667Y-97281881D01*
X112525100Y-97284698D01*
X112528148Y-97285960D01*
X112538646Y-97292569D01*
X112657694Y-97352092D01*
X112659480Y-97352775D01*
X112660203Y-97353311D01*
X112670429Y-97356965D01*
X112680580Y-97360849D01*
X112681477Y-97360912D01*
X112683278Y-97361556D01*
X112921373Y-97421080D01*
X112925602Y-97421705D01*
X112927304Y-97422410D01*
X112936485Y-97423314D01*
X112945614Y-97424664D01*
X112947435Y-97424392D01*
X112951690Y-97424812D01*
X113130261Y-97424812D01*
X113134515Y-97424392D01*
X113136337Y-97424664D01*
X113145465Y-97423314D01*
X113154647Y-97422410D01*
X113156348Y-97421705D01*
X113160578Y-97421080D01*
X113398674Y-97361556D01*
X113400473Y-97360912D01*
X113401373Y-97360849D01*
X113411522Y-97356965D01*
X113421750Y-97353311D01*
X113422473Y-97352774D01*
X113424258Y-97352092D01*
X113543305Y-97292569D01*
X113553804Y-97285959D01*
X113556850Y-97284698D01*
X113560279Y-97281883D01*
X113564042Y-97279515D01*
X113566206Y-97277019D01*
X113575792Y-97269153D01*
X113694840Y-97150106D01*
X113710385Y-97131164D01*
X113712103Y-97127014D01*
X113715047Y-97123621D01*
X113725037Y-97101246D01*
X113784561Y-96922675D01*
X113787310Y-96910581D01*
X113788574Y-96907532D01*
X113789009Y-96903110D01*
X113789994Y-96898781D01*
X113789760Y-96895489D01*
X113790976Y-96883146D01*
X113790976Y-96764098D01*
X113789760Y-96751754D01*
X113789994Y-96748463D01*
X113789009Y-96744133D01*
X113788574Y-96739712D01*
X113787310Y-96736662D01*
X113784561Y-96724569D01*
X113725037Y-96545998D01*
X113715047Y-96523623D01*
X113712104Y-96520230D01*
X113710386Y-96516081D01*
X113694841Y-96497139D01*
X113635316Y-96437615D01*
X113616374Y-96422070D01*
X113571315Y-96403405D01*
X113522541Y-96403405D01*
X113477482Y-96422070D01*
X113442995Y-96456557D01*
X113424330Y-96501616D01*
X113424330Y-96550390D01*
X113442995Y-96595449D01*
X113458540Y-96614391D01*
X113497198Y-96653050D01*
X113540976Y-96784381D01*
X113540976Y-96862862D01*
X113497198Y-96994193D01*
X113413360Y-97078032D01*
X113324728Y-97122347D01*
X113114872Y-97174812D01*
X112967079Y-97174812D01*
X112757223Y-97122347D01*
X112668591Y-97078032D01*
X112584753Y-96994193D01*
X112540976Y-96862861D01*
X112540976Y-96784382D01*
X112584753Y-96653050D01*
X112623412Y-96614391D01*
X112638957Y-96595448D01*
X112657621Y-96550389D01*
X112657621Y-96501615D01*
X112638956Y-96456556D01*
X112604469Y-96422069D01*
X112559409Y-96403405D01*
X112510635Y-96403405D01*
X112465576Y-96422070D01*
X112446634Y-96437615D01*
X112387111Y-96497139D01*
X112371566Y-96516082D01*
X112369847Y-96520231D01*
X112366905Y-96523624D01*
X112356915Y-96545999D01*
X112297391Y-96724569D01*
X112294641Y-96736662D01*
X112293378Y-96739712D01*
X112292942Y-96744133D01*
X112291958Y-96748463D01*
X112292191Y-96751754D01*
X112290976Y-96764098D01*
X112152087Y-96764098D01*
X112152087Y-95037908D01*
X112767166Y-95037908D01*
X112767166Y-95990288D01*
X112769568Y-96014674D01*
X112788232Y-96059734D01*
X112822720Y-96094222D01*
X112867780Y-96112886D01*
X112916552Y-96112886D01*
X112961612Y-96094222D01*
X112996100Y-96059734D01*
X113014764Y-96014674D01*
X113017166Y-95990288D01*
X113017166Y-95037908D01*
X113014764Y-95013522D01*
X112996100Y-94968462D01*
X112961612Y-94933974D01*
X112916552Y-94915310D01*
X112867780Y-94915310D01*
X112822720Y-94933974D01*
X112788232Y-94968462D01*
X112769568Y-95013522D01*
X112767166Y-95037908D01*
X112152087Y-95037908D01*
X112152087Y-93725674D01*
X112291005Y-93725674D01*
X112299481Y-93773705D01*
X112325693Y-93814836D01*
X112344293Y-93830788D01*
X112886214Y-94210132D01*
X112886214Y-94317669D01*
X112415976Y-94317669D01*
X112391590Y-94320071D01*
X112346530Y-94338735D01*
X112312042Y-94373223D01*
X112293378Y-94418283D01*
X112293378Y-94467055D01*
X112312042Y-94512115D01*
X112346530Y-94546603D01*
X112391590Y-94565267D01*
X112415976Y-94567669D01*
X113665976Y-94567669D01*
X113690362Y-94565267D01*
X113735422Y-94546603D01*
X113769910Y-94512115D01*
X113788574Y-94467055D01*
X113790976Y-94442669D01*
X113790976Y-93966479D01*
X113788574Y-93942093D01*
X113786855Y-93937944D01*
X113786537Y-93933463D01*
X113777780Y-93910578D01*
X113718255Y-93791529D01*
X113711648Y-93781034D01*
X113710385Y-93777984D01*
X113707566Y-93774549D01*
X113705201Y-93770792D01*
X113702709Y-93768630D01*
X113694840Y-93759042D01*
X113635316Y-93699519D01*
X113625728Y-93691651D01*
X113623567Y-93689159D01*
X113619807Y-93686792D01*
X113616373Y-93683974D01*
X113613324Y-93682711D01*
X113602830Y-93676105D01*
X113483782Y-93616581D01*
X113460896Y-93607823D01*
X113456414Y-93607504D01*
X113452266Y-93605786D01*
X113427880Y-93603384D01*
X113249309Y-93603384D01*
X113224923Y-93605786D01*
X113220774Y-93607504D01*
X113216293Y-93607823D01*
X113193408Y-93616580D01*
X113074359Y-93676105D01*
X113063864Y-93682711D01*
X113060814Y-93683975D01*
X113057379Y-93686793D01*
X113053622Y-93689159D01*
X113051460Y-93691650D01*
X113041872Y-93699520D01*
X112982350Y-93759043D01*
X112974483Y-93768628D01*
X112971989Y-93770792D01*
X112969621Y-93774553D01*
X112966805Y-93777985D01*
X112965542Y-93781032D01*
X112958935Y-93791529D01*
X112899411Y-93910577D01*
X112898315Y-93913439D01*
X112487659Y-93625980D01*
X112466303Y-93613963D01*
X112418686Y-93603413D01*
X112370655Y-93611889D01*
X112329524Y-93638101D01*
X112301555Y-93678057D01*
X112291005Y-93725674D01*
X112152087Y-93725674D01*
X112152087Y-93168283D01*
X112293378Y-93168283D01*
X112293378Y-93217055D01*
X112312042Y-93262115D01*
X112346530Y-93296603D01*
X112391590Y-93315267D01*
X112415976Y-93317669D01*
X113665976Y-93317669D01*
X113690362Y-93315267D01*
X113735422Y-93296603D01*
X113769910Y-93262115D01*
X113788574Y-93217055D01*
X113790976Y-93192669D01*
X113790976Y-92716479D01*
X113788574Y-92692093D01*
X113786855Y-92687944D01*
X113786537Y-92683463D01*
X113777780Y-92660578D01*
X113718255Y-92541529D01*
X113711648Y-92531034D01*
X113710385Y-92527984D01*
X113707566Y-92524549D01*
X113705201Y-92520792D01*
X113702709Y-92518630D01*
X113694840Y-92509042D01*
X113635316Y-92449519D01*
X113625728Y-92441651D01*
X113623567Y-92439159D01*
X113619807Y-92436792D01*
X113616373Y-92433974D01*
X113613324Y-92432711D01*
X113602830Y-92426105D01*
X113483782Y-92366581D01*
X113460896Y-92357823D01*
X113456414Y-92357504D01*
X113452266Y-92355786D01*
X113427880Y-92353384D01*
X113249309Y-92353384D01*
X113224923Y-92355786D01*
X113220774Y-92357504D01*
X113216293Y-92357823D01*
X113193408Y-92366580D01*
X113074359Y-92426105D01*
X113063864Y-92432711D01*
X113060814Y-92433975D01*
X113057379Y-92436793D01*
X113053622Y-92439159D01*
X113051460Y-92441650D01*
X113041872Y-92449520D01*
X112982350Y-92509043D01*
X112974483Y-92518628D01*
X112971989Y-92520792D01*
X112969621Y-92524553D01*
X112966805Y-92527985D01*
X112965542Y-92531032D01*
X112958935Y-92541529D01*
X112899411Y-92660577D01*
X112890653Y-92683463D01*
X112890334Y-92687944D01*
X112888616Y-92692093D01*
X112886214Y-92716479D01*
X112886214Y-93067669D01*
X112415976Y-93067669D01*
X112391590Y-93070071D01*
X112346530Y-93088735D01*
X112312042Y-93123223D01*
X112293378Y-93168283D01*
X112152087Y-93168283D01*
X112152087Y-91918283D01*
X112293378Y-91918283D01*
X112293378Y-91967055D01*
X112312042Y-92012115D01*
X112346530Y-92046603D01*
X112391590Y-92065267D01*
X112415976Y-92067669D01*
X113665976Y-92067669D01*
X113690362Y-92065267D01*
X113735422Y-92046603D01*
X113769910Y-92012115D01*
X113788574Y-91967055D01*
X113788574Y-91918283D01*
X113769910Y-91873223D01*
X113735422Y-91838735D01*
X113690362Y-91820071D01*
X113665976Y-91817669D01*
X112415976Y-91817669D01*
X112391590Y-91820071D01*
X112346530Y-91838735D01*
X112312042Y-91873223D01*
X112293378Y-91918283D01*
X112152087Y-91918283D01*
X112152087Y-91678780D01*
X113929865Y-91678780D01*
X113929865Y-102801796D01*
G37*
D12*
X110880180Y-102091792D02*
X111356371Y-102425125D01*
X110880180Y-102663220D02*
X111880180Y-102663220D01*
X111880180Y-102663220D02*
X111880180Y-102282268D01*
X111880180Y-102282268D02*
X111832561Y-102187030D01*
X111832561Y-102187030D02*
X111784942Y-102139411D01*
X111784942Y-102139411D02*
X111689704Y-102091792D01*
X111689704Y-102091792D02*
X111546847Y-102091792D01*
X111546847Y-102091792D02*
X111451609Y-102139411D01*
X111451609Y-102139411D02*
X111403990Y-102187030D01*
X111403990Y-102187030D02*
X111356371Y-102282268D01*
X111356371Y-102282268D02*
X111356371Y-102663220D01*
X110927800Y-101282268D02*
X110880180Y-101377506D01*
X110880180Y-101377506D02*
X110880180Y-101567982D01*
X110880180Y-101567982D02*
X110927800Y-101663220D01*
X110927800Y-101663220D02*
X111023038Y-101710839D01*
X111023038Y-101710839D02*
X111403990Y-101710839D01*
X111403990Y-101710839D02*
X111499228Y-101663220D01*
X111499228Y-101663220D02*
X111546847Y-101567982D01*
X111546847Y-101567982D02*
X111546847Y-101377506D01*
X111546847Y-101377506D02*
X111499228Y-101282268D01*
X111499228Y-101282268D02*
X111403990Y-101234649D01*
X111403990Y-101234649D02*
X111308752Y-101234649D01*
X111308752Y-101234649D02*
X111213514Y-101710839D01*
X111546847Y-100901315D02*
X110880180Y-100663220D01*
X110880180Y-100663220D02*
X111546847Y-100425125D01*
X110975419Y-100044172D02*
X110927800Y-99996553D01*
X110927800Y-99996553D02*
X110880180Y-100044172D01*
X110880180Y-100044172D02*
X110927800Y-100091791D01*
X110927800Y-100091791D02*
X110975419Y-100044172D01*
X110975419Y-100044172D02*
X110880180Y-100044172D01*
X111165895Y-98853696D02*
X111165895Y-98377506D01*
X110880180Y-98948934D02*
X111880180Y-98615601D01*
X111880180Y-98615601D02*
X110880180Y-98282268D01*
X111880180Y-96996553D02*
X111880180Y-96901315D01*
X111880180Y-96901315D02*
X111832561Y-96806077D01*
X111832561Y-96806077D02*
X111784942Y-96758458D01*
X111784942Y-96758458D02*
X111689704Y-96710839D01*
X111689704Y-96710839D02*
X111499228Y-96663220D01*
X111499228Y-96663220D02*
X111261133Y-96663220D01*
X111261133Y-96663220D02*
X111070657Y-96710839D01*
X111070657Y-96710839D02*
X110975419Y-96758458D01*
X110975419Y-96758458D02*
X110927800Y-96806077D01*
X110927800Y-96806077D02*
X110880180Y-96901315D01*
X110880180Y-96901315D02*
X110880180Y-96996553D01*
X110880180Y-96996553D02*
X110927800Y-97091791D01*
X110927800Y-97091791D02*
X110975419Y-97139410D01*
X110975419Y-97139410D02*
X111070657Y-97187029D01*
X111070657Y-97187029D02*
X111261133Y-97234648D01*
X111261133Y-97234648D02*
X111499228Y-97234648D01*
X111499228Y-97234648D02*
X111689704Y-97187029D01*
X111689704Y-97187029D02*
X111784942Y-97139410D01*
X111784942Y-97139410D02*
X111832561Y-97091791D01*
X111832561Y-97091791D02*
X111880180Y-96996553D01*
X110880180Y-96187029D02*
X110880180Y-95996553D01*
X110880180Y-95996553D02*
X110927800Y-95901315D01*
X110927800Y-95901315D02*
X110975419Y-95853696D01*
X110975419Y-95853696D02*
X111118276Y-95758458D01*
X111118276Y-95758458D02*
X111308752Y-95710839D01*
X111308752Y-95710839D02*
X111689704Y-95710839D01*
X111689704Y-95710839D02*
X111784942Y-95758458D01*
X111784942Y-95758458D02*
X111832561Y-95806077D01*
X111832561Y-95806077D02*
X111880180Y-95901315D01*
X111880180Y-95901315D02*
X111880180Y-96091791D01*
X111880180Y-96091791D02*
X111832561Y-96187029D01*
X111832561Y-96187029D02*
X111784942Y-96234648D01*
X111784942Y-96234648D02*
X111689704Y-96282267D01*
X111689704Y-96282267D02*
X111451609Y-96282267D01*
X111451609Y-96282267D02*
X111356371Y-96234648D01*
X111356371Y-96234648D02*
X111308752Y-96187029D01*
X111308752Y-96187029D02*
X111261133Y-96091791D01*
X111261133Y-96091791D02*
X111261133Y-95901315D01*
X111261133Y-95901315D02*
X111308752Y-95806077D01*
X111308752Y-95806077D02*
X111356371Y-95758458D01*
X111356371Y-95758458D02*
X111451609Y-95710839D01*
X110975419Y-95282267D02*
X110927800Y-95234648D01*
X110927800Y-95234648D02*
X110880180Y-95282267D01*
X110880180Y-95282267D02*
X110927800Y-95329886D01*
X110927800Y-95329886D02*
X110975419Y-95282267D01*
X110975419Y-95282267D02*
X110880180Y-95282267D01*
X111880180Y-94615601D02*
X111880180Y-94520363D01*
X111880180Y-94520363D02*
X111832561Y-94425125D01*
X111832561Y-94425125D02*
X111784942Y-94377506D01*
X111784942Y-94377506D02*
X111689704Y-94329887D01*
X111689704Y-94329887D02*
X111499228Y-94282268D01*
X111499228Y-94282268D02*
X111261133Y-94282268D01*
X111261133Y-94282268D02*
X111070657Y-94329887D01*
X111070657Y-94329887D02*
X110975419Y-94377506D01*
X110975419Y-94377506D02*
X110927800Y-94425125D01*
X110927800Y-94425125D02*
X110880180Y-94520363D01*
X110880180Y-94520363D02*
X110880180Y-94615601D01*
X110880180Y-94615601D02*
X110927800Y-94710839D01*
X110927800Y-94710839D02*
X110975419Y-94758458D01*
X110975419Y-94758458D02*
X111070657Y-94806077D01*
X111070657Y-94806077D02*
X111261133Y-94853696D01*
X111261133Y-94853696D02*
X111499228Y-94853696D01*
X111499228Y-94853696D02*
X111689704Y-94806077D01*
X111689704Y-94806077D02*
X111784942Y-94758458D01*
X111784942Y-94758458D02*
X111832561Y-94710839D01*
X111832561Y-94710839D02*
X111880180Y-94615601D01*
X111784942Y-93901315D02*
X111832561Y-93853696D01*
X111832561Y-93853696D02*
X111880180Y-93758458D01*
X111880180Y-93758458D02*
X111880180Y-93520363D01*
X111880180Y-93520363D02*
X111832561Y-93425125D01*
X111832561Y-93425125D02*
X111784942Y-93377506D01*
X111784942Y-93377506D02*
X111689704Y-93329887D01*
X111689704Y-93329887D02*
X111594466Y-93329887D01*
X111594466Y-93329887D02*
X111451609Y-93377506D01*
X111451609Y-93377506D02*
X110880180Y-93948934D01*
X110880180Y-93948934D02*
X110880180Y-93329887D01*
X110975419Y-92901315D02*
X110927800Y-92853696D01*
X110927800Y-92853696D02*
X110880180Y-92901315D01*
X110880180Y-92901315D02*
X110927800Y-92948934D01*
X110927800Y-92948934D02*
X110975419Y-92901315D01*
X110975419Y-92901315D02*
X110880180Y-92901315D01*
X111784942Y-92472744D02*
X111832561Y-92425125D01*
X111832561Y-92425125D02*
X111880180Y-92329887D01*
X111880180Y-92329887D02*
X111880180Y-92091792D01*
X111880180Y-92091792D02*
X111832561Y-91996554D01*
X111832561Y-91996554D02*
X111784942Y-91948935D01*
X111784942Y-91948935D02*
X111689704Y-91901316D01*
X111689704Y-91901316D02*
X111594466Y-91901316D01*
X111594466Y-91901316D02*
X111451609Y-91948935D01*
X111451609Y-91948935D02*
X110880180Y-92520363D01*
X110880180Y-92520363D02*
X110880180Y-91901316D01*
X111880180Y-91282268D02*
X111880180Y-91187030D01*
X111880180Y-91187030D02*
X111832561Y-91091792D01*
X111832561Y-91091792D02*
X111784942Y-91044173D01*
X111784942Y-91044173D02*
X111689704Y-90996554D01*
X111689704Y-90996554D02*
X111499228Y-90948935D01*
X111499228Y-90948935D02*
X111261133Y-90948935D01*
X111261133Y-90948935D02*
X111070657Y-90996554D01*
X111070657Y-90996554D02*
X110975419Y-91044173D01*
X110975419Y-91044173D02*
X110927800Y-91091792D01*
X110927800Y-91091792D02*
X110880180Y-91187030D01*
X110880180Y-91187030D02*
X110880180Y-91282268D01*
X110880180Y-91282268D02*
X110927800Y-91377506D01*
X110927800Y-91377506D02*
X110975419Y-91425125D01*
X110975419Y-91425125D02*
X111070657Y-91472744D01*
X111070657Y-91472744D02*
X111261133Y-91520363D01*
X111261133Y-91520363D02*
X111499228Y-91520363D01*
X111499228Y-91520363D02*
X111689704Y-91472744D01*
X111689704Y-91472744D02*
X111784942Y-91425125D01*
X111784942Y-91425125D02*
X111832561Y-91377506D01*
X111832561Y-91377506D02*
X111880180Y-91282268D01*
X111784942Y-90567982D02*
X111832561Y-90520363D01*
X111832561Y-90520363D02*
X111880180Y-90425125D01*
X111880180Y-90425125D02*
X111880180Y-90187030D01*
X111880180Y-90187030D02*
X111832561Y-90091792D01*
X111832561Y-90091792D02*
X111784942Y-90044173D01*
X111784942Y-90044173D02*
X111689704Y-89996554D01*
X111689704Y-89996554D02*
X111594466Y-89996554D01*
X111594466Y-89996554D02*
X111451609Y-90044173D01*
X111451609Y-90044173D02*
X110880180Y-90615601D01*
X110880180Y-90615601D02*
X110880180Y-89996554D01*
X111880180Y-89139411D02*
X111880180Y-89329887D01*
X111880180Y-89329887D02*
X111832561Y-89425125D01*
X111832561Y-89425125D02*
X111784942Y-89472744D01*
X111784942Y-89472744D02*
X111642085Y-89567982D01*
X111642085Y-89567982D02*
X111451609Y-89615601D01*
X111451609Y-89615601D02*
X111070657Y-89615601D01*
X111070657Y-89615601D02*
X110975419Y-89567982D01*
X110975419Y-89567982D02*
X110927800Y-89520363D01*
X110927800Y-89520363D02*
X110880180Y-89425125D01*
X110880180Y-89425125D02*
X110880180Y-89234649D01*
X110880180Y-89234649D02*
X110927800Y-89139411D01*
X110927800Y-89139411D02*
X110975419Y-89091792D01*
X110975419Y-89091792D02*
X111070657Y-89044173D01*
X111070657Y-89044173D02*
X111308752Y-89044173D01*
X111308752Y-89044173D02*
X111403990Y-89091792D01*
X111403990Y-89091792D02*
X111451609Y-89139411D01*
X111451609Y-89139411D02*
X111499228Y-89234649D01*
X111499228Y-89234649D02*
X111499228Y-89425125D01*
X111499228Y-89425125D02*
X111451609Y-89520363D01*
X111451609Y-89520363D02*
X111403990Y-89567982D01*
X111403990Y-89567982D02*
X111308752Y-89615601D01*
D13*
%TO.C,REF\u002A\u002A*%
G36*
X122378379Y-110901021D02*
G01*
X122359393Y-111044026D01*
X122325229Y-111118061D01*
X122269545Y-111301043D01*
X122330577Y-111432066D01*
X122395139Y-111571506D01*
X122334200Y-111624007D01*
X122195841Y-111556627D01*
X122074669Y-111358118D01*
X122110883Y-111113244D01*
X122186627Y-110984488D01*
X122310646Y-110871398D01*
X122378379Y-110901021D01*
G37*
G36*
X122829591Y-109427614D02*
G01*
X122983715Y-109575278D01*
X123020109Y-109736261D01*
X122942219Y-109894329D01*
X122718591Y-109977854D01*
X122551967Y-109989129D01*
X122322157Y-109934981D01*
X122187300Y-109803150D01*
X122174989Y-109698476D01*
X122356111Y-109698476D01*
X122367332Y-109727556D01*
X122490743Y-109801922D01*
X122585177Y-109815157D01*
X122748984Y-109774549D01*
X122811403Y-109685532D01*
X122743007Y-109597312D01*
X122721170Y-109587770D01*
X122550729Y-109566820D01*
X122407743Y-109612136D01*
X122356111Y-109698476D01*
X122174989Y-109698476D01*
X122168060Y-109639563D01*
X122285100Y-109490142D01*
X122318500Y-109470272D01*
X122550729Y-109400181D01*
X122593649Y-109387227D01*
X122829591Y-109427614D01*
G37*
G36*
X122918263Y-112860620D02*
G01*
X123073531Y-112971824D01*
X123107095Y-113057881D01*
X123032566Y-113243593D01*
X122840355Y-113355992D01*
X122577530Y-113377663D01*
X122374826Y-113328795D01*
X122249570Y-113208441D01*
X122240925Y-113064388D01*
X122446979Y-113064388D01*
X122492750Y-113156271D01*
X122644054Y-113206677D01*
X122672163Y-113207622D01*
X122836750Y-113166178D01*
X122890009Y-113120022D01*
X122876783Y-113026513D01*
X122753690Y-112966713D01*
X122584629Y-112965867D01*
X122536171Y-112980236D01*
X122446979Y-113064388D01*
X122240925Y-113064388D01*
X122239169Y-113035125D01*
X122332537Y-112875909D01*
X122461112Y-112806801D01*
X122584629Y-112801817D01*
X122693098Y-112797440D01*
X122918263Y-112860620D01*
G37*
G36*
X122705720Y-105736438D02*
G01*
X123198640Y-105767317D01*
X123836926Y-105946178D01*
X124405501Y-106260651D01*
X124688663Y-106500478D01*
X124916215Y-106715138D01*
X125094111Y-106837443D01*
X125290133Y-106896401D01*
X125552977Y-106919351D01*
X125572063Y-106921018D01*
X125683042Y-106926023D01*
X126129164Y-106972946D01*
X126495967Y-107085116D01*
X126698780Y-107184211D01*
X127114010Y-107469916D01*
X127468762Y-107826314D01*
X127721554Y-108207117D01*
X127804216Y-108417691D01*
X127871133Y-108794638D01*
X127892695Y-109233704D01*
X127871172Y-109672948D01*
X127808832Y-110050430D01*
X127736893Y-110255286D01*
X127643203Y-110459264D01*
X127636143Y-110599487D01*
X127721392Y-110763433D01*
X127775120Y-110844139D01*
X127926248Y-111108206D01*
X128074771Y-111428435D01*
X128117844Y-111538186D01*
X128250725Y-111831887D01*
X128281386Y-111882216D01*
X128408869Y-112091474D01*
X128468859Y-112166255D01*
X128644565Y-112411575D01*
X128765139Y-112659601D01*
X128826837Y-112803432D01*
X128917022Y-112895333D01*
X129078719Y-112957710D01*
X129354951Y-113012973D01*
X129484972Y-113034507D01*
X130058507Y-113140505D01*
X130639749Y-113270323D01*
X131180138Y-113411554D01*
X131631114Y-113551788D01*
X131870965Y-113644193D01*
X132098071Y-113756413D01*
X132206055Y-113868738D01*
X132238788Y-114042091D01*
X132240656Y-114157575D01*
X132213966Y-114418295D01*
X132112730Y-114582163D01*
X132022175Y-114651561D01*
X131866319Y-114728483D01*
X131689308Y-114751579D01*
X131461019Y-114714648D01*
X131151331Y-114611491D01*
X130730121Y-114435909D01*
X130520091Y-114342400D01*
X130181748Y-114192684D01*
X129903860Y-114074642D01*
X129723707Y-114003842D01*
X129677426Y-113990499D01*
X129697087Y-114048945D01*
X129809070Y-114201282D01*
X129966926Y-114388851D01*
X130330981Y-114924612D01*
X130531381Y-115519260D01*
X130570730Y-116136090D01*
X130544424Y-116643581D01*
X130090187Y-116624848D01*
X129582733Y-116534109D01*
X129081983Y-116324276D01*
X128695965Y-116053191D01*
X128561996Y-115954959D01*
X128500652Y-115958342D01*
X128500246Y-115963774D01*
X128446496Y-116071819D01*
X128306542Y-116263350D01*
X128138084Y-116465114D01*
X127895589Y-116781169D01*
X127759207Y-117079901D01*
X127705975Y-117319038D01*
X127541438Y-117821732D01*
X127226231Y-118259865D01*
X126776835Y-118617111D01*
X126209732Y-118877145D01*
X126097775Y-118911976D01*
X125822294Y-119005750D01*
X125671691Y-119104631D01*
X125599388Y-119243207D01*
X125587468Y-119290910D01*
X125428260Y-119650739D01*
X125132395Y-119998283D01*
X124736758Y-120309013D01*
X124278234Y-120558401D01*
X123793707Y-120721919D01*
X123355093Y-120775431D01*
X122886733Y-120729675D01*
X122415371Y-120606083D01*
X122003316Y-120425166D01*
X121752950Y-120248010D01*
X121553956Y-120061065D01*
X121258970Y-120286062D01*
X120727743Y-120587730D01*
X120134528Y-120747886D01*
X119521378Y-120761816D01*
X118930345Y-120624808D01*
X118784347Y-120563351D01*
X118387374Y-120336156D01*
X118009513Y-120045754D01*
X117693296Y-119730889D01*
X117481258Y-119430309D01*
X117440916Y-119339534D01*
X117366212Y-119172516D01*
X117261452Y-119077442D01*
X117074269Y-119023355D01*
X116852231Y-118991559D01*
X116351488Y-118883352D01*
X115904678Y-118677712D01*
X115464730Y-118349434D01*
X115217085Y-118115945D01*
X114846108Y-117681471D01*
X114558610Y-117216925D01*
X114376931Y-116764806D01*
X114322328Y-116413676D01*
X114283202Y-116154930D01*
X114205151Y-116065970D01*
X114489649Y-116065970D01*
X114490777Y-116258255D01*
X114530247Y-116519933D01*
X114600583Y-116802895D01*
X114694307Y-117059033D01*
X114703343Y-117078513D01*
X115039711Y-117629153D01*
X115478622Y-118108357D01*
X115985518Y-118488261D01*
X116525841Y-118741001D01*
X116865828Y-118822104D01*
X117279013Y-118881486D01*
X117279013Y-118515745D01*
X117254080Y-118279430D01*
X117452985Y-118279430D01*
X117454896Y-118592328D01*
X117494099Y-118878579D01*
X117588677Y-119191152D01*
X117615213Y-119253916D01*
X117782100Y-119528339D01*
X118014851Y-119806899D01*
X118109505Y-119897518D01*
X118672395Y-120295015D01*
X119257697Y-120527534D01*
X119849914Y-120594667D01*
X120433550Y-120496006D01*
X120993107Y-120231144D01*
X121322508Y-119982086D01*
X121411239Y-119904179D01*
X121726035Y-119904179D01*
X121791042Y-120023501D01*
X122002236Y-120192618D01*
X122053629Y-120227798D01*
X122588705Y-120485756D01*
X123211813Y-120596209D01*
X123382200Y-120600973D01*
X123807381Y-120537237D01*
X124252817Y-120363627D01*
X124677937Y-120107984D01*
X125042172Y-119798145D01*
X125304950Y-119461950D01*
X125411184Y-119208691D01*
X125428317Y-119081769D01*
X125378204Y-119001130D01*
X125224573Y-118938691D01*
X124985142Y-118878871D01*
X124506119Y-118767502D01*
X124159178Y-119114443D01*
X123830851Y-119415049D01*
X123530802Y-119609521D01*
X123203814Y-119719459D01*
X122794670Y-119766460D01*
X122474366Y-119773470D01*
X122061075Y-119786314D01*
X121813839Y-119827500D01*
X121726035Y-119904179D01*
X121411239Y-119904179D01*
X121627941Y-119713912D01*
X121115984Y-119383019D01*
X120829503Y-119174368D01*
X120586049Y-118955702D01*
X120448403Y-118788674D01*
X120332341Y-118617673D01*
X120228701Y-118575649D01*
X120071446Y-118636306D01*
X120068944Y-118637561D01*
X119605980Y-118781709D01*
X119063418Y-118805977D01*
X118484798Y-118713383D01*
X117913656Y-118506948D01*
X117868286Y-118484960D01*
X117452985Y-118279430D01*
X117254080Y-118279430D01*
X117250860Y-118248913D01*
X117144803Y-118016165D01*
X116971613Y-117790877D01*
X116747469Y-117491495D01*
X116528355Y-117140319D01*
X116443033Y-116979672D01*
X116308695Y-116722689D01*
X116190493Y-116580609D01*
X116032808Y-116509850D01*
X115790351Y-116468248D01*
X115436899Y-116385940D01*
X115071703Y-116251346D01*
X114966041Y-116200043D01*
X114735417Y-116081123D01*
X114575330Y-116005479D01*
X114534341Y-115991184D01*
X114489649Y-116065970D01*
X114205151Y-116065970D01*
X114186864Y-116045127D01*
X113986877Y-116023504D01*
X113667666Y-116048892D01*
X113274811Y-116112572D01*
X112853893Y-116205822D01*
X112450491Y-116319921D01*
X112125161Y-116439612D01*
X111767277Y-116580241D01*
X111515189Y-116626772D01*
X111322205Y-116568848D01*
X111141630Y-116396116D01*
X110987939Y-116187427D01*
X110843096Y-115911901D01*
X110763280Y-115624835D01*
X110760415Y-115449072D01*
X110921464Y-115449072D01*
X110939250Y-115619607D01*
X111022519Y-115849125D01*
X111158699Y-116092868D01*
X111196385Y-116146508D01*
X111463757Y-116510077D01*
X111783542Y-116369794D01*
X112330795Y-116161046D01*
X112895902Y-116000025D01*
X113433467Y-115896024D01*
X113898098Y-115858334D01*
X114176036Y-115880047D01*
X114351077Y-115890307D01*
X114390881Y-115820493D01*
X114295646Y-115658914D01*
X114182097Y-115522502D01*
X114050607Y-115386381D01*
X113924680Y-115316734D01*
X113747483Y-115298830D01*
X113462178Y-115317935D01*
X113411099Y-115322657D01*
X113006535Y-115385009D01*
X112573842Y-115488266D01*
X112351670Y-115558705D01*
X111945975Y-115699940D01*
X111666090Y-115776352D01*
X111476990Y-115789449D01*
X111343653Y-115740737D01*
X111231056Y-115631725D01*
X111211821Y-115607766D01*
X111076142Y-115453523D01*
X110985589Y-115382767D01*
X110981733Y-115382280D01*
X110921464Y-115449072D01*
X110760415Y-115449072D01*
X110759344Y-115383384D01*
X110813031Y-115266298D01*
X110977914Y-115208742D01*
X111179303Y-115296151D01*
X111325686Y-115441251D01*
X111511429Y-115674195D01*
X112004814Y-115473945D01*
X112348690Y-115359082D01*
X112773037Y-115251571D01*
X113179473Y-115175761D01*
X113747483Y-115094110D01*
X113860746Y-115077828D01*
X113739726Y-114729883D01*
X113640336Y-114268761D01*
X113623651Y-113933424D01*
X113784787Y-113933424D01*
X113919989Y-114627175D01*
X113940825Y-114695896D01*
X114186147Y-115205937D01*
X114534341Y-115618568D01*
X114564727Y-115654577D01*
X115038271Y-116009335D01*
X115568486Y-116237728D01*
X115821992Y-116291570D01*
X116235177Y-116349789D01*
X116235177Y-115748535D01*
X116239291Y-115672986D01*
X116395579Y-115672986D01*
X116429351Y-116214785D01*
X116546554Y-116717293D01*
X116638010Y-116938207D01*
X117021869Y-117531774D01*
X117452985Y-117953088D01*
X117514949Y-118013643D01*
X118092068Y-118367173D01*
X118728042Y-118575720D01*
X119192711Y-118626485D01*
X119547685Y-118604004D01*
X119852142Y-118531184D01*
X120069066Y-118422575D01*
X120161440Y-118292727D01*
X120158095Y-118247021D01*
X120038000Y-117719529D01*
X120005498Y-117257811D01*
X120027233Y-117058330D01*
X120200889Y-117058330D01*
X120245740Y-117724949D01*
X120444892Y-118355804D01*
X120454868Y-118377149D01*
X120766683Y-118843208D01*
X121202136Y-119223414D01*
X121722300Y-119493881D01*
X122288249Y-119630722D01*
X122517143Y-119642698D01*
X123087229Y-119556551D01*
X123610298Y-119312314D01*
X124064922Y-118923975D01*
X124429674Y-118405524D01*
X124439109Y-118387910D01*
X124506119Y-118230998D01*
X124544938Y-118140098D01*
X124603810Y-117857250D01*
X124626493Y-117479542D01*
X124627850Y-117339472D01*
X124620763Y-116963478D01*
X124587965Y-116696629D01*
X124515076Y-116474468D01*
X124387720Y-116232536D01*
X124376789Y-116213867D01*
X124083536Y-115781598D01*
X123762418Y-115466199D01*
X123354264Y-115213411D01*
X123209177Y-115143142D01*
X123090694Y-115094102D01*
X123715999Y-115094102D01*
X123772088Y-115165265D01*
X123916435Y-115319497D01*
X124048903Y-115454225D01*
X124446624Y-115970047D01*
X124708757Y-116567343D01*
X124828279Y-117210382D01*
X124798167Y-117863430D01*
X124634930Y-118435986D01*
X124636143Y-118534010D01*
X124754381Y-118614483D01*
X124974803Y-118687060D01*
X125503965Y-118786331D01*
X125969467Y-118756361D01*
X126428789Y-118592775D01*
X126467713Y-118573418D01*
X126916058Y-118279193D01*
X127272153Y-117911997D01*
X127475305Y-117561841D01*
X127530508Y-117311848D01*
X127557369Y-116949918D01*
X127556310Y-116535689D01*
X127527757Y-116128802D01*
X127472134Y-115788896D01*
X127462421Y-115750830D01*
X127253741Y-115293999D01*
X126913213Y-114907165D01*
X126781286Y-114816403D01*
X127129204Y-114816403D01*
X127332957Y-115058549D01*
X127498606Y-115315698D01*
X127622055Y-115608543D01*
X127626555Y-115624194D01*
X127688638Y-115927684D01*
X127716748Y-116222773D01*
X127716884Y-116237645D01*
X127740976Y-116435402D01*
X127817598Y-116483163D01*
X127954633Y-116378806D01*
X128159963Y-116120206D01*
X128161665Y-116117840D01*
X128409047Y-115773718D01*
X128106701Y-115176088D01*
X127958431Y-114847872D01*
X127850537Y-114542045D01*
X127804496Y-114320353D01*
X127804120Y-114306225D01*
X127803885Y-114033992D01*
X127466544Y-114425197D01*
X127129204Y-114816403D01*
X126781286Y-114816403D01*
X126473911Y-114604938D01*
X125968908Y-114401926D01*
X125431278Y-114312737D01*
X124894092Y-114351981D01*
X124542369Y-114460992D01*
X124328373Y-114574784D01*
X124092328Y-114733093D01*
X123881705Y-114899549D01*
X123743975Y-115037784D01*
X123715999Y-115094102D01*
X123090694Y-115094102D01*
X122916840Y-115022144D01*
X122669928Y-114968821D01*
X122382779Y-114970154D01*
X122189117Y-114988126D01*
X121700721Y-115083773D01*
X121244644Y-115251557D01*
X120864770Y-115470149D01*
X120604982Y-115718217D01*
X120567232Y-115776495D01*
X120308624Y-116395620D01*
X120200889Y-117058330D01*
X120027233Y-117058330D01*
X120057660Y-116779073D01*
X120098942Y-116576044D01*
X120200135Y-116206315D01*
X120326870Y-115860412D01*
X120452593Y-115610292D01*
X120458706Y-115601105D01*
X120671247Y-115287909D01*
X120483059Y-114921910D01*
X120339261Y-114607750D01*
X120215816Y-114281957D01*
X120192541Y-114207965D01*
X120116559Y-114001341D01*
X120007233Y-113869955D01*
X119813651Y-113768426D01*
X119619714Y-113697357D01*
X118967243Y-113546833D01*
X118338502Y-113544007D01*
X117756751Y-113681013D01*
X117245252Y-113949983D01*
X116827266Y-114343049D01*
X116584436Y-114723994D01*
X116446765Y-115155016D01*
X116395579Y-115672986D01*
X116239291Y-115672986D01*
X116263892Y-115221263D01*
X116362338Y-114796962D01*
X116548967Y-114412359D01*
X116683184Y-114212308D01*
X116931460Y-113868707D01*
X116667562Y-113596433D01*
X116357488Y-113156769D01*
X116153763Y-112598115D01*
X116064631Y-111945156D01*
X116061204Y-111780722D01*
X116052442Y-111453273D01*
X116259797Y-111453273D01*
X116263740Y-111772348D01*
X116285448Y-112231252D01*
X116325745Y-112563197D01*
X116392562Y-112814870D01*
X116470634Y-112990157D01*
X116639554Y-113261545D01*
X116831054Y-113500987D01*
X116875859Y-113545931D01*
X117098540Y-113753760D01*
X117558468Y-113554427D01*
X118056519Y-113410125D01*
X118338502Y-113383563D01*
X118629757Y-113356127D01*
X119203435Y-113394501D01*
X119624246Y-113497233D01*
X119854183Y-113574359D01*
X120001148Y-113615244D01*
X120027294Y-113616955D01*
X120023171Y-113528852D01*
X119997349Y-113317775D01*
X119962561Y-113077143D01*
X119935650Y-112800746D01*
X119916134Y-112397577D01*
X119905405Y-111914735D01*
X119904858Y-111401447D01*
X120091836Y-111401447D01*
X120103160Y-111956695D01*
X120127291Y-112516357D01*
X120162808Y-113038290D01*
X120208289Y-113480351D01*
X120262312Y-113800396D01*
X120272270Y-113839735D01*
X120392671Y-114212090D01*
X120545926Y-114598068D01*
X120626433Y-114770312D01*
X120843796Y-115199257D01*
X121216959Y-115034189D01*
X121684150Y-114884315D01*
X122203297Y-114808302D01*
X122669928Y-114811136D01*
X122705918Y-114811355D01*
X123102132Y-114890970D01*
X123488607Y-115025551D01*
X123858121Y-114684945D01*
X124102443Y-114485317D01*
X124334557Y-114337087D01*
X124450241Y-114288469D01*
X124571207Y-114245731D01*
X124637960Y-114165250D01*
X124666499Y-114003120D01*
X124672822Y-113715435D01*
X124672848Y-113677550D01*
X124608557Y-113066230D01*
X124427505Y-112496598D01*
X124147422Y-112022589D01*
X124116309Y-111984494D01*
X123972600Y-111793694D01*
X123894617Y-111651218D01*
X123889972Y-111628088D01*
X123912140Y-111578445D01*
X124079921Y-111578445D01*
X124333749Y-111928844D01*
X124516961Y-112236310D01*
X124675495Y-112592177D01*
X124717199Y-112715728D01*
X124794792Y-113074021D01*
X124841099Y-113475166D01*
X124846831Y-113636595D01*
X124846842Y-114120979D01*
X125390496Y-114127512D01*
X125431278Y-114131254D01*
X125847604Y-114169453D01*
X126287943Y-114298908D01*
X126488275Y-114383298D01*
X127042400Y-114632550D01*
X127295662Y-114333271D01*
X127488675Y-114075060D01*
X127593949Y-113911290D01*
X127968842Y-113911290D01*
X128002242Y-114244663D01*
X128084314Y-114608122D01*
X128210256Y-114957651D01*
X128229746Y-115000079D01*
X128588569Y-115599665D01*
X129026968Y-116045907D01*
X129549273Y-116342322D01*
X130049760Y-116477102D01*
X130413944Y-116535337D01*
X130413944Y-116040408D01*
X130328943Y-115432780D01*
X130074186Y-114862276D01*
X129650044Y-114329638D01*
X129480181Y-114168717D01*
X129169841Y-113927329D01*
X128833828Y-113722196D01*
X128511916Y-113571839D01*
X128243881Y-113494776D01*
X128069497Y-113509527D01*
X128067269Y-113510867D01*
X127988917Y-113652019D01*
X127968842Y-113911290D01*
X127593949Y-113911290D01*
X127693417Y-113756553D01*
X127783289Y-113599061D01*
X127803885Y-113556461D01*
X127904264Y-113348838D01*
X127969106Y-113134828D01*
X128152300Y-113134828D01*
X128232360Y-113213511D01*
X128243881Y-113219450D01*
X128458199Y-113329921D01*
X128808309Y-113474024D01*
X129130896Y-113591253D01*
X129573803Y-113751197D01*
X130009286Y-113918933D01*
X130380494Y-114072020D01*
X130587917Y-114166366D01*
X131119383Y-114404606D01*
X131524618Y-114532228D01*
X131811631Y-114549277D01*
X131988429Y-114455798D01*
X132063022Y-114251835D01*
X132066684Y-114174622D01*
X132034528Y-113996844D01*
X131908222Y-113872505D01*
X131740485Y-113789234D01*
X131435941Y-113669703D01*
X131093807Y-113561128D01*
X130688929Y-113457926D01*
X130196152Y-113354511D01*
X129590322Y-113245299D01*
X128846285Y-113124707D01*
X128521992Y-113074722D01*
X128278411Y-113051969D01*
X128168185Y-113085262D01*
X128152300Y-113134828D01*
X127969106Y-113134828D01*
X127975643Y-113113254D01*
X128009947Y-112830118D01*
X128017034Y-112544574D01*
X128239287Y-112544574D01*
X128258722Y-112750023D01*
X128278411Y-112793432D01*
X128306713Y-112855830D01*
X128319159Y-112859677D01*
X128465177Y-112888370D01*
X128535146Y-112911910D01*
X128620329Y-112924768D01*
X128623337Y-112840347D01*
X128579004Y-112699494D01*
X128475781Y-112479503D01*
X128363017Y-112332158D01*
X128281386Y-112291575D01*
X128245843Y-112372127D01*
X128239287Y-112544574D01*
X128017034Y-112544574D01*
X128019698Y-112437243D01*
X128019737Y-112424746D01*
X128011689Y-112018621D01*
X127977243Y-111723779D01*
X127905029Y-111478181D01*
X127807218Y-111265238D01*
X127468870Y-110757220D01*
X127042175Y-110357579D01*
X126554924Y-110079648D01*
X126034909Y-109936760D01*
X125509920Y-109942249D01*
X125211127Y-110019746D01*
X125032067Y-110111195D01*
X124895353Y-110262374D01*
X124763757Y-110519634D01*
X124713779Y-110638979D01*
X124566996Y-110950737D01*
X124403519Y-111225178D01*
X124292221Y-111366145D01*
X124079921Y-111578445D01*
X123912140Y-111578445D01*
X123940342Y-111515289D01*
X124069473Y-111320738D01*
X124177486Y-111178084D01*
X124448960Y-110793484D01*
X124603993Y-110450690D01*
X124666503Y-110088715D01*
X124670938Y-109919797D01*
X124587968Y-109385052D01*
X124360767Y-108908140D01*
X124014077Y-108505490D01*
X123572641Y-108193534D01*
X123071935Y-107993000D01*
X123802985Y-107993000D01*
X123862913Y-108092592D01*
X124017379Y-108261967D01*
X124164526Y-108401856D01*
X124490634Y-108767465D01*
X124724622Y-109175114D01*
X124838422Y-109572388D01*
X124844910Y-109672361D01*
X124864040Y-109845031D01*
X124951678Y-109887301D01*
X125074435Y-109863876D01*
X125653438Y-109755930D01*
X126034909Y-109757544D01*
X126139279Y-109757986D01*
X126578375Y-109876194D01*
X127017142Y-110116708D01*
X127025805Y-110122520D01*
X127467176Y-110419541D01*
X127600694Y-110099986D01*
X127684454Y-109780819D01*
X127710002Y-109346126D01*
X127703719Y-109108933D01*
X127677655Y-108737279D01*
X127628266Y-108476042D01*
X127537720Y-108261753D01*
X127409204Y-108060714D01*
X127047025Y-107669071D01*
X126588795Y-107360946D01*
X126076713Y-107151994D01*
X125552977Y-107057871D01*
X125059785Y-107094232D01*
X124915949Y-107135756D01*
X124698135Y-107240795D01*
X124438065Y-107405868D01*
X124177870Y-107598524D01*
X123959676Y-107786316D01*
X123825612Y-107936795D01*
X123802985Y-107993000D01*
X123071935Y-107993000D01*
X123061203Y-107988702D01*
X122504505Y-107907423D01*
X121927290Y-107966128D01*
X121785498Y-108003755D01*
X121342501Y-108221812D01*
X120934840Y-108585751D01*
X120583135Y-109068107D01*
X120308007Y-109641415D01*
X120148927Y-110183619D01*
X120113298Y-110472766D01*
X120094742Y-110892756D01*
X120091836Y-111401447D01*
X119904858Y-111401447D01*
X119904856Y-111399316D01*
X119907459Y-111212587D01*
X119932095Y-109869948D01*
X119410177Y-109658227D01*
X118795227Y-109466227D01*
X118200908Y-109388290D01*
X117655307Y-109421969D01*
X117186513Y-109564819D01*
X116822614Y-109814392D01*
X116754292Y-109889552D01*
X116523540Y-110214690D01*
X116371847Y-110554363D01*
X116287753Y-110952560D01*
X116259797Y-111453273D01*
X116052442Y-111453273D01*
X116051331Y-111411756D01*
X116006459Y-111189490D01*
X115903709Y-111087072D01*
X115720202Y-111077652D01*
X115497796Y-111119500D01*
X114956830Y-111324489D01*
X114506039Y-111662665D01*
X114154432Y-112113338D01*
X113911016Y-112655815D01*
X113784798Y-113269408D01*
X113784787Y-113933424D01*
X113623651Y-113933424D01*
X113612722Y-113713756D01*
X113652253Y-113127281D01*
X113754302Y-112571750D01*
X113914239Y-112109577D01*
X113937577Y-112062433D01*
X114005089Y-111912394D01*
X113978591Y-111836243D01*
X113825989Y-111792097D01*
X113715711Y-111772878D01*
X113393858Y-111748529D01*
X113022802Y-111766107D01*
X112641963Y-111817549D01*
X112290759Y-111894793D01*
X112008610Y-111989775D01*
X111834934Y-112094432D01*
X111798876Y-112164954D01*
X111735467Y-112248375D01*
X111581846Y-112248880D01*
X111392920Y-112179508D01*
X111223596Y-112053294D01*
X111196580Y-112021952D01*
X111032613Y-111751561D01*
X110923670Y-111452565D01*
X110885088Y-111189316D01*
X111070899Y-111189316D01*
X111100304Y-111362323D01*
X111175753Y-111586344D01*
X111282041Y-111808748D01*
X111319445Y-111870008D01*
X111465711Y-112042129D01*
X111593051Y-112055557D01*
X111700205Y-111960399D01*
X111910906Y-111819517D01*
X112272539Y-111708797D01*
X112763963Y-111632764D01*
X113364040Y-111595939D01*
X113408122Y-111594975D01*
X113776500Y-111586754D01*
X114072592Y-111578184D01*
X114258229Y-111570482D01*
X114301737Y-111566448D01*
X114276551Y-111495045D01*
X114183108Y-111337642D01*
X114175601Y-111326124D01*
X114089421Y-111209090D01*
X113992795Y-111145154D01*
X113839603Y-111124014D01*
X113583725Y-111135371D01*
X113391452Y-111150980D01*
X112976834Y-111206011D01*
X112541216Y-111294746D01*
X112237284Y-111379739D01*
X111901847Y-111488645D01*
X111686559Y-111537628D01*
X111547488Y-111524596D01*
X111440706Y-111447457D01*
X111348403Y-111337417D01*
X111207961Y-111185860D01*
X111104901Y-111120036D01*
X111102744Y-111119951D01*
X111070899Y-111189316D01*
X110885088Y-111189316D01*
X110883850Y-111180868D01*
X110927253Y-110992379D01*
X110934523Y-110982832D01*
X111047985Y-110881331D01*
X111102744Y-110884547D01*
X111163982Y-110888144D01*
X111323493Y-111015313D01*
X111434109Y-111129654D01*
X111615691Y-111298792D01*
X111750072Y-111346046D01*
X111851703Y-111314043D01*
X112069231Y-111232419D01*
X112401375Y-111143197D01*
X112789896Y-111058491D01*
X113176559Y-110990417D01*
X113503127Y-110951088D01*
X113621013Y-110945979D01*
X113973533Y-110945979D01*
X113974383Y-110489301D01*
X113986395Y-110409423D01*
X114152144Y-110409423D01*
X114181655Y-110856675D01*
X114280356Y-111124535D01*
X114413206Y-111381438D01*
X114846666Y-111161787D01*
X115175149Y-111029822D01*
X115520324Y-110942542D01*
X115669948Y-110925171D01*
X115720202Y-110921069D01*
X115907132Y-110905813D01*
X116040484Y-110844135D01*
X116127295Y-110694493D01*
X116192393Y-110508912D01*
X116331754Y-110190337D01*
X116516600Y-109885632D01*
X116572140Y-109813606D01*
X116819263Y-109517592D01*
X116658025Y-109253189D01*
X116547226Y-108972634D01*
X116509588Y-108724002D01*
X116684188Y-108724002D01*
X116807177Y-109132008D01*
X116925533Y-109310331D01*
X117050551Y-109354080D01*
X117133376Y-109335430D01*
X117314751Y-109298702D01*
X117605803Y-109262427D01*
X117931410Y-109235335D01*
X118200908Y-109243007D01*
X118604696Y-109254501D01*
X119270975Y-109407098D01*
X119729061Y-109583958D01*
X120047944Y-109724392D01*
X120315243Y-109153188D01*
X120490293Y-108824740D01*
X120685830Y-108526105D01*
X120848642Y-108333408D01*
X121114743Y-108084833D01*
X120939128Y-107740601D01*
X120614422Y-107293203D01*
X120149288Y-106943584D01*
X119749703Y-106777845D01*
X120325690Y-106777845D01*
X120634188Y-107048710D01*
X120869982Y-107298298D01*
X121073780Y-107583048D01*
X121113303Y-107654010D01*
X121223736Y-107857772D01*
X121300494Y-107976254D01*
X121315020Y-107988444D01*
X121407344Y-107958169D01*
X121598015Y-107882956D01*
X121658404Y-107857965D01*
X122009271Y-107768575D01*
X122447605Y-107735917D01*
X122504505Y-107739037D01*
X122896229Y-107760518D01*
X123277967Y-107842905D01*
X123289124Y-107846826D01*
X123479828Y-107906167D01*
X123608485Y-107895742D01*
X123736379Y-107792555D01*
X123882277Y-107624252D01*
X124132417Y-107378197D01*
X124421758Y-107163553D01*
X124514665Y-107110526D01*
X124866408Y-106931080D01*
X124620406Y-106674309D01*
X124407761Y-106496381D01*
X124108787Y-106298410D01*
X123857335Y-106159155D01*
X123527288Y-106011520D01*
X123233938Y-105932594D01*
X122891277Y-105903079D01*
X122705720Y-105900773D01*
X122079016Y-105959431D01*
X121455793Y-106122413D01*
X120898768Y-106370237D01*
X120630244Y-106545550D01*
X120325690Y-106777845D01*
X119749703Y-106777845D01*
X119549124Y-106694649D01*
X118819326Y-106549298D01*
X118700885Y-106536786D01*
X118351586Y-106519031D01*
X118085788Y-106554057D01*
X117817590Y-106655036D01*
X117764043Y-106680452D01*
X117370349Y-106953118D01*
X117050177Y-107333107D01*
X116818866Y-107781117D01*
X116691757Y-108257849D01*
X116684188Y-108724002D01*
X116509588Y-108724002D01*
X116496998Y-108640835D01*
X116496461Y-108607977D01*
X116496136Y-108227168D01*
X116126444Y-108286273D01*
X115630496Y-108436255D01*
X115177515Y-108704365D01*
X114785347Y-109063171D01*
X114471833Y-109485238D01*
X114254817Y-109943133D01*
X114152144Y-110409423D01*
X113986395Y-110409423D01*
X114059483Y-109923387D01*
X114301931Y-109378273D01*
X114685605Y-108887955D01*
X114774172Y-108802845D01*
X115105605Y-108517306D01*
X115387341Y-108330575D01*
X115682120Y-108208705D01*
X116032753Y-108121803D01*
X116269608Y-108066393D01*
X116427556Y-107993394D01*
X116496136Y-107921313D01*
X116551057Y-107863589D01*
X116684571Y-107637763D01*
X116772962Y-107468889D01*
X117062872Y-107006330D01*
X117390139Y-106680476D01*
X117440561Y-106643713D01*
X117637068Y-106514676D01*
X117809297Y-106437127D01*
X118010853Y-106399086D01*
X118295340Y-106388571D01*
X118351586Y-106389096D01*
X118570558Y-106391141D01*
X119031557Y-106417006D01*
X119439467Y-106474074D01*
X119700605Y-106542233D01*
X119924943Y-106618427D01*
X120079409Y-106630553D01*
X120235244Y-106566969D01*
X120460834Y-106417998D01*
X121121738Y-106049409D01*
X121815423Y-105818433D01*
X122516264Y-105724570D01*
X122705720Y-105736438D01*
G37*
%TD*%
M02*
