%TF.GenerationSoftware,KiCad,Pcbnew,9.0.7*%
%TF.CreationDate,2026-07-15T19:52:47+02:00*%
%TF.ProjectId,PSU_Control_RPI,5053555f-436f-46e7-9472-6f6c5f525049,A*%
%TF.SameCoordinates,Original*%
%TF.FileFunction,Copper,L2,Bot*%
%TF.FilePolarity,Positive*%
%FSLAX46Y46*%
G04 Gerber Fmt 4.6, Leading zero omitted, Abs format (unit mm)*
G04 Created by KiCad (PCBNEW 9.0.7) date 2026-07-15 19:52:47*
%MOMM*%
%LPD*%
G01*
G04 APERTURE LIST*
%TA.AperFunction,ComponentPad*%
%ADD10C,3.100000*%
%TD*%
%TA.AperFunction,ComponentPad*%
%ADD11R,1.575000X1.575000*%
%TD*%
%TA.AperFunction,ComponentPad*%
%ADD12C,1.575000*%
%TD*%
%TA.AperFunction,ComponentPad*%
%ADD13R,1.700000X1.700000*%
%TD*%
%TA.AperFunction,ComponentPad*%
%ADD14C,1.700000*%
%TD*%
%TA.AperFunction,ViaPad*%
%ADD15C,0.700000*%
%TD*%
%TA.AperFunction,Conductor*%
%ADD16C,0.300000*%
%TD*%
%TA.AperFunction,Conductor*%
%ADD17C,0.500000*%
%TD*%
G04 APERTURE END LIST*
D10*
%TO.P,MH4,1,1*%
%TO.N,GND*%
X136500000Y-131500000D03*
%TD*%
%TO.P,MH3,1,1*%
%TO.N,GND*%
X113500000Y-131500000D03*
%TD*%
%TO.P,MH2,1,1*%
%TO.N,GND*%
X136500000Y-73500000D03*
%TD*%
D11*
%TO.P,J1,1,1*%
%TO.N,+24V*%
X122000000Y-140500000D03*
D12*
%TO.P,J1,2,2*%
%TO.N,/ADC/ADC-IN*%
X124000000Y-140500000D03*
%TO.P,J1,3,3*%
%TO.N,/Power/RELAY-CTRL*%
X126000000Y-140500000D03*
%TO.P,J1,4,4*%
%TO.N,GND*%
X128000000Y-140500000D03*
%TD*%
D10*
%TO.P,MH1,1,1*%
%TO.N,GND*%
X113500000Y-73500000D03*
%TD*%
D13*
%TO.P,J2,1,Pin_1*%
%TO.N,+3V3*%
X135210000Y-78400000D03*
D14*
%TO.P,J2,2,Pin_2*%
%TO.N,+5V*%
X137750000Y-78400000D03*
%TO.P,J2,3,Pin_3*%
%TO.N,unconnected-(J2-Pin_3-Pad3)*%
X135210000Y-80940000D03*
%TO.P,J2,4,Pin_4*%
%TO.N,+5V*%
X137750000Y-80940000D03*
%TO.P,J2,5,Pin_5*%
%TO.N,unconnected-(J2-Pin_5-Pad5)*%
X135210000Y-83480000D03*
%TO.P,J2,6,Pin_6*%
%TO.N,GND*%
X137750000Y-83480000D03*
%TO.P,J2,7,Pin_7*%
%TO.N,unconnected-(J2-Pin_7-Pad7)*%
X135210000Y-86020000D03*
%TO.P,J2,8,Pin_8*%
%TO.N,unconnected-(J2-Pin_8-Pad8)*%
X137750000Y-86020000D03*
%TO.P,J2,9,Pin_9*%
%TO.N,GND*%
X135210000Y-88560000D03*
%TO.P,J2,10,Pin_10*%
%TO.N,unconnected-(J2-Pin_10-Pad10)*%
X137750000Y-88560000D03*
%TO.P,J2,11,Pin_11*%
%TO.N,/Power/RELAY-CTRL*%
X135210000Y-91100000D03*
%TO.P,J2,12,Pin_12*%
%TO.N,unconnected-(J2-Pin_12-Pad12)*%
X137750000Y-91100000D03*
%TO.P,J2,13,Pin_13*%
%TO.N,unconnected-(J2-Pin_13-Pad13)*%
X135210000Y-93640000D03*
%TO.P,J2,14,Pin_14*%
%TO.N,GND*%
X137750000Y-93640000D03*
%TO.P,J2,15,Pin_15*%
%TO.N,unconnected-(J2-Pin_15-Pad15)*%
X135210000Y-96180000D03*
%TO.P,J2,16,Pin_16*%
%TO.N,unconnected-(J2-Pin_16-Pad16)*%
X137750000Y-96180000D03*
%TO.P,J2,17,Pin_17*%
%TO.N,unconnected-(J2-Pin_17-Pad17)*%
X135210000Y-98720000D03*
%TO.P,J2,18,Pin_18*%
%TO.N,unconnected-(J2-Pin_18-Pad18)*%
X137750000Y-98720000D03*
%TO.P,J2,19,Pin_19*%
%TO.N,/ADC/SPI-MISO*%
X135210000Y-101260000D03*
%TO.P,J2,20,Pin_20*%
%TO.N,GND*%
X137750000Y-101260000D03*
%TO.P,J2,21,Pin_21*%
%TO.N,unconnected-(J2-Pin_21-Pad21)*%
X135210000Y-103800000D03*
%TO.P,J2,22,Pin_22*%
%TO.N,unconnected-(J2-Pin_22-Pad22)*%
X137750000Y-103800000D03*
%TO.P,J2,23,Pin_23*%
%TO.N,/ADC/SPI-CLK*%
X135210000Y-106340000D03*
%TO.P,J2,24,Pin_24*%
%TO.N,/ADC/~{CS}*%
X137750000Y-106340000D03*
%TO.P,J2,25,Pin_25*%
%TO.N,GND*%
X135210000Y-108880000D03*
%TO.P,J2,26,Pin_26*%
%TO.N,unconnected-(J2-Pin_26-Pad26)*%
X137750000Y-108880000D03*
%TO.P,J2,27,Pin_27*%
%TO.N,unconnected-(J2-Pin_27-Pad27)*%
X135210000Y-111420000D03*
%TO.P,J2,28,Pin_28*%
%TO.N,unconnected-(J2-Pin_28-Pad28)*%
X137750000Y-111420000D03*
%TO.P,J2,29,Pin_29*%
%TO.N,unconnected-(J2-Pin_29-Pad29)*%
X135210000Y-113960000D03*
%TO.P,J2,30,Pin_30*%
%TO.N,GND*%
X137750000Y-113960000D03*
%TO.P,J2,31,Pin_31*%
%TO.N,unconnected-(J2-Pin_31-Pad31)*%
X135210000Y-116500000D03*
%TO.P,J2,32,Pin_32*%
%TO.N,unconnected-(J2-Pin_32-Pad32)*%
X137750000Y-116500000D03*
%TO.P,J2,33,Pin_33*%
%TO.N,unconnected-(J2-Pin_33-Pad33)*%
X135210000Y-119040000D03*
%TO.P,J2,34,Pin_34*%
%TO.N,GND*%
X137750000Y-119040000D03*
%TO.P,J2,35,Pin_35*%
%TO.N,unconnected-(J2-Pin_35-Pad35)*%
X135210000Y-121580000D03*
%TO.P,J2,36,Pin_36*%
%TO.N,unconnected-(J2-Pin_36-Pad36)*%
X137750000Y-121580000D03*
%TO.P,J2,37,Pin_37*%
%TO.N,unconnected-(J2-Pin_37-Pad37)*%
X135210000Y-124120000D03*
%TO.P,J2,38,Pin_38*%
%TO.N,unconnected-(J2-Pin_38-Pad38)*%
X137750000Y-124120000D03*
%TO.P,J2,39,Pin_39*%
%TO.N,GND*%
X135210000Y-126660000D03*
%TO.P,J2,40,Pin_40*%
%TO.N,unconnected-(J2-Pin_40-Pad40)*%
X137750000Y-126660000D03*
%TD*%
D15*
%TO.N,GND*%
X122500000Y-85500000D03*
X116750000Y-132500000D03*
X111500000Y-99500000D03*
X126250000Y-76250000D03*
X118500000Y-80500000D03*
X115000000Y-100750000D03*
X111500000Y-106000000D03*
X115000000Y-97500000D03*
X121750000Y-106500000D03*
X125500000Y-87250000D03*
X120000000Y-72500000D03*
X121750000Y-108500000D03*
X125500000Y-81250000D03*
X129500000Y-140500000D03*
X113000000Y-107500000D03*
X131250000Y-135000000D03*
X128750000Y-87250000D03*
X118250000Y-90000000D03*
X127250000Y-122500000D03*
X111750000Y-81000000D03*
X124250000Y-79250000D03*
X116750000Y-130000000D03*
X120250000Y-130000000D03*
X120250000Y-127500000D03*
X139000000Y-118000000D03*
X129500000Y-112500000D03*
X111500000Y-115000000D03*
X134000000Y-89750000D03*
X113000000Y-79500000D03*
X111500000Y-125000000D03*
X139000000Y-100000000D03*
X120250000Y-132500000D03*
X117500000Y-135000000D03*
X120250000Y-86000000D03*
X132500000Y-122500000D03*
X131250000Y-140000000D03*
X111500000Y-82750000D03*
X123500000Y-97250000D03*
X118500000Y-78500000D03*
X125250000Y-130000000D03*
X118750000Y-142500000D03*
X129500000Y-107500000D03*
X130000000Y-75000000D03*
X125000000Y-96000000D03*
X122500000Y-125000000D03*
X133250000Y-109000000D03*
X121750000Y-104000000D03*
X130000000Y-72500000D03*
X124250000Y-77500000D03*
X127500000Y-130000000D03*
X128750000Y-96000000D03*
X111500000Y-97750000D03*
X121100000Y-116500000D03*
X116500000Y-80500000D03*
X132500000Y-75000000D03*
X111500000Y-103500000D03*
X125250000Y-122500000D03*
X115000000Y-102500000D03*
X124750000Y-118000000D03*
X127500000Y-143500000D03*
X125000000Y-125000000D03*
X139000000Y-120000000D03*
X122500000Y-130000000D03*
X129500000Y-130000000D03*
X125250000Y-132500000D03*
X129500000Y-110000000D03*
X136400000Y-128500000D03*
X128750000Y-76250000D03*
X127500000Y-75000000D03*
X129500000Y-127500000D03*
X133250000Y-125500000D03*
X132500000Y-115000000D03*
X132500000Y-120000000D03*
X118250000Y-87500000D03*
X124250000Y-83000000D03*
X115000000Y-95000000D03*
X121100000Y-118000000D03*
X120062500Y-103250000D03*
X111500000Y-92900000D03*
X118250000Y-92500000D03*
X132500000Y-112500000D03*
X111500000Y-112500000D03*
X113500000Y-77500000D03*
X139000000Y-112750000D03*
X115750000Y-90000000D03*
X139000000Y-92500000D03*
X115000000Y-92500000D03*
X132750000Y-80500000D03*
X131250000Y-137500000D03*
X116500000Y-82250000D03*
X129250000Y-141500000D03*
X139000000Y-102500000D03*
X122250000Y-89500000D03*
X120812500Y-98250000D03*
X125500000Y-89250000D03*
X127500000Y-132500000D03*
X132500000Y-132500000D03*
X120000000Y-106250000D03*
X111500000Y-109250000D03*
X122500000Y-75000000D03*
X113950000Y-79500000D03*
X112500000Y-122500000D03*
X134000000Y-82250000D03*
X122000000Y-98500000D03*
X132500000Y-72500000D03*
X125500000Y-85250000D03*
X121750000Y-102250000D03*
X122500000Y-127500000D03*
X128750000Y-85250000D03*
X122850000Y-116500000D03*
X115000000Y-107500000D03*
X125850000Y-116500000D03*
X129500000Y-122500000D03*
X120250000Y-80500000D03*
X127250000Y-117500000D03*
X117500000Y-72500000D03*
X111500000Y-120000000D03*
X139000000Y-115000000D03*
X118250000Y-85000000D03*
X111500000Y-84500000D03*
X129500000Y-125000000D03*
X117500000Y-75000000D03*
X128000000Y-142000000D03*
X122500000Y-143500000D03*
X122250000Y-93250000D03*
X121562500Y-95750000D03*
X139000000Y-94750000D03*
X127500000Y-127500000D03*
X139000000Y-82250000D03*
X139000000Y-84500000D03*
X113750000Y-127500000D03*
X134000000Y-87500000D03*
X125250000Y-120000000D03*
X125000000Y-72500000D03*
X129250000Y-139500000D03*
X116250000Y-127500000D03*
X122250000Y-91500000D03*
X111500000Y-127500000D03*
X129500000Y-117500000D03*
X116000000Y-109250000D03*
X116000000Y-79250000D03*
X120000000Y-94000000D03*
X129500000Y-120000000D03*
X118750000Y-140000000D03*
X113750000Y-111250000D03*
X122500000Y-132500000D03*
X134000000Y-84750000D03*
X131250000Y-142500000D03*
X120000000Y-75000000D03*
X125000000Y-75000000D03*
X127250000Y-86250000D03*
X120000000Y-82750000D03*
X125250000Y-135000000D03*
X111500000Y-117500000D03*
X122500000Y-72500000D03*
X121100000Y-115000000D03*
X128750000Y-77500000D03*
X115750000Y-104500000D03*
X134250000Y-128500000D03*
X132500000Y-130000000D03*
X128000000Y-139000000D03*
X114100000Y-121000000D03*
X111500000Y-87500000D03*
X127250000Y-120000000D03*
X132500000Y-117500000D03*
X111500000Y-77500000D03*
X120500000Y-91500000D03*
X119250000Y-104500000D03*
X118750000Y-137500000D03*
X114000000Y-86600000D03*
X126000000Y-84000000D03*
X129500000Y-115000000D03*
X120250000Y-88750000D03*
X127500000Y-72500000D03*
X122750000Y-135000000D03*
%TO.N,/ADC/ADC-IN*%
X128000000Y-97000000D03*
X125875000Y-94875000D03*
%TO.N,+3V3*%
X133000000Y-78500000D03*
X128750000Y-79250000D03*
%TO.N,/ADC/SPI-CLK*%
X129250000Y-81500000D03*
%TO.N,/ADC/~{CS}*%
X129250000Y-83500000D03*
%TO.N,/ADC/SPI-MISO*%
X131750000Y-101250000D03*
X129250000Y-82500000D03*
%TD*%
D16*
%TO.N,GND*%
X135210000Y-108880000D02*
X133880000Y-108880000D01*
D17*
%TO.N,/ADC/ADC-IN*%
X125875000Y-94875000D02*
X128000000Y-97000000D01*
%TO.N,+3V3*%
X128750000Y-79250000D02*
X132250000Y-79250000D01*
X132250000Y-79250000D02*
X133000000Y-78500000D01*
D16*
%TO.N,/ADC/SPI-CLK*%
X129250000Y-81500000D02*
X132250000Y-81500000D01*
X133000000Y-105500000D02*
X133840000Y-106340000D01*
X133840000Y-106340000D02*
X135210000Y-106340000D01*
X133000000Y-82250000D02*
X133000000Y-105500000D01*
X132250000Y-81500000D02*
X133000000Y-82250000D01*
%TO.N,/ADC/~{CS}*%
X129750000Y-84750000D02*
X129750000Y-105250000D01*
X129250000Y-84250000D02*
X129750000Y-84750000D01*
X129750000Y-105250000D02*
X132041000Y-107541000D01*
X129250000Y-83500000D02*
X129250000Y-84250000D01*
X136549000Y-107541000D02*
X137750000Y-106340000D01*
X132041000Y-107541000D02*
X136549000Y-107541000D01*
%TO.N,/ADC/SPI-MISO*%
X131250000Y-82500000D02*
X129250000Y-82500000D01*
X131750000Y-83000000D02*
X131250000Y-82500000D01*
X131750000Y-101250000D02*
X131750000Y-83000000D01*
%TD*%
%TA.AperFunction,Conductor*%
%TO.N,GND*%
G36*
X137003736Y-70500726D02*
G01*
X137293796Y-70518271D01*
X137308659Y-70520076D01*
X137590798Y-70571780D01*
X137605335Y-70575363D01*
X137879172Y-70660695D01*
X137893163Y-70666000D01*
X138154743Y-70783727D01*
X138167989Y-70790680D01*
X138413465Y-70939075D01*
X138425776Y-70947573D01*
X138651573Y-71124473D01*
X138662781Y-71134403D01*
X138865596Y-71337218D01*
X138875526Y-71348426D01*
X138995481Y-71501538D01*
X139052422Y-71574217D01*
X139060928Y-71586540D01*
X139209316Y-71832004D01*
X139216275Y-71845263D01*
X139333997Y-72106831D01*
X139339306Y-72120832D01*
X139424635Y-72394663D01*
X139428219Y-72409201D01*
X139479923Y-72691340D01*
X139481728Y-72706205D01*
X139499274Y-72996263D01*
X139499500Y-73003750D01*
X139499500Y-131996249D01*
X139499274Y-132003736D01*
X139481728Y-132293794D01*
X139479923Y-132308659D01*
X139428219Y-132590798D01*
X139424635Y-132605336D01*
X139339306Y-132879167D01*
X139333997Y-132893168D01*
X139216275Y-133154736D01*
X139209316Y-133167995D01*
X139060928Y-133413459D01*
X139052422Y-133425782D01*
X138875526Y-133651573D01*
X138865596Y-133662781D01*
X138662781Y-133865596D01*
X138651573Y-133875526D01*
X138425782Y-134052422D01*
X138413459Y-134060928D01*
X138167995Y-134209316D01*
X138154736Y-134216275D01*
X137893168Y-134333997D01*
X137879167Y-134339306D01*
X137605336Y-134424635D01*
X137590798Y-134428219D01*
X137308659Y-134479923D01*
X137293794Y-134481728D01*
X137003736Y-134499274D01*
X136996249Y-134499500D01*
X136065892Y-134499500D01*
X136000000Y-134499500D01*
X135828031Y-134499500D01*
X135749966Y-134507188D01*
X135485750Y-134533210D01*
X135148427Y-134600308D01*
X134819293Y-134700150D01*
X134501535Y-134831770D01*
X134501530Y-134831772D01*
X134198224Y-134993893D01*
X134198206Y-134993904D01*
X133912248Y-135184975D01*
X133912234Y-135184985D01*
X133646367Y-135403176D01*
X133403176Y-135646367D01*
X133184985Y-135912234D01*
X133184975Y-135912248D01*
X132993904Y-136198206D01*
X132993893Y-136198224D01*
X132831772Y-136501530D01*
X132831770Y-136501535D01*
X132700150Y-136819293D01*
X132600308Y-137148427D01*
X132533210Y-137485750D01*
X132499500Y-137828034D01*
X132499500Y-141996249D01*
X132499274Y-142003736D01*
X132481728Y-142293794D01*
X132479923Y-142308659D01*
X132428219Y-142590798D01*
X132424635Y-142605336D01*
X132339306Y-142879167D01*
X132333997Y-142893168D01*
X132216275Y-143154736D01*
X132209316Y-143167995D01*
X132060928Y-143413459D01*
X132052422Y-143425782D01*
X131875526Y-143651573D01*
X131865596Y-143662781D01*
X131662781Y-143865596D01*
X131651573Y-143875526D01*
X131425782Y-144052422D01*
X131413459Y-144060928D01*
X131167995Y-144209316D01*
X131154736Y-144216275D01*
X130893168Y-144333997D01*
X130879167Y-144339306D01*
X130605336Y-144424635D01*
X130590798Y-144428219D01*
X130308659Y-144479923D01*
X130293794Y-144481728D01*
X130003736Y-144499274D01*
X129996249Y-144499500D01*
X120003751Y-144499500D01*
X119996264Y-144499274D01*
X119706205Y-144481728D01*
X119691340Y-144479923D01*
X119409201Y-144428219D01*
X119394663Y-144424635D01*
X119120832Y-144339306D01*
X119106831Y-144333997D01*
X118845263Y-144216275D01*
X118832004Y-144209316D01*
X118586540Y-144060928D01*
X118574217Y-144052422D01*
X118348426Y-143875526D01*
X118337218Y-143865596D01*
X118134403Y-143662781D01*
X118124473Y-143651573D01*
X117947573Y-143425776D01*
X117939075Y-143413465D01*
X117790680Y-143167989D01*
X117783727Y-143154743D01*
X117666000Y-142893163D01*
X117660693Y-142879167D01*
X117575364Y-142605336D01*
X117571780Y-142590798D01*
X117520076Y-142308659D01*
X117518271Y-142293794D01*
X117500726Y-142003736D01*
X117500500Y-141996249D01*
X117500500Y-139680975D01*
X120812000Y-139680975D01*
X120812000Y-141319017D01*
X120818709Y-141361377D01*
X120826854Y-141412804D01*
X120884450Y-141525842D01*
X120884452Y-141525844D01*
X120884454Y-141525847D01*
X120974152Y-141615545D01*
X120974154Y-141615546D01*
X120974158Y-141615550D01*
X121087194Y-141673145D01*
X121087198Y-141673147D01*
X121180975Y-141687999D01*
X121180981Y-141688000D01*
X122819018Y-141687999D01*
X122912804Y-141673146D01*
X123025842Y-141615550D01*
X123115550Y-141525842D01*
X123124004Y-141509249D01*
X123171975Y-141458455D01*
X123239795Y-141441658D01*
X123305931Y-141464193D01*
X123307374Y-141465227D01*
X123377347Y-141516066D01*
X123377349Y-141516067D01*
X123377352Y-141516069D01*
X123452719Y-141554470D01*
X123543961Y-141600961D01*
X123543963Y-141600961D01*
X123543966Y-141600963D01*
X123639293Y-141631936D01*
X123721808Y-141658748D01*
X123906497Y-141688000D01*
X123906502Y-141688000D01*
X124093503Y-141688000D01*
X124278191Y-141658748D01*
X124456034Y-141600963D01*
X124622648Y-141516069D01*
X124773930Y-141406156D01*
X124906156Y-141273930D01*
X124906156Y-141273929D01*
X124909601Y-141270485D01*
X124910466Y-141271350D01*
X124964205Y-141236262D01*
X125034073Y-141235756D01*
X125089850Y-141271033D01*
X125090399Y-141270485D01*
X125092837Y-141272923D01*
X125093123Y-141273104D01*
X125093800Y-141273886D01*
X125093844Y-141273930D01*
X125226070Y-141406156D01*
X125377352Y-141516069D01*
X125456069Y-141556177D01*
X125543961Y-141600961D01*
X125543963Y-141600961D01*
X125543966Y-141600963D01*
X125639293Y-141631936D01*
X125721808Y-141658748D01*
X125906497Y-141688000D01*
X125906502Y-141688000D01*
X126093503Y-141688000D01*
X126278191Y-141658748D01*
X126456034Y-141600963D01*
X126622648Y-141516069D01*
X126773930Y-141406156D01*
X126906156Y-141273930D01*
X126961796Y-141197347D01*
X127017122Y-141154685D01*
X127086735Y-141148706D01*
X127094345Y-141152721D01*
X127132168Y-141155698D01*
X127538027Y-140749839D01*
X127579896Y-140822357D01*
X127677643Y-140920104D01*
X127750159Y-140961971D01*
X127344300Y-141367830D01*
X127430025Y-141430113D01*
X127582544Y-141507825D01*
X127582547Y-141507827D01*
X127745341Y-141560721D01*
X127914413Y-141587500D01*
X128085587Y-141587500D01*
X128254658Y-141560721D01*
X128417452Y-141507827D01*
X128417455Y-141507825D01*
X128569966Y-141430117D01*
X128569972Y-141430113D01*
X128655697Y-141367830D01*
X128655698Y-141367829D01*
X128249840Y-140961971D01*
X128322357Y-140920104D01*
X128420104Y-140822357D01*
X128461971Y-140749840D01*
X128867829Y-141155698D01*
X128867830Y-141155697D01*
X128930113Y-141069972D01*
X128930117Y-141069966D01*
X129007825Y-140917455D01*
X129007827Y-140917452D01*
X129060721Y-140754658D01*
X129087500Y-140585587D01*
X129087500Y-140414412D01*
X129060721Y-140245341D01*
X129007827Y-140082547D01*
X129007825Y-140082544D01*
X128930113Y-139930025D01*
X128867830Y-139844301D01*
X128867830Y-139844300D01*
X128461971Y-140250159D01*
X128420104Y-140177643D01*
X128322357Y-140079896D01*
X128249839Y-140038027D01*
X128655698Y-139632168D01*
X128655697Y-139632166D01*
X128569977Y-139569888D01*
X128417455Y-139492174D01*
X128417452Y-139492172D01*
X128254658Y-139439278D01*
X128085587Y-139412500D01*
X127914413Y-139412500D01*
X127745341Y-139439278D01*
X127582547Y-139492172D01*
X127582544Y-139492173D01*
X127430027Y-139569885D01*
X127344301Y-139632168D01*
X127750160Y-140038027D01*
X127677643Y-140079896D01*
X127579896Y-140177643D01*
X127538027Y-140250160D01*
X127132168Y-139844301D01*
X127075180Y-139848787D01*
X127075158Y-139848514D01*
X127051499Y-139853308D01*
X127044716Y-139850667D01*
X127037464Y-139851289D01*
X127012596Y-139838162D01*
X126986390Y-139827959D01*
X126979145Y-139820503D01*
X126975675Y-139818672D01*
X126961793Y-139802648D01*
X126925222Y-139752312D01*
X126906870Y-139727053D01*
X126906156Y-139726070D01*
X126773930Y-139593844D01*
X126622648Y-139483931D01*
X126456038Y-139399038D01*
X126278191Y-139341251D01*
X126093503Y-139312000D01*
X126093498Y-139312000D01*
X125906502Y-139312000D01*
X125906497Y-139312000D01*
X125721808Y-139341251D01*
X125543961Y-139399038D01*
X125377351Y-139483931D01*
X125307374Y-139534773D01*
X125226070Y-139593844D01*
X125226068Y-139593846D01*
X125226067Y-139593846D01*
X125090399Y-139729515D01*
X125089536Y-139728652D01*
X125035777Y-139763743D01*
X124965909Y-139764238D01*
X124910154Y-139728961D01*
X124909601Y-139729515D01*
X124907139Y-139727053D01*
X124906865Y-139726880D01*
X124906204Y-139726118D01*
X124773932Y-139593846D01*
X124773930Y-139593844D01*
X124622648Y-139483931D01*
X124456038Y-139399038D01*
X124278191Y-139341251D01*
X124093503Y-139312000D01*
X124093498Y-139312000D01*
X123906502Y-139312000D01*
X123906497Y-139312000D01*
X123721808Y-139341251D01*
X123543961Y-139399038D01*
X123377349Y-139483932D01*
X123307372Y-139534773D01*
X123241566Y-139558252D01*
X123173512Y-139542426D01*
X123124818Y-139492320D01*
X123124035Y-139490811D01*
X123115550Y-139474158D01*
X123115546Y-139474154D01*
X123115545Y-139474152D01*
X123025847Y-139384454D01*
X123025844Y-139384452D01*
X123025842Y-139384450D01*
X122941060Y-139341251D01*
X122912801Y-139326852D01*
X122819024Y-139312000D01*
X121180982Y-139312000D01*
X121100019Y-139324823D01*
X121087196Y-139326854D01*
X120974158Y-139384450D01*
X120974157Y-139384451D01*
X120974152Y-139384454D01*
X120884454Y-139474152D01*
X120884451Y-139474157D01*
X120884450Y-139474158D01*
X120875196Y-139492320D01*
X120826852Y-139587198D01*
X120812000Y-139680975D01*
X117500500Y-139680975D01*
X117500500Y-137828034D01*
X117466789Y-137485750D01*
X117399691Y-137148427D01*
X117399690Y-137148426D01*
X117399690Y-137148422D01*
X117299850Y-136819295D01*
X117168231Y-136501538D01*
X117006100Y-136198213D01*
X116815019Y-135912240D01*
X116596828Y-135646373D01*
X116596827Y-135646372D01*
X116596823Y-135646367D01*
X116353632Y-135403176D01*
X116087765Y-135184985D01*
X116087764Y-135184984D01*
X116087760Y-135184981D01*
X115801787Y-134993900D01*
X115801782Y-134993897D01*
X115801775Y-134993893D01*
X115498469Y-134831772D01*
X115498464Y-134831770D01*
X115180706Y-134700150D01*
X114851572Y-134600308D01*
X114514248Y-134533210D01*
X114514249Y-134533210D01*
X114256456Y-134507821D01*
X114171969Y-134499500D01*
X114171966Y-134499500D01*
X113003751Y-134499500D01*
X112996264Y-134499274D01*
X112706205Y-134481728D01*
X112691340Y-134479923D01*
X112409201Y-134428219D01*
X112394663Y-134424635D01*
X112120832Y-134339306D01*
X112106831Y-134333997D01*
X111845263Y-134216275D01*
X111832004Y-134209316D01*
X111586540Y-134060928D01*
X111574217Y-134052422D01*
X111348426Y-133875526D01*
X111337218Y-133865596D01*
X111134403Y-133662781D01*
X111124473Y-133651573D01*
X110947573Y-133425776D01*
X110939075Y-133413465D01*
X110790680Y-133167989D01*
X110783727Y-133154743D01*
X110666000Y-132893163D01*
X110660693Y-132879167D01*
X110575364Y-132605336D01*
X110571780Y-132590798D01*
X110520076Y-132308659D01*
X110518271Y-132293794D01*
X110500726Y-132003736D01*
X110500500Y-131996249D01*
X110500500Y-94948920D01*
X125124499Y-94948920D01*
X125153340Y-95093907D01*
X125153343Y-95093917D01*
X125209912Y-95230488D01*
X125209919Y-95230501D01*
X125292048Y-95353415D01*
X125292051Y-95353419D01*
X125396580Y-95457948D01*
X125396584Y-95457951D01*
X125519498Y-95540080D01*
X125519511Y-95540087D01*
X125661715Y-95598989D01*
X125661357Y-95599853D01*
X125707655Y-95627601D01*
X127247398Y-97167344D01*
X127275149Y-97213643D01*
X127276011Y-97213286D01*
X127334912Y-97355488D01*
X127334919Y-97355501D01*
X127417048Y-97478415D01*
X127417051Y-97478419D01*
X127521580Y-97582948D01*
X127521584Y-97582951D01*
X127644498Y-97665080D01*
X127644511Y-97665087D01*
X127781082Y-97721656D01*
X127781087Y-97721658D01*
X127781091Y-97721658D01*
X127781092Y-97721659D01*
X127926079Y-97750500D01*
X127926082Y-97750500D01*
X128073920Y-97750500D01*
X128171462Y-97731096D01*
X128218913Y-97721658D01*
X128355495Y-97665084D01*
X128478416Y-97582951D01*
X128582951Y-97478416D01*
X128665084Y-97355495D01*
X128671965Y-97338884D01*
X128708978Y-97249525D01*
X128721658Y-97218913D01*
X128738583Y-97133828D01*
X128750500Y-97073920D01*
X128750500Y-96926079D01*
X128721659Y-96781092D01*
X128721658Y-96781091D01*
X128721658Y-96781087D01*
X128721656Y-96781082D01*
X128665087Y-96644511D01*
X128665080Y-96644498D01*
X128582951Y-96521584D01*
X128582948Y-96521580D01*
X128478419Y-96417051D01*
X128478415Y-96417048D01*
X128355501Y-96334919D01*
X128355488Y-96334912D01*
X128213286Y-96276011D01*
X128213643Y-96275149D01*
X128167344Y-96247398D01*
X126627601Y-94707655D01*
X126599853Y-94661357D01*
X126598989Y-94661715D01*
X126540087Y-94519511D01*
X126540080Y-94519498D01*
X126457951Y-94396584D01*
X126457948Y-94396580D01*
X126353419Y-94292051D01*
X126353415Y-94292048D01*
X126230501Y-94209919D01*
X126230488Y-94209912D01*
X126093917Y-94153343D01*
X126093907Y-94153340D01*
X125948920Y-94124500D01*
X125948918Y-94124500D01*
X125801082Y-94124500D01*
X125801080Y-94124500D01*
X125656092Y-94153340D01*
X125656082Y-94153343D01*
X125519511Y-94209912D01*
X125519498Y-94209919D01*
X125396584Y-94292048D01*
X125396580Y-94292051D01*
X125292051Y-94396580D01*
X125292048Y-94396584D01*
X125209919Y-94519498D01*
X125209912Y-94519511D01*
X125153343Y-94656082D01*
X125153340Y-94656092D01*
X125124500Y-94801079D01*
X125124500Y-94801082D01*
X125124500Y-94948918D01*
X125124500Y-94948920D01*
X125124499Y-94948920D01*
X110500500Y-94948920D01*
X110500500Y-79323920D01*
X127999499Y-79323920D01*
X128028340Y-79468907D01*
X128028343Y-79468917D01*
X128084912Y-79605488D01*
X128084919Y-79605501D01*
X128167048Y-79728415D01*
X128167051Y-79728419D01*
X128271580Y-79832948D01*
X128271584Y-79832951D01*
X128394498Y-79915080D01*
X128394511Y-79915087D01*
X128531082Y-79971656D01*
X128531087Y-79971658D01*
X128531091Y-79971658D01*
X128531092Y-79971659D01*
X128676079Y-80000500D01*
X128676082Y-80000500D01*
X128823920Y-80000500D01*
X128945486Y-79976318D01*
X128968913Y-79971658D01*
X129105495Y-79915084D01*
X129105496Y-79915083D01*
X129111122Y-79912753D01*
X129111479Y-79913614D01*
X129163840Y-79900500D01*
X132314071Y-79900500D01*
X132398615Y-79883682D01*
X132439744Y-79875501D01*
X132558127Y-79826465D01*
X132664669Y-79755277D01*
X133167343Y-79252600D01*
X133175079Y-79247506D01*
X133178509Y-79242704D01*
X133196890Y-79233141D01*
X133209100Y-79225101D01*
X133216564Y-79222125D01*
X133218913Y-79221658D01*
X133249140Y-79209137D01*
X133249944Y-79208817D01*
X133252971Y-79208532D01*
X133295866Y-79200000D01*
X133840683Y-79200000D01*
X133907722Y-79219685D01*
X133953477Y-79272489D01*
X133963156Y-79304603D01*
X133974352Y-79375299D01*
X133974352Y-79375300D01*
X133974353Y-79375303D01*
X133974354Y-79375304D01*
X134031950Y-79488342D01*
X134031952Y-79488344D01*
X134031954Y-79488347D01*
X134121652Y-79578045D01*
X134121654Y-79578046D01*
X134121658Y-79578050D01*
X134234694Y-79635645D01*
X134234698Y-79635647D01*
X134328475Y-79650499D01*
X134328481Y-79650500D01*
X134475735Y-79650499D01*
X134542772Y-79670183D01*
X134588527Y-79722987D01*
X134598471Y-79792145D01*
X134569446Y-79855701D01*
X134548619Y-79874816D01*
X134395360Y-79986167D01*
X134395351Y-79986174D01*
X134256174Y-80125351D01*
X134256174Y-80125352D01*
X134256172Y-80125354D01*
X134206485Y-80193741D01*
X134140476Y-80284594D01*
X134051117Y-80459970D01*
X133990290Y-80647173D01*
X133959500Y-80841577D01*
X133959500Y-81038422D01*
X133990290Y-81232826D01*
X134051117Y-81420029D01*
X134129528Y-81573918D01*
X134140476Y-81595405D01*
X134256172Y-81754646D01*
X134395354Y-81893828D01*
X134554595Y-82009524D01*
X134663801Y-82065167D01*
X134731213Y-82099515D01*
X134782009Y-82147489D01*
X134798804Y-82215310D01*
X134776267Y-82281445D01*
X134731213Y-82320485D01*
X134554594Y-82410476D01*
X134475840Y-82467695D01*
X134395354Y-82526172D01*
X134395352Y-82526174D01*
X134395351Y-82526174D01*
X134256174Y-82665351D01*
X134256174Y-82665352D01*
X134256172Y-82665354D01*
X134223884Y-82709794D01*
X134140476Y-82824594D01*
X134051117Y-82999970D01*
X133990290Y-83187173D01*
X133959500Y-83381577D01*
X133959500Y-83578422D01*
X133990290Y-83772826D01*
X134051117Y-83960029D01*
X134103191Y-84062229D01*
X134140476Y-84135405D01*
X134256172Y-84294646D01*
X134395354Y-84433828D01*
X134554595Y-84549524D01*
X134635948Y-84590975D01*
X134731213Y-84639515D01*
X134782009Y-84687489D01*
X134798804Y-84755310D01*
X134776267Y-84821445D01*
X134731213Y-84860485D01*
X134554594Y-84950476D01*
X134516677Y-84978025D01*
X134395354Y-85066172D01*
X134395352Y-85066174D01*
X134395351Y-85066174D01*
X134256174Y-85205351D01*
X134256174Y-85205352D01*
X134256172Y-85205354D01*
X134206485Y-85273741D01*
X134140476Y-85364594D01*
X134051117Y-85539970D01*
X133990290Y-85727173D01*
X133959500Y-85921577D01*
X133959500Y-86118422D01*
X133990290Y-86312826D01*
X134051117Y-86500029D01*
X134140476Y-86675405D01*
X134256172Y-86834646D01*
X134395354Y-86973828D01*
X134554595Y-87089524D01*
X134574985Y-87099913D01*
X134729970Y-87178882D01*
X134729972Y-87178882D01*
X134729975Y-87178884D01*
X134847171Y-87216963D01*
X134871612Y-87224905D01*
X134929287Y-87264343D01*
X134956485Y-87328702D01*
X134944570Y-87397548D01*
X134897326Y-87449024D01*
X134871611Y-87460767D01*
X134768555Y-87494251D01*
X134768552Y-87494252D01*
X134607265Y-87576434D01*
X134509556Y-87647423D01*
X134509556Y-87647425D01*
X134978460Y-88116329D01*
X134902993Y-88159901D01*
X134809901Y-88252993D01*
X134766329Y-88328460D01*
X134297425Y-87859556D01*
X134297423Y-87859556D01*
X134226434Y-87957265D01*
X134144252Y-88118552D01*
X134144251Y-88118555D01*
X134088317Y-88290706D01*
X134060000Y-88469493D01*
X134060000Y-88650506D01*
X134088317Y-88829293D01*
X134144251Y-89001444D01*
X134144252Y-89001447D01*
X134226432Y-89162731D01*
X134297424Y-89260442D01*
X134297424Y-89260443D01*
X134766328Y-88791538D01*
X134809901Y-88867007D01*
X134902993Y-88960099D01*
X134978459Y-89003669D01*
X134509555Y-89472574D01*
X134607268Y-89543567D01*
X134768552Y-89625747D01*
X134768558Y-89625749D01*
X134871610Y-89659232D01*
X134929286Y-89698669D01*
X134956485Y-89763027D01*
X134944571Y-89831874D01*
X134897327Y-89883350D01*
X134871613Y-89895094D01*
X134729969Y-89941118D01*
X134554594Y-90030476D01*
X134463741Y-90096485D01*
X134395354Y-90146172D01*
X134395352Y-90146174D01*
X134395351Y-90146174D01*
X134256174Y-90285351D01*
X134256167Y-90285360D01*
X134210012Y-90348886D01*
X134154682Y-90391552D01*
X134109695Y-90400000D01*
X133674500Y-90400000D01*
X133607461Y-90380315D01*
X133561706Y-90327511D01*
X133550500Y-90276000D01*
X133550500Y-82177527D01*
X133550500Y-82177525D01*
X133512984Y-82037515D01*
X133498821Y-82012984D01*
X133440510Y-81911985D01*
X132588015Y-81059490D01*
X132462485Y-80987016D01*
X132462486Y-80987016D01*
X132427482Y-80977637D01*
X132322475Y-80949500D01*
X132322472Y-80949500D01*
X129812230Y-80949500D01*
X129745191Y-80929815D01*
X129733531Y-80920419D01*
X129733126Y-80920914D01*
X129728415Y-80917048D01*
X129605501Y-80834919D01*
X129605488Y-80834912D01*
X129468917Y-80778343D01*
X129468907Y-80778340D01*
X129323920Y-80749500D01*
X129323918Y-80749500D01*
X129176082Y-80749500D01*
X129176080Y-80749500D01*
X129031092Y-80778340D01*
X129031082Y-80778343D01*
X128894511Y-80834912D01*
X128894498Y-80834919D01*
X128771584Y-80917048D01*
X128771580Y-80917051D01*
X128667051Y-81021580D01*
X128667048Y-81021584D01*
X128584919Y-81144498D01*
X128584912Y-81144511D01*
X128528343Y-81281082D01*
X128528340Y-81281092D01*
X128499500Y-81426079D01*
X128499500Y-81426082D01*
X128499500Y-81573918D01*
X128499500Y-81573920D01*
X128499499Y-81573920D01*
X128528340Y-81718907D01*
X128528343Y-81718917D01*
X128584912Y-81855488D01*
X128584919Y-81855501D01*
X128635439Y-81931109D01*
X128656317Y-81997787D01*
X128637832Y-82065167D01*
X128635439Y-82068891D01*
X128584919Y-82144498D01*
X128584912Y-82144511D01*
X128528343Y-82281082D01*
X128528340Y-82281092D01*
X128499500Y-82426079D01*
X128499500Y-82426082D01*
X128499500Y-82573918D01*
X128499500Y-82573920D01*
X128499499Y-82573920D01*
X128528340Y-82718907D01*
X128528343Y-82718917D01*
X128584912Y-82855488D01*
X128584919Y-82855501D01*
X128635439Y-82931109D01*
X128656317Y-82997787D01*
X128637832Y-83065167D01*
X128635439Y-83068891D01*
X128584919Y-83144498D01*
X128584912Y-83144511D01*
X128528343Y-83281082D01*
X128528340Y-83281092D01*
X128499500Y-83426079D01*
X128499500Y-83426082D01*
X128499500Y-83573918D01*
X128499500Y-83573920D01*
X128499499Y-83573920D01*
X128528340Y-83718907D01*
X128528343Y-83718917D01*
X128584912Y-83855488D01*
X128584919Y-83855501D01*
X128667048Y-83978415D01*
X128670914Y-83983126D01*
X128668787Y-83984870D01*
X128696636Y-84035733D01*
X128699500Y-84062229D01*
X128699500Y-84322474D01*
X128729336Y-84433826D01*
X128737014Y-84462480D01*
X128737016Y-84462485D01*
X128787267Y-84549524D01*
X128809489Y-84588013D01*
X128809491Y-84588016D01*
X129163181Y-84941706D01*
X129196666Y-85003029D01*
X129199500Y-85029387D01*
X129199500Y-105177526D01*
X129199500Y-105322474D01*
X129237016Y-105462485D01*
X129309490Y-105588015D01*
X131702985Y-107981510D01*
X131759444Y-108014106D01*
X131828515Y-108053984D01*
X131968525Y-108091500D01*
X134118853Y-108091500D01*
X134185892Y-108111185D01*
X134231647Y-108163989D01*
X134241591Y-108233147D01*
X134227458Y-108272324D01*
X134228644Y-108272928D01*
X134144252Y-108438552D01*
X134144251Y-108438555D01*
X134088317Y-108610706D01*
X134060000Y-108789493D01*
X134060000Y-108970506D01*
X134088317Y-109149293D01*
X134144251Y-109321444D01*
X134144252Y-109321447D01*
X134226432Y-109482731D01*
X134297424Y-109580442D01*
X134297424Y-109580443D01*
X134766329Y-109111538D01*
X134809901Y-109187007D01*
X134902993Y-109280099D01*
X134978459Y-109323669D01*
X134509555Y-109792574D01*
X134607268Y-109863567D01*
X134768552Y-109945747D01*
X134768558Y-109945749D01*
X134871610Y-109979232D01*
X134929286Y-110018669D01*
X134956485Y-110083027D01*
X134944571Y-110151874D01*
X134897327Y-110203350D01*
X134871613Y-110215094D01*
X134729969Y-110261118D01*
X134554594Y-110350476D01*
X134463741Y-110416485D01*
X134395354Y-110466172D01*
X134395352Y-110466174D01*
X134395351Y-110466174D01*
X134256174Y-110605351D01*
X134256174Y-110605352D01*
X134256172Y-110605354D01*
X134206485Y-110673741D01*
X134140476Y-110764594D01*
X134051117Y-110939970D01*
X133990290Y-111127173D01*
X133959500Y-111321577D01*
X133959500Y-111518422D01*
X133990290Y-111712826D01*
X134051117Y-111900029D01*
X134140476Y-112075405D01*
X134256172Y-112234646D01*
X134395354Y-112373828D01*
X134554595Y-112489524D01*
X134564752Y-112494699D01*
X134731213Y-112579515D01*
X134782009Y-112627489D01*
X134798804Y-112695310D01*
X134776267Y-112761445D01*
X134731213Y-112800485D01*
X134554594Y-112890476D01*
X134482721Y-112942696D01*
X134395354Y-113006172D01*
X134395352Y-113006174D01*
X134395351Y-113006174D01*
X134256174Y-113145351D01*
X134256174Y-113145352D01*
X134256172Y-113145354D01*
X134206485Y-113213741D01*
X134140476Y-113304594D01*
X134051117Y-113479970D01*
X133990290Y-113667173D01*
X133959500Y-113861577D01*
X133959500Y-114058422D01*
X133990290Y-114252826D01*
X134051117Y-114440029D01*
X134113637Y-114562730D01*
X134140476Y-114615405D01*
X134256172Y-114774646D01*
X134395354Y-114913828D01*
X134554595Y-115029524D01*
X134612901Y-115059232D01*
X134731213Y-115119515D01*
X134782009Y-115167489D01*
X134798804Y-115235310D01*
X134776267Y-115301445D01*
X134731213Y-115340485D01*
X134554594Y-115430476D01*
X134472128Y-115490392D01*
X134395354Y-115546172D01*
X134395352Y-115546174D01*
X134395351Y-115546174D01*
X134256174Y-115685351D01*
X134256174Y-115685352D01*
X134256172Y-115685354D01*
X134206485Y-115753741D01*
X134140476Y-115844594D01*
X134051117Y-116019970D01*
X133990290Y-116207173D01*
X133959500Y-116401577D01*
X133959500Y-116598422D01*
X133990290Y-116792826D01*
X134051117Y-116980029D01*
X134140476Y-117155405D01*
X134256172Y-117314646D01*
X134395354Y-117453828D01*
X134554595Y-117569524D01*
X134665030Y-117625793D01*
X134731213Y-117659515D01*
X134782009Y-117707489D01*
X134798804Y-117775310D01*
X134776267Y-117841445D01*
X134731213Y-117880485D01*
X134554594Y-117970476D01*
X134463741Y-118036485D01*
X134395354Y-118086172D01*
X134395352Y-118086174D01*
X134395351Y-118086174D01*
X134256174Y-118225351D01*
X134256174Y-118225352D01*
X134256172Y-118225354D01*
X134206485Y-118293741D01*
X134140476Y-118384594D01*
X134051117Y-118559970D01*
X133990290Y-118747173D01*
X133959500Y-118941577D01*
X133959500Y-119138422D01*
X133990290Y-119332826D01*
X134051117Y-119520029D01*
X134113637Y-119642730D01*
X134140476Y-119695405D01*
X134256172Y-119854646D01*
X134395354Y-119993828D01*
X134554595Y-120109524D01*
X134612901Y-120139232D01*
X134731213Y-120199515D01*
X134782009Y-120247489D01*
X134798804Y-120315310D01*
X134776267Y-120381445D01*
X134731213Y-120420485D01*
X134554594Y-120510476D01*
X134482478Y-120562872D01*
X134395354Y-120626172D01*
X134395352Y-120626174D01*
X134395351Y-120626174D01*
X134256174Y-120765351D01*
X134256174Y-120765352D01*
X134256172Y-120765354D01*
X134206485Y-120833741D01*
X134140476Y-120924594D01*
X134051117Y-121099970D01*
X133990290Y-121287173D01*
X133959500Y-121481577D01*
X133959500Y-121678422D01*
X133990290Y-121872826D01*
X134051117Y-122060029D01*
X134140476Y-122235405D01*
X134256172Y-122394646D01*
X134395354Y-122533828D01*
X134554595Y-122649524D01*
X134633905Y-122689934D01*
X134731213Y-122739515D01*
X134782009Y-122787489D01*
X134798804Y-122855310D01*
X134776267Y-122921445D01*
X134731213Y-122960485D01*
X134554594Y-123050476D01*
X134471496Y-123110851D01*
X134395354Y-123166172D01*
X134395352Y-123166174D01*
X134395351Y-123166174D01*
X134256174Y-123305351D01*
X134256174Y-123305352D01*
X134256172Y-123305354D01*
X134206485Y-123373741D01*
X134140476Y-123464594D01*
X134051117Y-123639970D01*
X133990290Y-123827173D01*
X133959500Y-124021577D01*
X133959500Y-124218422D01*
X133990290Y-124412826D01*
X134051117Y-124600029D01*
X134140476Y-124775405D01*
X134256172Y-124934646D01*
X134395354Y-125073828D01*
X134554595Y-125189524D01*
X134574985Y-125199913D01*
X134729970Y-125278882D01*
X134729972Y-125278882D01*
X134729975Y-125278884D01*
X134847171Y-125316963D01*
X134871612Y-125324905D01*
X134929287Y-125364343D01*
X134956485Y-125428702D01*
X134944570Y-125497548D01*
X134897326Y-125549024D01*
X134871611Y-125560767D01*
X134768555Y-125594251D01*
X134768552Y-125594252D01*
X134607265Y-125676434D01*
X134509556Y-125747423D01*
X134509556Y-125747425D01*
X134978461Y-126216329D01*
X134902993Y-126259901D01*
X134809901Y-126352993D01*
X134766329Y-126428460D01*
X134297425Y-125959556D01*
X134297423Y-125959556D01*
X134226434Y-126057265D01*
X134144252Y-126218552D01*
X134144251Y-126218555D01*
X134088317Y-126390706D01*
X134060000Y-126569493D01*
X134060000Y-126750506D01*
X134088317Y-126929293D01*
X134144251Y-127101444D01*
X134144252Y-127101447D01*
X134226432Y-127262731D01*
X134297424Y-127360442D01*
X134297425Y-127360443D01*
X134766329Y-126891538D01*
X134809901Y-126967007D01*
X134902993Y-127060099D01*
X134978460Y-127103670D01*
X134509555Y-127572574D01*
X134607268Y-127643567D01*
X134768552Y-127725747D01*
X134768555Y-127725748D01*
X134940706Y-127781682D01*
X135119494Y-127810000D01*
X135300506Y-127810000D01*
X135479293Y-127781682D01*
X135651444Y-127725748D01*
X135651447Y-127725747D01*
X135812730Y-127643568D01*
X135910442Y-127572574D01*
X135910443Y-127572574D01*
X135441539Y-127103670D01*
X135517007Y-127060099D01*
X135610099Y-126967007D01*
X135653670Y-126891538D01*
X136122574Y-127360443D01*
X136122574Y-127360442D01*
X136193568Y-127262730D01*
X136275747Y-127101447D01*
X136275749Y-127101441D01*
X136309232Y-126998389D01*
X136348668Y-126940713D01*
X136413027Y-126913514D01*
X136481873Y-126925428D01*
X136533350Y-126972672D01*
X136545094Y-126998387D01*
X136591117Y-127140029D01*
X136653637Y-127262730D01*
X136680476Y-127315405D01*
X136796172Y-127474646D01*
X136935354Y-127613828D01*
X137094595Y-127729524D01*
X137177455Y-127771743D01*
X137269970Y-127818882D01*
X137269972Y-127818882D01*
X137269975Y-127818884D01*
X137370317Y-127851487D01*
X137457173Y-127879709D01*
X137651578Y-127910500D01*
X137651583Y-127910500D01*
X137848422Y-127910500D01*
X138042826Y-127879709D01*
X138230025Y-127818884D01*
X138405405Y-127729524D01*
X138564646Y-127613828D01*
X138703828Y-127474646D01*
X138819524Y-127315405D01*
X138908884Y-127140025D01*
X138969709Y-126952826D01*
X139000500Y-126758422D01*
X139000500Y-126561577D01*
X138969709Y-126367173D01*
X138921419Y-126218555D01*
X138908884Y-126179975D01*
X138908882Y-126179972D01*
X138908882Y-126179970D01*
X138861743Y-126087455D01*
X138819524Y-126004595D01*
X138703828Y-125845354D01*
X138564646Y-125706172D01*
X138441056Y-125616378D01*
X138405403Y-125590474D01*
X138228787Y-125500485D01*
X138177990Y-125452511D01*
X138161195Y-125384690D01*
X138183732Y-125318555D01*
X138228787Y-125279515D01*
X138405403Y-125189525D01*
X138405402Y-125189525D01*
X138405405Y-125189524D01*
X138564646Y-125073828D01*
X138703828Y-124934646D01*
X138819524Y-124775405D01*
X138908884Y-124600025D01*
X138969709Y-124412826D01*
X139000500Y-124218422D01*
X139000500Y-124021577D01*
X138969709Y-123827173D01*
X138908882Y-123639970D01*
X138819523Y-123464594D01*
X138703828Y-123305354D01*
X138564646Y-123166172D01*
X138485025Y-123108324D01*
X138405403Y-123050474D01*
X138228787Y-122960485D01*
X138177990Y-122912511D01*
X138161195Y-122844690D01*
X138183732Y-122778555D01*
X138228787Y-122739515D01*
X138405403Y-122649525D01*
X138405402Y-122649525D01*
X138405405Y-122649524D01*
X138564646Y-122533828D01*
X138703828Y-122394646D01*
X138819524Y-122235405D01*
X138908884Y-122060025D01*
X138969709Y-121872826D01*
X139000500Y-121678422D01*
X139000500Y-121481577D01*
X138969709Y-121287173D01*
X138908882Y-121099970D01*
X138819523Y-120924594D01*
X138703828Y-120765354D01*
X138564646Y-120626172D01*
X138405405Y-120510476D01*
X138230029Y-120421117D01*
X138088387Y-120375094D01*
X138030712Y-120335656D01*
X138003514Y-120271297D01*
X138015429Y-120202450D01*
X138062674Y-120150975D01*
X138088389Y-120139232D01*
X138191441Y-120105749D01*
X138191447Y-120105747D01*
X138352730Y-120023568D01*
X138450442Y-119952574D01*
X138450443Y-119952574D01*
X137981539Y-119483670D01*
X138057007Y-119440099D01*
X138150099Y-119347007D01*
X138193670Y-119271539D01*
X138662574Y-119740443D01*
X138662574Y-119740442D01*
X138733568Y-119642730D01*
X138815747Y-119481447D01*
X138815748Y-119481444D01*
X138871682Y-119309293D01*
X138900000Y-119130506D01*
X138900000Y-118949493D01*
X138871682Y-118770706D01*
X138815748Y-118598555D01*
X138815747Y-118598552D01*
X138733567Y-118437268D01*
X138662574Y-118339556D01*
X138662574Y-118339555D01*
X138193669Y-118808459D01*
X138150099Y-118732993D01*
X138057007Y-118639901D01*
X137981538Y-118596329D01*
X138450443Y-118127424D01*
X138352731Y-118056432D01*
X138191447Y-117974252D01*
X138191444Y-117974251D01*
X138088388Y-117940767D01*
X138030713Y-117901330D01*
X138003514Y-117836971D01*
X138015428Y-117768125D01*
X138062672Y-117716649D01*
X138088385Y-117704905D01*
X138230025Y-117658884D01*
X138405405Y-117569524D01*
X138564646Y-117453828D01*
X138703828Y-117314646D01*
X138819524Y-117155405D01*
X138908884Y-116980025D01*
X138969709Y-116792826D01*
X139000500Y-116598422D01*
X139000500Y-116401577D01*
X138969709Y-116207173D01*
X138908882Y-116019970D01*
X138819523Y-115844594D01*
X138703828Y-115685354D01*
X138564646Y-115546172D01*
X138405405Y-115430476D01*
X138393598Y-115424460D01*
X138230029Y-115341117D01*
X138088387Y-115295094D01*
X138030712Y-115255656D01*
X138003514Y-115191297D01*
X138015429Y-115122450D01*
X138062674Y-115070975D01*
X138088389Y-115059232D01*
X138191441Y-115025749D01*
X138191447Y-115025747D01*
X138352730Y-114943568D01*
X138450442Y-114872574D01*
X138450443Y-114872574D01*
X137981539Y-114403670D01*
X138057007Y-114360099D01*
X138150099Y-114267007D01*
X138193670Y-114191539D01*
X138662574Y-114660443D01*
X138662574Y-114660442D01*
X138733568Y-114562730D01*
X138815747Y-114401447D01*
X138815748Y-114401444D01*
X138871682Y-114229293D01*
X138900000Y-114050506D01*
X138900000Y-113869493D01*
X138871682Y-113690706D01*
X138815748Y-113518555D01*
X138815747Y-113518552D01*
X138733567Y-113357268D01*
X138662574Y-113259556D01*
X138662574Y-113259555D01*
X138193669Y-113728459D01*
X138150099Y-113652993D01*
X138057007Y-113559901D01*
X137981538Y-113516329D01*
X138450443Y-113047424D01*
X138352731Y-112976432D01*
X138191447Y-112894252D01*
X138191444Y-112894251D01*
X138088388Y-112860767D01*
X138030713Y-112821330D01*
X138003514Y-112756971D01*
X138015428Y-112688125D01*
X138062672Y-112636649D01*
X138088385Y-112624905D01*
X138230025Y-112578884D01*
X138405405Y-112489524D01*
X138564646Y-112373828D01*
X138703828Y-112234646D01*
X138819524Y-112075405D01*
X138908884Y-111900025D01*
X138969709Y-111712826D01*
X139000500Y-111518422D01*
X139000500Y-111321577D01*
X138969709Y-111127173D01*
X138908882Y-110939970D01*
X138819523Y-110764594D01*
X138703828Y-110605354D01*
X138564646Y-110466172D01*
X138485025Y-110408324D01*
X138405403Y-110350474D01*
X138228787Y-110260485D01*
X138177990Y-110212511D01*
X138161195Y-110144690D01*
X138183732Y-110078555D01*
X138228787Y-110039515D01*
X138405403Y-109949525D01*
X138405402Y-109949525D01*
X138405405Y-109949524D01*
X138564646Y-109833828D01*
X138703828Y-109694646D01*
X138819524Y-109535405D01*
X138908884Y-109360025D01*
X138969709Y-109172826D01*
X138985521Y-109072993D01*
X139000500Y-108978422D01*
X139000500Y-108781577D01*
X138969709Y-108587173D01*
X138921419Y-108438555D01*
X138908884Y-108399975D01*
X138908882Y-108399972D01*
X138908882Y-108399970D01*
X138819523Y-108224594D01*
X138703828Y-108065354D01*
X138564646Y-107926172D01*
X138485025Y-107868324D01*
X138405403Y-107810474D01*
X138228787Y-107720485D01*
X138177990Y-107672511D01*
X138161195Y-107604690D01*
X138183732Y-107538555D01*
X138228787Y-107499515D01*
X138405403Y-107409525D01*
X138405402Y-107409525D01*
X138405405Y-107409524D01*
X138564646Y-107293828D01*
X138703828Y-107154646D01*
X138819524Y-106995405D01*
X138908884Y-106820025D01*
X138969709Y-106632826D01*
X139000500Y-106438422D01*
X139000500Y-106241577D01*
X138969709Y-106047173D01*
X138908882Y-105859970D01*
X138861743Y-105767455D01*
X138819524Y-105684595D01*
X138703828Y-105525354D01*
X138564646Y-105386172D01*
X138476970Y-105322471D01*
X138405403Y-105270474D01*
X138228787Y-105180485D01*
X138177990Y-105132511D01*
X138161195Y-105064690D01*
X138183732Y-104998555D01*
X138228787Y-104959515D01*
X138405403Y-104869525D01*
X138405402Y-104869525D01*
X138405405Y-104869524D01*
X138564646Y-104753828D01*
X138703828Y-104614646D01*
X138819524Y-104455405D01*
X138908884Y-104280025D01*
X138969709Y-104092826D01*
X139000500Y-103898422D01*
X139000500Y-103701577D01*
X138969709Y-103507173D01*
X138908882Y-103319970D01*
X138819523Y-103144594D01*
X138703828Y-102985354D01*
X138564646Y-102846172D01*
X138405405Y-102730476D01*
X138403768Y-102729642D01*
X138230029Y-102641117D01*
X138088387Y-102595094D01*
X138030712Y-102555656D01*
X138003514Y-102491297D01*
X138015429Y-102422450D01*
X138062674Y-102370975D01*
X138088389Y-102359232D01*
X138191441Y-102325749D01*
X138191447Y-102325747D01*
X138352730Y-102243568D01*
X138450442Y-102172574D01*
X138450443Y-102172574D01*
X137981539Y-101703670D01*
X138057007Y-101660099D01*
X138150099Y-101567007D01*
X138193670Y-101491539D01*
X138662574Y-101960443D01*
X138662574Y-101960442D01*
X138733568Y-101862730D01*
X138815747Y-101701447D01*
X138815748Y-101701444D01*
X138871682Y-101529293D01*
X138900000Y-101350506D01*
X138900000Y-101169493D01*
X138871682Y-100990706D01*
X138815748Y-100818555D01*
X138815747Y-100818552D01*
X138733567Y-100657268D01*
X138662574Y-100559556D01*
X138662574Y-100559555D01*
X138193669Y-101028459D01*
X138150099Y-100952993D01*
X138057007Y-100859901D01*
X137981538Y-100816329D01*
X138450443Y-100347424D01*
X138352731Y-100276432D01*
X138191447Y-100194252D01*
X138191444Y-100194251D01*
X138088388Y-100160767D01*
X138030713Y-100121330D01*
X138003514Y-100056971D01*
X138015428Y-99988125D01*
X138062672Y-99936649D01*
X138088385Y-99924905D01*
X138230025Y-99878884D01*
X138405405Y-99789524D01*
X138564646Y-99673828D01*
X138703828Y-99534646D01*
X138819524Y-99375405D01*
X138908884Y-99200025D01*
X138969709Y-99012826D01*
X139000500Y-98818422D01*
X139000500Y-98621577D01*
X138969709Y-98427173D01*
X138908882Y-98239970D01*
X138819523Y-98064594D01*
X138703828Y-97905354D01*
X138564646Y-97766172D01*
X138485025Y-97708324D01*
X138405403Y-97650474D01*
X138228787Y-97560485D01*
X138177990Y-97512511D01*
X138161195Y-97444690D01*
X138183732Y-97378555D01*
X138228787Y-97339515D01*
X138405403Y-97249525D01*
X138405402Y-97249525D01*
X138405405Y-97249524D01*
X138564646Y-97133828D01*
X138703828Y-96994646D01*
X138819524Y-96835405D01*
X138908884Y-96660025D01*
X138969709Y-96472826D01*
X138978543Y-96417048D01*
X139000500Y-96278422D01*
X139000500Y-96081577D01*
X138969709Y-95887173D01*
X138908882Y-95699970D01*
X138856242Y-95596658D01*
X138819524Y-95524595D01*
X138703828Y-95365354D01*
X138564646Y-95226172D01*
X138405405Y-95110476D01*
X138372898Y-95093913D01*
X138230029Y-95021117D01*
X138088387Y-94975094D01*
X138030712Y-94935656D01*
X138003514Y-94871297D01*
X138015429Y-94802450D01*
X138062674Y-94750975D01*
X138088389Y-94739232D01*
X138191441Y-94705749D01*
X138191447Y-94705747D01*
X138352730Y-94623568D01*
X138450442Y-94552574D01*
X138450443Y-94552574D01*
X137981539Y-94083670D01*
X138057007Y-94040099D01*
X138150099Y-93947007D01*
X138193670Y-93871539D01*
X138662574Y-94340443D01*
X138662574Y-94340442D01*
X138733568Y-94242730D01*
X138815747Y-94081447D01*
X138815748Y-94081444D01*
X138871682Y-93909293D01*
X138900000Y-93730506D01*
X138900000Y-93549493D01*
X138871682Y-93370706D01*
X138815748Y-93198555D01*
X138815747Y-93198552D01*
X138733567Y-93037268D01*
X138662574Y-92939556D01*
X138662574Y-92939555D01*
X138193669Y-93408459D01*
X138150099Y-93332993D01*
X138057007Y-93239901D01*
X137981538Y-93196329D01*
X138450443Y-92727424D01*
X138352731Y-92656432D01*
X138191447Y-92574252D01*
X138191444Y-92574251D01*
X138088388Y-92540767D01*
X138030713Y-92501330D01*
X138003514Y-92436971D01*
X138015428Y-92368125D01*
X138062672Y-92316649D01*
X138088385Y-92304905D01*
X138230025Y-92258884D01*
X138405405Y-92169524D01*
X138564646Y-92053828D01*
X138703828Y-91914646D01*
X138819524Y-91755405D01*
X138908884Y-91580025D01*
X138969709Y-91392826D01*
X139000500Y-91198422D01*
X139000500Y-91001577D01*
X138969709Y-90807173D01*
X138908882Y-90619970D01*
X138819523Y-90444594D01*
X138703828Y-90285354D01*
X138564646Y-90146172D01*
X138485025Y-90088324D01*
X138405403Y-90030474D01*
X138228787Y-89940485D01*
X138177990Y-89892511D01*
X138161195Y-89824690D01*
X138183732Y-89758555D01*
X138228787Y-89719515D01*
X138405403Y-89629525D01*
X138405402Y-89629525D01*
X138405405Y-89629524D01*
X138564646Y-89513828D01*
X138703828Y-89374646D01*
X138819524Y-89215405D01*
X138908884Y-89040025D01*
X138969709Y-88852826D01*
X138985521Y-88752993D01*
X139000500Y-88658422D01*
X139000500Y-88461577D01*
X138969709Y-88267173D01*
X138921419Y-88118555D01*
X138908884Y-88079975D01*
X138908882Y-88079972D01*
X138908882Y-88079970D01*
X138861743Y-87987455D01*
X138819524Y-87904595D01*
X138703828Y-87745354D01*
X138564646Y-87606172D01*
X138469179Y-87536811D01*
X138405403Y-87490474D01*
X138228787Y-87400485D01*
X138177990Y-87352511D01*
X138161195Y-87284690D01*
X138183732Y-87218555D01*
X138228787Y-87179515D01*
X138405403Y-87089525D01*
X138405402Y-87089525D01*
X138405405Y-87089524D01*
X138564646Y-86973828D01*
X138703828Y-86834646D01*
X138819524Y-86675405D01*
X138908884Y-86500025D01*
X138969709Y-86312826D01*
X139000500Y-86118422D01*
X139000500Y-85921577D01*
X138969709Y-85727173D01*
X138908882Y-85539970D01*
X138819523Y-85364594D01*
X138703828Y-85205354D01*
X138564646Y-85066172D01*
X138405405Y-84950476D01*
X138365733Y-84930262D01*
X138230029Y-84861117D01*
X138088387Y-84815094D01*
X138030712Y-84775656D01*
X138003514Y-84711297D01*
X138015429Y-84642450D01*
X138062674Y-84590975D01*
X138088389Y-84579232D01*
X138191441Y-84545749D01*
X138191447Y-84545747D01*
X138352730Y-84463568D01*
X138450442Y-84392574D01*
X138450443Y-84392574D01*
X137981539Y-83923670D01*
X138057007Y-83880099D01*
X138150099Y-83787007D01*
X138193670Y-83711539D01*
X138662574Y-84180443D01*
X138662574Y-84180442D01*
X138733568Y-84082730D01*
X138815747Y-83921447D01*
X138815748Y-83921444D01*
X138871682Y-83749293D01*
X138900000Y-83570506D01*
X138900000Y-83389493D01*
X138871682Y-83210706D01*
X138815748Y-83038555D01*
X138815747Y-83038552D01*
X138733567Y-82877268D01*
X138662574Y-82779556D01*
X138662574Y-82779555D01*
X138193669Y-83248459D01*
X138150099Y-83172993D01*
X138057007Y-83079901D01*
X137981538Y-83036329D01*
X138450443Y-82567424D01*
X138352731Y-82496432D01*
X138191447Y-82414252D01*
X138191444Y-82414251D01*
X138088388Y-82380767D01*
X138030713Y-82341330D01*
X138003514Y-82276971D01*
X138015428Y-82208125D01*
X138062672Y-82156649D01*
X138088385Y-82144905D01*
X138230025Y-82098884D01*
X138405405Y-82009524D01*
X138564646Y-81893828D01*
X138703828Y-81754646D01*
X138819524Y-81595405D01*
X138908884Y-81420025D01*
X138969709Y-81232826D01*
X138983699Y-81144498D01*
X139000500Y-81038422D01*
X139000500Y-80841577D01*
X138969709Y-80647173D01*
X138908882Y-80459970D01*
X138819523Y-80284594D01*
X138703828Y-80125354D01*
X138564646Y-79986172D01*
X138485025Y-79928324D01*
X138405403Y-79870474D01*
X138228787Y-79780485D01*
X138177990Y-79732511D01*
X138161195Y-79664690D01*
X138183732Y-79598555D01*
X138228787Y-79559515D01*
X138405403Y-79469525D01*
X138405402Y-79469525D01*
X138405405Y-79469524D01*
X138564646Y-79353828D01*
X138703828Y-79214646D01*
X138819524Y-79055405D01*
X138908884Y-78880025D01*
X138969709Y-78692826D01*
X138973792Y-78667048D01*
X139000500Y-78498422D01*
X139000500Y-78301577D01*
X138969709Y-78107173D01*
X138908882Y-77919970D01*
X138847754Y-77800000D01*
X138819524Y-77744595D01*
X138703828Y-77585354D01*
X138564646Y-77446172D01*
X138405405Y-77330476D01*
X138230029Y-77241117D01*
X138042826Y-77180290D01*
X137848422Y-77149500D01*
X137848417Y-77149500D01*
X137651583Y-77149500D01*
X137651578Y-77149500D01*
X137457173Y-77180290D01*
X137269970Y-77241117D01*
X137094594Y-77330476D01*
X137003741Y-77396485D01*
X136935354Y-77446172D01*
X136935352Y-77446174D01*
X136935351Y-77446174D01*
X136796173Y-77585352D01*
X136684817Y-77738620D01*
X136629486Y-77781285D01*
X136559873Y-77787264D01*
X136498078Y-77754658D01*
X136463721Y-77693819D01*
X136460499Y-77665734D01*
X136460499Y-77518482D01*
X136449047Y-77446174D01*
X136445646Y-77424696D01*
X136388050Y-77311658D01*
X136388046Y-77311654D01*
X136388045Y-77311652D01*
X136298347Y-77221954D01*
X136298344Y-77221952D01*
X136298342Y-77221950D01*
X136216580Y-77180290D01*
X136185301Y-77164352D01*
X136091524Y-77149500D01*
X134328482Y-77149500D01*
X134247519Y-77162323D01*
X134234696Y-77164354D01*
X134121658Y-77221950D01*
X134121657Y-77221951D01*
X134121652Y-77221954D01*
X134031954Y-77311652D01*
X134031951Y-77311657D01*
X133974352Y-77424698D01*
X133959500Y-77518475D01*
X133959500Y-77676000D01*
X133939815Y-77743039D01*
X133887011Y-77788794D01*
X133835500Y-77800000D01*
X133295865Y-77800000D01*
X133248412Y-77790561D01*
X133240452Y-77787264D01*
X133218913Y-77778342D01*
X133218907Y-77778340D01*
X133073920Y-77749500D01*
X133073918Y-77749500D01*
X132926082Y-77749500D01*
X132926080Y-77749500D01*
X132781092Y-77778340D01*
X132781082Y-77778343D01*
X132644511Y-77834912D01*
X132644498Y-77834919D01*
X132521584Y-77917048D01*
X132521580Y-77917051D01*
X132417051Y-78021580D01*
X132417048Y-78021584D01*
X132334919Y-78144498D01*
X132334912Y-78144511D01*
X132276011Y-78286714D01*
X132275149Y-78286357D01*
X132247398Y-78332655D01*
X132016873Y-78563181D01*
X131955550Y-78596666D01*
X131929192Y-78599500D01*
X129163840Y-78599500D01*
X129111479Y-78586385D01*
X129111122Y-78587247D01*
X129105495Y-78584916D01*
X128968913Y-78528342D01*
X128968907Y-78528340D01*
X128823920Y-78499500D01*
X128823918Y-78499500D01*
X128676082Y-78499500D01*
X128676080Y-78499500D01*
X128531092Y-78528340D01*
X128531082Y-78528343D01*
X128394511Y-78584912D01*
X128394498Y-78584919D01*
X128271584Y-78667048D01*
X128271580Y-78667051D01*
X128167051Y-78771580D01*
X128167048Y-78771584D01*
X128084919Y-78894498D01*
X128084912Y-78894511D01*
X128028343Y-79031082D01*
X128028340Y-79031092D01*
X127999500Y-79176079D01*
X127999500Y-79176082D01*
X127999500Y-79323918D01*
X127999500Y-79323920D01*
X127999499Y-79323920D01*
X110500500Y-79323920D01*
X110500500Y-73003750D01*
X110500726Y-72996263D01*
X110518271Y-72706205D01*
X110520076Y-72691340D01*
X110571780Y-72409201D01*
X110575364Y-72394663D01*
X110652096Y-72148422D01*
X110660696Y-72120822D01*
X110665998Y-72106841D01*
X110783731Y-71845249D01*
X110790676Y-71832016D01*
X110939080Y-71586526D01*
X110947567Y-71574230D01*
X111124480Y-71348417D01*
X111134395Y-71337226D01*
X111337226Y-71134395D01*
X111348417Y-71124480D01*
X111574230Y-70947567D01*
X111586526Y-70939080D01*
X111832016Y-70790676D01*
X111845249Y-70783731D01*
X112106841Y-70665998D01*
X112120822Y-70660696D01*
X112394668Y-70575362D01*
X112409197Y-70571780D01*
X112691344Y-70520075D01*
X112706201Y-70518271D01*
X112996264Y-70500726D01*
X113003751Y-70500500D01*
X113065892Y-70500500D01*
X136934108Y-70500500D01*
X136996249Y-70500500D01*
X137003736Y-70500726D01*
G37*
%TD.AperFunction*%
%TD*%
M02*
