%TF.GenerationSoftware,KiCad,Pcbnew,9.0.7*%
%TF.CreationDate,2026-07-15T19:52:46+02:00*%
%TF.ProjectId,PSU_Control_RPI,5053555f-436f-46e7-9472-6f6c5f525049,A*%
%TF.SameCoordinates,Original*%
%TF.FileFunction,Copper,L1,Top*%
%TF.FilePolarity,Positive*%
%FSLAX46Y46*%
G04 Gerber Fmt 4.6, Leading zero omitted, Abs format (unit mm)*
G04 Created by KiCad (PCBNEW 9.0.7) date 2026-07-15 19:52:46*
%MOMM*%
%LPD*%
G01*
G04 APERTURE LIST*
G04 Aperture macros list*
%AMRoundRect*
0 Rectangle with rounded corners*
0 $1 Rounding radius*
0 $2 $3 $4 $5 $6 $7 $8 $9 X,Y pos of 4 corners*
0 Add a 4 corners polygon primitive as box body*
4,1,4,$2,$3,$4,$5,$6,$7,$8,$9,$2,$3,0*
0 Add four circle primitives for the rounded corners*
1,1,$1+$1,$2,$3*
1,1,$1+$1,$4,$5*
1,1,$1+$1,$6,$7*
1,1,$1+$1,$8,$9*
0 Add four rect primitives between the rounded corners*
20,1,$1+$1,$2,$3,$4,$5,0*
20,1,$1+$1,$4,$5,$6,$7,0*
20,1,$1+$1,$6,$7,$8,$9,0*
20,1,$1+$1,$8,$9,$2,$3,0*%
G04 Aperture macros list end*
%TA.AperFunction,SMDPad,CuDef*%
%ADD10RoundRect,0.250000X-0.650000X0.412500X-0.650000X-0.412500X0.650000X-0.412500X0.650000X0.412500X0*%
%TD*%
%TA.AperFunction,SMDPad,CuDef*%
%ADD11RoundRect,0.155000X-0.155000X0.212500X-0.155000X-0.212500X0.155000X-0.212500X0.155000X0.212500X0*%
%TD*%
%TA.AperFunction,ComponentPad*%
%ADD12C,3.100000*%
%TD*%
%TA.AperFunction,ConnectorPad*%
%ADD13C,4.500000*%
%TD*%
%TA.AperFunction,SMDPad,CuDef*%
%ADD14RoundRect,0.237500X0.300000X0.237500X-0.300000X0.237500X-0.300000X-0.237500X0.300000X-0.237500X0*%
%TD*%
%TA.AperFunction,SMDPad,CuDef*%
%ADD15RoundRect,0.250000X-0.450000X0.350000X-0.450000X-0.350000X0.450000X-0.350000X0.450000X0.350000X0*%
%TD*%
%TA.AperFunction,SMDPad,CuDef*%
%ADD16RoundRect,0.162500X-0.617500X-0.162500X0.617500X-0.162500X0.617500X0.162500X-0.617500X0.162500X0*%
%TD*%
%TA.AperFunction,SMDPad,CuDef*%
%ADD17RoundRect,0.250000X-0.412500X-0.650000X0.412500X-0.650000X0.412500X0.650000X-0.412500X0.650000X0*%
%TD*%
%TA.AperFunction,SMDPad,CuDef*%
%ADD18RoundRect,0.237500X-0.237500X0.250000X-0.237500X-0.250000X0.237500X-0.250000X0.237500X0.250000X0*%
%TD*%
%TA.AperFunction,SMDPad,CuDef*%
%ADD19RoundRect,0.162500X-0.162500X0.617500X-0.162500X-0.617500X0.162500X-0.617500X0.162500X0.617500X0*%
%TD*%
%TA.AperFunction,SMDPad,CuDef*%
%ADD20RoundRect,0.162500X0.162500X-0.617500X0.162500X0.617500X-0.162500X0.617500X-0.162500X-0.617500X0*%
%TD*%
%TA.AperFunction,SMDPad,CuDef*%
%ADD21RoundRect,0.162500X0.162500X-0.837500X0.162500X0.837500X-0.162500X0.837500X-0.162500X-0.837500X0*%
%TD*%
%TA.AperFunction,SMDPad,CuDef*%
%ADD22RoundRect,0.155000X-0.212500X-0.155000X0.212500X-0.155000X0.212500X0.155000X-0.212500X0.155000X0*%
%TD*%
%TA.AperFunction,SMDPad,CuDef*%
%ADD23RoundRect,0.250001X0.849999X-0.462499X0.849999X0.462499X-0.849999X0.462499X-0.849999X-0.462499X0*%
%TD*%
%TA.AperFunction,ComponentPad*%
%ADD24R,1.575000X1.575000*%
%TD*%
%TA.AperFunction,ComponentPad*%
%ADD25C,1.575000*%
%TD*%
%TA.AperFunction,SMDPad,CuDef*%
%ADD26RoundRect,0.250000X0.350000X0.450000X-0.350000X0.450000X-0.350000X-0.450000X0.350000X-0.450000X0*%
%TD*%
%TA.AperFunction,SMDPad,CuDef*%
%ADD27RoundRect,0.237500X-0.300000X-0.237500X0.300000X-0.237500X0.300000X0.237500X-0.300000X0.237500X0*%
%TD*%
%TA.AperFunction,ComponentPad*%
%ADD28R,1.700000X1.700000*%
%TD*%
%TA.AperFunction,ComponentPad*%
%ADD29C,1.700000*%
%TD*%
%TA.AperFunction,SMDPad,CuDef*%
%ADD30RoundRect,0.250000X0.650000X-0.412500X0.650000X0.412500X-0.650000X0.412500X-0.650000X-0.412500X0*%
%TD*%
%TA.AperFunction,SMDPad,CuDef*%
%ADD31RoundRect,0.237500X-0.250000X-0.237500X0.250000X-0.237500X0.250000X0.237500X-0.250000X0.237500X0*%
%TD*%
%TA.AperFunction,SMDPad,CuDef*%
%ADD32RoundRect,0.250000X0.450000X-0.350000X0.450000X0.350000X-0.450000X0.350000X-0.450000X-0.350000X0*%
%TD*%
%TA.AperFunction,SMDPad,CuDef*%
%ADD33RoundRect,0.155000X0.155000X-0.212500X0.155000X0.212500X-0.155000X0.212500X-0.155000X-0.212500X0*%
%TD*%
%TA.AperFunction,SMDPad,CuDef*%
%ADD34RoundRect,0.155000X0.212500X0.155000X-0.212500X0.155000X-0.212500X-0.155000X0.212500X-0.155000X0*%
%TD*%
%TA.AperFunction,SMDPad,CuDef*%
%ADD35RoundRect,0.075000X-0.650000X-0.075000X0.650000X-0.075000X0.650000X0.075000X-0.650000X0.075000X0*%
%TD*%
%TA.AperFunction,ViaPad*%
%ADD36C,0.700000*%
%TD*%
%TA.AperFunction,Conductor*%
%ADD37C,0.500000*%
%TD*%
%TA.AperFunction,Conductor*%
%ADD38C,0.750000*%
%TD*%
%TA.AperFunction,Conductor*%
%ADD39C,0.300000*%
%TD*%
%TA.AperFunction,Conductor*%
%ADD40C,1.000000*%
%TD*%
G04 APERTURE END LIST*
D10*
%TO.P,C4,1*%
%TO.N,+5V*%
X125850000Y-111875000D03*
%TO.P,C4,2*%
%TO.N,GND*%
X125850000Y-115000000D03*
%TD*%
D11*
%TO.P,C11,1*%
%TO.N,+1V8*%
X121000000Y-81682500D03*
%TO.P,C11,2*%
%TO.N,GND*%
X121000000Y-82817500D03*
%TD*%
D12*
%TO.P,MH4,1,1*%
%TO.N,GND*%
X136500000Y-131500000D03*
D13*
X136500000Y-131500000D03*
%TD*%
D14*
%TO.P,C10,1*%
%TO.N,/ADC/ADC-REF*%
X122112500Y-79250000D03*
%TO.P,C10,2*%
%TO.N,GND*%
X120387500Y-79250000D03*
%TD*%
D15*
%TO.P,R4,1*%
%TO.N,GND*%
X123512500Y-98650000D03*
%TO.P,R4,2*%
%TO.N,Net-(U2-EN)*%
X123512500Y-100650000D03*
%TD*%
D16*
%TO.P,U4,1*%
%TO.N,/ADC/ADC-IN-BUFF*%
X124000000Y-90550000D03*
%TO.P,U4,2,V-*%
%TO.N,GND*%
X124000000Y-91500000D03*
%TO.P,U4,3,+*%
%TO.N,/ADC/ADC-IN*%
X124000000Y-92450000D03*
%TO.P,U4,4,-*%
%TO.N,/ADC/ADC-IN-BUFF*%
X126700000Y-92450000D03*
%TO.P,U4,5,V+*%
%TO.N,+5V*%
X126700000Y-90550000D03*
%TD*%
D12*
%TO.P,MH3,1,1*%
%TO.N,GND*%
X113500000Y-131500000D03*
D13*
X113500000Y-131500000D03*
%TD*%
D17*
%TO.P,C6,1*%
%TO.N,+1V8*%
X116937500Y-95750000D03*
%TO.P,C6,2*%
%TO.N,GND*%
X120062500Y-95750000D03*
%TD*%
D18*
%TO.P,R1,1*%
%TO.N,Net-(U1-EN)*%
X118750000Y-122500000D03*
%TO.P,R1,2*%
%TO.N,+24V*%
X118750000Y-124325000D03*
%TD*%
D12*
%TO.P,MH2,1,1*%
%TO.N,GND*%
X136500000Y-73500000D03*
D13*
X136500000Y-73500000D03*
%TD*%
D19*
%TO.P,U3,1,OUT*%
%TO.N,/ADC/VREF*%
X114950000Y-81000000D03*
%TO.P,U3,2,GND*%
%TO.N,GND*%
X114000000Y-81000000D03*
%TO.P,U3,3,GND*%
X113050000Y-81000000D03*
%TO.P,U3,4,~{SHDN}*%
%TO.N,+5V*%
X113050000Y-83700000D03*
%TO.P,U3,5,GND*%
%TO.N,GND*%
X114000000Y-83700000D03*
%TO.P,U3,6,VDD*%
%TO.N,+5V*%
X114950000Y-83700000D03*
%TD*%
D20*
%TO.P,U2,1,IN*%
%TO.N,+5V*%
X117562500Y-101000000D03*
%TO.P,U2,2,GND*%
%TO.N,GND*%
X118512500Y-101000000D03*
%TO.P,U2,3,EN*%
%TO.N,Net-(U2-EN)*%
X119462500Y-101000000D03*
%TO.P,U2,4,NC*%
%TO.N,GND*%
X119462500Y-98300000D03*
%TO.P,U2,5,OUT*%
%TO.N,+1V8*%
X117562500Y-98300000D03*
%TD*%
D21*
%TO.P,U1,1,FB*%
%TO.N,+5V*%
X117800000Y-119420000D03*
%TO.P,U1,2,EN*%
%TO.N,Net-(U1-EN)*%
X118750000Y-119420000D03*
%TO.P,U1,3,IN*%
%TO.N,+24V*%
X119700000Y-119420000D03*
%TO.P,U1,4,GND*%
%TO.N,GND*%
X119700000Y-116000000D03*
%TO.P,U1,5,SW*%
%TO.N,/Power/SW*%
X118750000Y-116000000D03*
%TO.P,U1,6,BST*%
%TO.N,/Power/BST*%
X117800000Y-116000000D03*
%TD*%
D22*
%TO.P,C7,1*%
%TO.N,GND*%
X114115000Y-85550000D03*
%TO.P,C7,2*%
%TO.N,+5V*%
X115250000Y-85550000D03*
%TD*%
D23*
%TO.P,L1,1,1*%
%TO.N,/Power/SW*%
X118600000Y-113162500D03*
%TO.P,L1,2,2*%
%TO.N,+5V*%
X118600000Y-110837500D03*
%TD*%
D24*
%TO.P,J1,1,1*%
%TO.N,+24V*%
X122000000Y-140500000D03*
D25*
%TO.P,J1,2,2*%
%TO.N,/ADC/ADC-IN*%
X124000000Y-140500000D03*
%TO.P,J1,3,3*%
%TO.N,/Power/RELAY-CTRL*%
X126000000Y-140500000D03*
%TO.P,J1,4,4*%
%TO.N,GND*%
X128000000Y-140500000D03*
%TD*%
D12*
%TO.P,MH1,1,1*%
%TO.N,GND*%
X113500000Y-73500000D03*
D13*
X113500000Y-73500000D03*
%TD*%
D26*
%TO.P,R2,1*%
%TO.N,Net-(U1-EN)*%
X116100000Y-122500000D03*
%TO.P,R2,2*%
%TO.N,GND*%
X114100000Y-122500000D03*
%TD*%
D27*
%TO.P,C5,1*%
%TO.N,+5V*%
X116950000Y-103250000D03*
%TO.P,C5,2*%
%TO.N,GND*%
X118675000Y-103250000D03*
%TD*%
D28*
%TO.P,J2,1,Pin_1*%
%TO.N,+3V3*%
X135210000Y-78400000D03*
D29*
%TO.P,J2,2,Pin_2*%
%TO.N,+5V*%
X137750000Y-78400000D03*
%TO.P,J2,3,Pin_3*%
%TO.N,unconnected-(J2-Pin_3-Pad3)*%
X135210000Y-80940000D03*
%TO.P,J2,4,Pin_4*%
%TO.N,+5V*%
X137750000Y-80940000D03*
%TO.P,J2,5,Pin_5*%
%TO.N,unconnected-(J2-Pin_5-Pad5)*%
X135210000Y-83480000D03*
%TO.P,J2,6,Pin_6*%
%TO.N,GND*%
X137750000Y-83480000D03*
%TO.P,J2,7,Pin_7*%
%TO.N,unconnected-(J2-Pin_7-Pad7)*%
X135210000Y-86020000D03*
%TO.P,J2,8,Pin_8*%
%TO.N,unconnected-(J2-Pin_8-Pad8)*%
X137750000Y-86020000D03*
%TO.P,J2,9,Pin_9*%
%TO.N,GND*%
X135210000Y-88560000D03*
%TO.P,J2,10,Pin_10*%
%TO.N,unconnected-(J2-Pin_10-Pad10)*%
X137750000Y-88560000D03*
%TO.P,J2,11,Pin_11*%
%TO.N,/Power/RELAY-CTRL*%
X135210000Y-91100000D03*
%TO.P,J2,12,Pin_12*%
%TO.N,unconnected-(J2-Pin_12-Pad12)*%
X137750000Y-91100000D03*
%TO.P,J2,13,Pin_13*%
%TO.N,unconnected-(J2-Pin_13-Pad13)*%
X135210000Y-93640000D03*
%TO.P,J2,14,Pin_14*%
%TO.N,GND*%
X137750000Y-93640000D03*
%TO.P,J2,15,Pin_15*%
%TO.N,unconnected-(J2-Pin_15-Pad15)*%
X135210000Y-96180000D03*
%TO.P,J2,16,Pin_16*%
%TO.N,unconnected-(J2-Pin_16-Pad16)*%
X137750000Y-96180000D03*
%TO.P,J2,17,Pin_17*%
%TO.N,unconnected-(J2-Pin_17-Pad17)*%
X135210000Y-98720000D03*
%TO.P,J2,18,Pin_18*%
%TO.N,unconnected-(J2-Pin_18-Pad18)*%
X137750000Y-98720000D03*
%TO.P,J2,19,Pin_19*%
%TO.N,/ADC/SPI-MISO*%
X135210000Y-101260000D03*
%TO.P,J2,20,Pin_20*%
%TO.N,GND*%
X137750000Y-101260000D03*
%TO.P,J2,21,Pin_21*%
%TO.N,unconnected-(J2-Pin_21-Pad21)*%
X135210000Y-103800000D03*
%TO.P,J2,22,Pin_22*%
%TO.N,unconnected-(J2-Pin_22-Pad22)*%
X137750000Y-103800000D03*
%TO.P,J2,23,Pin_23*%
%TO.N,/ADC/SPI-CLK*%
X135210000Y-106340000D03*
%TO.P,J2,24,Pin_24*%
%TO.N,/ADC/~{CS}*%
X137750000Y-106340000D03*
%TO.P,J2,25,Pin_25*%
%TO.N,GND*%
X135210000Y-108880000D03*
%TO.P,J2,26,Pin_26*%
%TO.N,unconnected-(J2-Pin_26-Pad26)*%
X137750000Y-108880000D03*
%TO.P,J2,27,Pin_27*%
%TO.N,unconnected-(J2-Pin_27-Pad27)*%
X135210000Y-111420000D03*
%TO.P,J2,28,Pin_28*%
%TO.N,unconnected-(J2-Pin_28-Pad28)*%
X137750000Y-111420000D03*
%TO.P,J2,29,Pin_29*%
%TO.N,unconnected-(J2-Pin_29-Pad29)*%
X135210000Y-113960000D03*
%TO.P,J2,30,Pin_30*%
%TO.N,GND*%
X137750000Y-113960000D03*
%TO.P,J2,31,Pin_31*%
%TO.N,unconnected-(J2-Pin_31-Pad31)*%
X135210000Y-116500000D03*
%TO.P,J2,32,Pin_32*%
%TO.N,unconnected-(J2-Pin_32-Pad32)*%
X137750000Y-116500000D03*
%TO.P,J2,33,Pin_33*%
%TO.N,unconnected-(J2-Pin_33-Pad33)*%
X135210000Y-119040000D03*
%TO.P,J2,34,Pin_34*%
%TO.N,GND*%
X137750000Y-119040000D03*
%TO.P,J2,35,Pin_35*%
%TO.N,unconnected-(J2-Pin_35-Pad35)*%
X135210000Y-121580000D03*
%TO.P,J2,36,Pin_36*%
%TO.N,unconnected-(J2-Pin_36-Pad36)*%
X137750000Y-121580000D03*
%TO.P,J2,37,Pin_37*%
%TO.N,unconnected-(J2-Pin_37-Pad37)*%
X135210000Y-124120000D03*
%TO.P,J2,38,Pin_38*%
%TO.N,unconnected-(J2-Pin_38-Pad38)*%
X137750000Y-124120000D03*
%TO.P,J2,39,Pin_39*%
%TO.N,GND*%
X135210000Y-126660000D03*
%TO.P,J2,40,Pin_40*%
%TO.N,unconnected-(J2-Pin_40-Pad40)*%
X137750000Y-126660000D03*
%TD*%
D30*
%TO.P,C1,1*%
%TO.N,+24V*%
X122850000Y-121125000D03*
%TO.P,C1,2*%
%TO.N,GND*%
X122850000Y-118000000D03*
%TD*%
D14*
%TO.P,C12,1*%
%TO.N,+3V3*%
X127362500Y-79250000D03*
%TO.P,C12,2*%
%TO.N,GND*%
X125637500Y-79250000D03*
%TD*%
D31*
%TO.P,R5,1*%
%TO.N,/ADC/VREF*%
X120337500Y-77400000D03*
%TO.P,R5,2*%
%TO.N,/ADC/ADC-REF*%
X122162500Y-77400000D03*
%TD*%
D32*
%TO.P,R3,1*%
%TO.N,+5V*%
X123512500Y-105000000D03*
%TO.P,R3,2*%
%TO.N,Net-(U2-EN)*%
X123512500Y-103000000D03*
%TD*%
D33*
%TO.P,C2,1*%
%TO.N,/Power/BST*%
X116000000Y-115567500D03*
%TO.P,C2,2*%
%TO.N,/Power/SW*%
X116000000Y-114432500D03*
%TD*%
D10*
%TO.P,C3,1*%
%TO.N,+5V*%
X122850000Y-111875000D03*
%TO.P,C3,2*%
%TO.N,GND*%
X122850000Y-115000000D03*
%TD*%
D34*
%TO.P,C8,1*%
%TO.N,/ADC/ADC-IN-FILT*%
X124067500Y-84500000D03*
%TO.P,C8,2*%
%TO.N,GND*%
X122932500Y-84500000D03*
%TD*%
D35*
%TO.P,U5,1,REF*%
%TO.N,/ADC/ADC-REF*%
X122850000Y-81000000D03*
%TO.P,U5,2,VDD*%
%TO.N,+1V8*%
X122850000Y-81500000D03*
%TO.P,U5,3,IN+*%
%TO.N,/ADC/ADC-IN-FILT*%
X122850000Y-82000000D03*
%TO.P,U5,4,IN-*%
%TO.N,GND*%
X122850000Y-82500000D03*
%TO.P,U5,5,GND*%
X122850000Y-83000000D03*
%TO.P,U5,6,CNVST*%
%TO.N,/ADC/~{CS}*%
X127150000Y-83000000D03*
%TO.P,U5,7,SDO*%
%TO.N,/ADC/SPI-MISO*%
X127150000Y-82500000D03*
%TO.P,U5,8,SCLK*%
%TO.N,/ADC/SPI-CLK*%
X127150000Y-82000000D03*
%TO.P,U5,9,SDI*%
%TO.N,+3V3*%
X127150000Y-81500000D03*
%TO.P,U5,10,VIO*%
X127150000Y-81000000D03*
%TD*%
D15*
%TO.P,R6,1*%
%TO.N,/ADC/ADC-IN-FILT*%
X124000000Y-86250000D03*
%TO.P,R6,2*%
%TO.N,/ADC/ADC-IN-BUFF*%
X124000000Y-88250000D03*
%TD*%
D36*
%TO.N,GND*%
X122500000Y-85500000D03*
X116750000Y-132500000D03*
X111500000Y-99500000D03*
X126250000Y-76250000D03*
X118500000Y-80500000D03*
X115000000Y-100750000D03*
X111500000Y-106000000D03*
X115000000Y-97500000D03*
X121750000Y-106500000D03*
X125500000Y-87250000D03*
X120000000Y-72500000D03*
X121750000Y-108500000D03*
X125500000Y-81250000D03*
X129500000Y-140500000D03*
X113000000Y-107500000D03*
X131250000Y-135000000D03*
X128750000Y-87250000D03*
X118250000Y-90000000D03*
X127250000Y-122500000D03*
X111750000Y-81000000D03*
X124250000Y-79250000D03*
X116750000Y-130000000D03*
X120250000Y-130000000D03*
X120250000Y-127500000D03*
X139000000Y-118000000D03*
X129500000Y-112500000D03*
X111500000Y-115000000D03*
X134000000Y-89750000D03*
X113000000Y-79500000D03*
X111500000Y-125000000D03*
X139000000Y-100000000D03*
X120250000Y-132500000D03*
X117500000Y-135000000D03*
X120250000Y-86000000D03*
X132500000Y-122500000D03*
X131250000Y-140000000D03*
X111500000Y-82750000D03*
X123500000Y-97250000D03*
X118500000Y-78500000D03*
X125250000Y-130000000D03*
X118750000Y-142500000D03*
X129500000Y-107500000D03*
X130000000Y-75000000D03*
X125000000Y-96000000D03*
X122500000Y-125000000D03*
X133250000Y-109000000D03*
X121750000Y-104000000D03*
X130000000Y-72500000D03*
X124250000Y-77500000D03*
X127500000Y-130000000D03*
X128750000Y-96000000D03*
X111500000Y-97750000D03*
X121100000Y-116500000D03*
X116500000Y-80500000D03*
X132500000Y-75000000D03*
X111500000Y-103500000D03*
X125250000Y-122500000D03*
X115000000Y-102500000D03*
X124750000Y-118000000D03*
X127500000Y-143500000D03*
X125000000Y-125000000D03*
X139000000Y-120000000D03*
X122500000Y-130000000D03*
X129500000Y-130000000D03*
X125250000Y-132500000D03*
X129500000Y-110000000D03*
X136400000Y-128500000D03*
X128750000Y-76250000D03*
X127500000Y-75000000D03*
X129500000Y-127500000D03*
X133250000Y-125500000D03*
X132500000Y-115000000D03*
X132500000Y-120000000D03*
X118250000Y-87500000D03*
X124250000Y-83000000D03*
X115000000Y-95000000D03*
X121100000Y-118000000D03*
X120062500Y-103250000D03*
X111500000Y-92900000D03*
X118250000Y-92500000D03*
X132500000Y-112500000D03*
X111500000Y-112500000D03*
X113500000Y-77500000D03*
X139000000Y-112750000D03*
X115750000Y-90000000D03*
X139000000Y-92500000D03*
X115000000Y-92500000D03*
X132750000Y-80500000D03*
X131250000Y-137500000D03*
X116500000Y-82250000D03*
X129250000Y-141500000D03*
X139000000Y-102500000D03*
X122250000Y-89500000D03*
X120812500Y-98250000D03*
X125500000Y-89250000D03*
X127500000Y-132500000D03*
X132500000Y-132500000D03*
X120000000Y-106250000D03*
X111500000Y-109250000D03*
X122500000Y-75000000D03*
X113950000Y-79500000D03*
X112500000Y-122500000D03*
X134000000Y-82250000D03*
X122000000Y-98500000D03*
X132500000Y-72500000D03*
X125500000Y-85250000D03*
X121750000Y-102250000D03*
X122500000Y-127500000D03*
X128750000Y-85250000D03*
X122850000Y-116500000D03*
X115000000Y-107500000D03*
X125850000Y-116500000D03*
X129500000Y-122500000D03*
X120250000Y-80500000D03*
X127250000Y-117500000D03*
X117500000Y-72500000D03*
X111500000Y-120000000D03*
X139000000Y-115000000D03*
X118250000Y-85000000D03*
X111500000Y-84500000D03*
X129500000Y-125000000D03*
X117500000Y-75000000D03*
X128000000Y-142000000D03*
X122500000Y-143500000D03*
X122250000Y-93250000D03*
X121562500Y-95750000D03*
X139000000Y-94750000D03*
X127500000Y-127500000D03*
X139000000Y-82250000D03*
X139000000Y-84500000D03*
X113750000Y-127500000D03*
X134000000Y-87500000D03*
X125250000Y-120000000D03*
X125000000Y-72500000D03*
X129250000Y-139500000D03*
X116250000Y-127500000D03*
X122250000Y-91500000D03*
X111500000Y-127500000D03*
X129500000Y-117500000D03*
X116000000Y-109250000D03*
X116000000Y-79250000D03*
X120000000Y-94000000D03*
X129500000Y-120000000D03*
X118750000Y-140000000D03*
X113750000Y-111250000D03*
X122500000Y-132500000D03*
X134000000Y-84750000D03*
X131250000Y-142500000D03*
X120000000Y-75000000D03*
X125000000Y-75000000D03*
X127250000Y-86250000D03*
X120000000Y-82750000D03*
X125250000Y-135000000D03*
X111500000Y-117500000D03*
X122500000Y-72500000D03*
X121100000Y-115000000D03*
X128750000Y-77500000D03*
X115750000Y-104500000D03*
X134250000Y-128500000D03*
X132500000Y-130000000D03*
X128000000Y-139000000D03*
X114100000Y-121000000D03*
X111500000Y-87500000D03*
X127250000Y-120000000D03*
X132500000Y-117500000D03*
X111500000Y-77500000D03*
X120500000Y-91500000D03*
X119250000Y-104500000D03*
X118750000Y-137500000D03*
X114000000Y-86600000D03*
X126000000Y-84000000D03*
X129500000Y-115000000D03*
X120250000Y-88750000D03*
X127500000Y-72500000D03*
X122750000Y-135000000D03*
%TO.N,/ADC/ADC-IN*%
X128000000Y-97000000D03*
X125875000Y-94875000D03*
%TO.N,+3V3*%
X133000000Y-78500000D03*
X128750000Y-79250000D03*
%TO.N,/ADC/SPI-CLK*%
X129250000Y-81500000D03*
%TO.N,/ADC/~{CS}*%
X129250000Y-83500000D03*
%TO.N,/ADC/SPI-MISO*%
X131750000Y-101250000D03*
X129250000Y-82500000D03*
%TD*%
D37*
%TO.N,+5V*%
X116162500Y-110837500D02*
X114250000Y-112750000D01*
D38*
X130750000Y-88000000D02*
X130750000Y-92250000D01*
D37*
X116950000Y-105450000D02*
X116950000Y-103250000D01*
X114250000Y-112750000D02*
X114250000Y-117750000D01*
X113050000Y-90450000D02*
X114250000Y-89250000D01*
D38*
X130750000Y-77250000D02*
X131500000Y-76500000D01*
D39*
X113050000Y-88050000D02*
X114250000Y-89250000D01*
D37*
X115250000Y-84950000D02*
X114950000Y-84650000D01*
X113050000Y-103550000D02*
X113050000Y-90450000D01*
X114250000Y-117750000D02*
X115920000Y-119420000D01*
D38*
X130750000Y-88000000D02*
X130750000Y-77250000D01*
D37*
X120500000Y-109750000D02*
X120500000Y-109000000D01*
D38*
X125850000Y-97150000D02*
X125850000Y-111875000D01*
D37*
X126700000Y-89050000D02*
X126700000Y-90550000D01*
X118600000Y-110837500D02*
X118600000Y-109100000D01*
X114950000Y-84650000D02*
X114950000Y-83700000D01*
X117562500Y-102187500D02*
X117562500Y-101000000D01*
X118600000Y-109100000D02*
X113050000Y-103550000D01*
X123512500Y-107237500D02*
X123512500Y-105000000D01*
X130750000Y-88250000D02*
X130500000Y-88500000D01*
X130500000Y-88500000D02*
X127250000Y-88500000D01*
D39*
X113050000Y-83700000D02*
X113050000Y-88050000D01*
D37*
X115250000Y-85550000D02*
X115250000Y-84950000D01*
D38*
X131500000Y-76500000D02*
X137000000Y-76500000D01*
D37*
X116950000Y-103250000D02*
X116950000Y-102800000D01*
X122850000Y-107900000D02*
X123512500Y-107237500D01*
X115920000Y-119420000D02*
X117800000Y-119420000D01*
X122850000Y-111875000D02*
X122850000Y-107900000D01*
D38*
X137000000Y-76500000D02*
X137750000Y-77250000D01*
D37*
X116950000Y-102800000D02*
X117562500Y-102187500D01*
D38*
X137750000Y-77250000D02*
X137750000Y-80940000D01*
D37*
X118600000Y-110837500D02*
X116162500Y-110837500D01*
X115250000Y-88250000D02*
X115250000Y-85550000D01*
X127250000Y-88500000D02*
X126700000Y-89050000D01*
D38*
X130750000Y-92250000D02*
X125850000Y-97150000D01*
D37*
X114250000Y-89250000D02*
X115250000Y-88250000D01*
X120500000Y-109000000D02*
X116950000Y-105450000D01*
%TO.N,GND*%
X120932500Y-82750000D02*
X121000000Y-82817500D01*
D39*
X124250000Y-83000000D02*
X124250000Y-82850000D01*
X123900000Y-82500000D02*
X122850000Y-82500000D01*
D37*
X114000000Y-85665000D02*
X114115000Y-85550000D01*
X118512500Y-101000000D02*
X118512500Y-103087500D01*
X118512500Y-103087500D02*
X118675000Y-103250000D01*
D39*
X124250000Y-82850000D02*
X123900000Y-82500000D01*
D37*
X121100000Y-116500000D02*
X120600000Y-116000000D01*
X120600000Y-116000000D02*
X119700000Y-116000000D01*
D39*
X124250000Y-83000000D02*
X122850000Y-83000000D01*
D37*
X120250000Y-79387500D02*
X120387500Y-79250000D01*
X114000000Y-86600000D02*
X114000000Y-85665000D01*
X122250000Y-91500000D02*
X124000000Y-91500000D01*
D40*
%TO.N,+24V*%
X118750000Y-125500000D02*
X118750000Y-133250000D01*
X122000000Y-136500000D02*
X122000000Y-140500000D01*
X118750000Y-133250000D02*
X122000000Y-136500000D01*
D37*
%TO.N,/Power/BST*%
X117250000Y-116000000D02*
X117800000Y-116000000D01*
X116817500Y-115567500D02*
X117250000Y-116000000D01*
X116100000Y-115567500D02*
X116817500Y-115567500D01*
%TO.N,+1V8*%
X116937500Y-95750000D02*
X116937500Y-84062500D01*
X116937500Y-96937500D02*
X116937500Y-95750000D01*
D39*
X121182500Y-81500000D02*
X121000000Y-81682500D01*
D37*
X117562500Y-97562500D02*
X116937500Y-96937500D01*
D39*
X122850000Y-81500000D02*
X121182500Y-81500000D01*
D37*
X116937500Y-84062500D02*
X119317500Y-81682500D01*
X117562500Y-98300000D02*
X117562500Y-97562500D01*
X119317500Y-81682500D02*
X121000000Y-81682500D01*
%TO.N,/ADC/ADC-REF*%
X122200000Y-79162500D02*
X122112500Y-79250000D01*
X122162500Y-77400000D02*
X122162500Y-79200000D01*
X122112500Y-79250000D02*
X122112500Y-80161500D01*
X122162500Y-79200000D02*
X122112500Y-79250000D01*
X122112500Y-80161500D02*
X122850000Y-80899000D01*
D39*
%TO.N,/ADC/ADC-IN-FILT*%
X124067500Y-84500000D02*
X124067500Y-86182500D01*
X123959636Y-81799000D02*
X124549000Y-81799000D01*
X125000000Y-84250000D02*
X124750000Y-84500000D01*
X125000000Y-82250000D02*
X125000000Y-84250000D01*
X124549000Y-81799000D02*
X125000000Y-82250000D01*
X123758636Y-82000000D02*
X123959636Y-81799000D01*
X124067500Y-86182500D02*
X124000000Y-86250000D01*
X122850000Y-82000000D02*
X123758636Y-82000000D01*
X124750000Y-84500000D02*
X124067500Y-84500000D01*
D37*
%TO.N,/ADC/ADC-IN*%
X125875000Y-94875000D02*
X124000000Y-93000000D01*
X128500000Y-124500000D02*
X124000000Y-129000000D01*
X124000000Y-93000000D02*
X124000000Y-92450000D01*
X128500000Y-97500000D02*
X128500000Y-124500000D01*
X128500000Y-97500000D02*
X128000000Y-97000000D01*
X124000000Y-129000000D02*
X124000000Y-140500000D01*
%TO.N,/ADC/VREF*%
X116350000Y-77400000D02*
X114950000Y-78800000D01*
X120337500Y-77400000D02*
X116350000Y-77400000D01*
X114950000Y-78800000D02*
X114950000Y-81000000D01*
%TO.N,+3V3*%
X127362500Y-79250000D02*
X127362500Y-80137500D01*
X133000000Y-78500000D02*
X135110000Y-78500000D01*
X127150000Y-80350000D02*
X127150000Y-81000000D01*
X135110000Y-78500000D02*
X135210000Y-78400000D01*
X127362500Y-80137500D02*
X127150000Y-80350000D01*
X127150000Y-81000000D02*
X127150000Y-81399000D01*
X127362500Y-79250000D02*
X128750000Y-79250000D01*
D39*
%TO.N,/ADC/ADC-IN-BUFF*%
X125500000Y-91000000D02*
X125050000Y-90550000D01*
D37*
X124000000Y-88250000D02*
X124000000Y-90550000D01*
D39*
X125700000Y-92450000D02*
X125500000Y-92250000D01*
X126700000Y-92450000D02*
X125700000Y-92450000D01*
X125500000Y-92250000D02*
X125500000Y-91000000D01*
X125050000Y-90550000D02*
X124000000Y-90550000D01*
D37*
%TO.N,/Power/RELAY-CTRL*%
X130750000Y-131750000D02*
X130750000Y-95560000D01*
X130750000Y-95560000D02*
X135210000Y-91100000D01*
X126000000Y-140500000D02*
X126000000Y-136500000D01*
X126000000Y-136500000D02*
X130750000Y-131750000D01*
D39*
%TO.N,/ADC/SPI-CLK*%
X128250000Y-82000000D02*
X127150000Y-82000000D01*
X128750000Y-81500000D02*
X128250000Y-82000000D01*
X129250000Y-81500000D02*
X128750000Y-81500000D01*
%TO.N,/ADC/~{CS}*%
X129250000Y-83500000D02*
X128750000Y-83500000D01*
X128250000Y-83000000D02*
X127150000Y-83000000D01*
X128750000Y-83500000D02*
X128250000Y-83000000D01*
%TO.N,/ADC/SPI-MISO*%
X131760000Y-101260000D02*
X135210000Y-101260000D01*
X131750000Y-101250000D02*
X131760000Y-101260000D01*
X127150000Y-82500000D02*
X129250000Y-82500000D01*
D37*
%TO.N,Net-(U1-EN)*%
X118675000Y-122500000D02*
X116100000Y-122500000D01*
X116140000Y-122460000D02*
X116100000Y-122500000D01*
X118750000Y-119420000D02*
X118750000Y-122425000D01*
X118750000Y-122425000D02*
X118675000Y-122500000D01*
%TO.N,Net-(U2-EN)*%
X121312500Y-101000000D02*
X119462500Y-101000000D01*
X121662500Y-100650000D02*
X121312500Y-101000000D01*
X123512500Y-103000000D02*
X123512500Y-100650000D01*
X123512500Y-100650000D02*
X121662500Y-100650000D01*
%TD*%
%TA.AperFunction,Conductor*%
%TO.N,/Power/SW*%
G36*
X119821177Y-112325185D02*
G01*
X119841819Y-112341819D01*
X120213681Y-112713681D01*
X120247166Y-112775004D01*
X120250000Y-112801362D01*
X120250000Y-113948638D01*
X120230315Y-114015677D01*
X120213681Y-114036319D01*
X119786319Y-114463681D01*
X119724996Y-114497166D01*
X119698638Y-114500000D01*
X119249999Y-114500000D01*
X119000000Y-114749999D01*
X119000000Y-116876000D01*
X118980315Y-116943039D01*
X118927511Y-116988794D01*
X118876000Y-117000000D01*
X118624000Y-117000000D01*
X118556961Y-116980315D01*
X118511206Y-116927511D01*
X118500000Y-116876000D01*
X118500000Y-114750000D01*
X118250000Y-114500000D01*
X117000000Y-114500000D01*
X116999999Y-114500000D01*
X116786319Y-114713681D01*
X116724996Y-114747166D01*
X116698638Y-114750000D01*
X115624000Y-114750000D01*
X115556961Y-114730315D01*
X115511206Y-114677511D01*
X115500000Y-114626000D01*
X115500000Y-113812000D01*
X115519685Y-113744961D01*
X115549600Y-113712800D01*
X117392933Y-112330299D01*
X117458375Y-112305824D01*
X117467333Y-112305500D01*
X119754138Y-112305500D01*
X119821177Y-112325185D01*
G37*
%TD.AperFunction*%
%TD*%
%TA.AperFunction,Conductor*%
%TO.N,+24V*%
G36*
X120278943Y-118519685D02*
G01*
X120302365Y-118539189D01*
X120466463Y-118714227D01*
X120497953Y-118776598D01*
X120500000Y-118799036D01*
X120500000Y-119187500D01*
X120812500Y-119500000D01*
X123573638Y-119500000D01*
X123640677Y-119519685D01*
X123661319Y-119536319D01*
X124213681Y-120088681D01*
X124247166Y-120150004D01*
X124250000Y-120176362D01*
X124250000Y-122438722D01*
X124230315Y-122505761D01*
X124201324Y-122537222D01*
X120033346Y-125724500D01*
X119968135Y-125749587D01*
X119958022Y-125750000D01*
X118051362Y-125750000D01*
X117984323Y-125730315D01*
X117963681Y-125713681D01*
X117786319Y-125536319D01*
X117752834Y-125474996D01*
X117750000Y-125448638D01*
X117750000Y-124051362D01*
X117769685Y-123984323D01*
X117786319Y-123963681D01*
X117963681Y-123786319D01*
X118025004Y-123752834D01*
X118051362Y-123750000D01*
X119500079Y-123750000D01*
X120000000Y-123250000D01*
X120000000Y-121750000D01*
X119536319Y-121286319D01*
X119502834Y-121224996D01*
X119500000Y-121198638D01*
X119500000Y-118792018D01*
X119506421Y-118770149D01*
X119508294Y-118747429D01*
X119518379Y-118729424D01*
X119519685Y-118724979D01*
X119525537Y-118716645D01*
X119654182Y-118548618D01*
X119710566Y-118507356D01*
X119752639Y-118500000D01*
X120211904Y-118500000D01*
X120278943Y-118519685D01*
G37*
%TD.AperFunction*%
%TD*%
%TA.AperFunction,Conductor*%
%TO.N,+5V*%
G36*
X126765677Y-109519685D02*
G01*
X126786319Y-109536319D01*
X127213681Y-109963681D01*
X127247166Y-110025004D01*
X127250000Y-110051362D01*
X127250000Y-112698638D01*
X127230315Y-112765677D01*
X127213681Y-112786319D01*
X126786319Y-113213681D01*
X126724996Y-113247166D01*
X126698638Y-113250000D01*
X121551362Y-113250000D01*
X121484323Y-113230315D01*
X121463681Y-113213681D01*
X121036319Y-112786319D01*
X121002834Y-112724996D01*
X121000000Y-112698638D01*
X121000000Y-112250000D01*
X120750000Y-112000000D01*
X117301362Y-112000000D01*
X117234323Y-111980315D01*
X117213681Y-111963681D01*
X116786319Y-111536319D01*
X116752834Y-111474996D01*
X116750000Y-111448638D01*
X116750000Y-110051362D01*
X116769685Y-109984323D01*
X116786319Y-109963681D01*
X117213681Y-109536319D01*
X117275004Y-109502834D01*
X117301362Y-109500000D01*
X126698638Y-109500000D01*
X126765677Y-109519685D01*
G37*
%TD.AperFunction*%
%TD*%
%TA.AperFunction,Conductor*%
%TO.N,GND*%
G36*
X127794024Y-112842216D02*
G01*
X127839019Y-112895669D01*
X127849500Y-112945562D01*
X127849500Y-124179191D01*
X127829815Y-124246230D01*
X127813181Y-124266872D01*
X123494727Y-128585325D01*
X123494726Y-128585326D01*
X123423534Y-128691874D01*
X123374499Y-128810255D01*
X123374497Y-128810261D01*
X123349500Y-128935928D01*
X123349500Y-136076000D01*
X123329815Y-136143039D01*
X123277011Y-136188794D01*
X123225500Y-136200000D01*
X122933284Y-136200000D01*
X122921475Y-136196532D01*
X122909219Y-136197642D01*
X122888579Y-136186873D01*
X122866245Y-136180315D01*
X122856670Y-136170224D01*
X122847275Y-136165322D01*
X122835154Y-136147548D01*
X122825594Y-136137472D01*
X122821716Y-136130678D01*
X122821061Y-136129097D01*
X122798013Y-136073453D01*
X122738936Y-135985040D01*
X122710815Y-135942952D01*
X122699466Y-135925966D01*
X119686819Y-132913319D01*
X119653334Y-132851996D01*
X119650500Y-132825638D01*
X119650500Y-126279500D01*
X119670185Y-126212461D01*
X119722989Y-126166706D01*
X119774500Y-126155500D01*
X119958026Y-126155500D01*
X119959275Y-126155474D01*
X119974568Y-126155162D01*
X119984681Y-126154749D01*
X119989654Y-126154516D01*
X120113731Y-126128047D01*
X120178942Y-126102960D01*
X120279667Y-126046612D01*
X124447645Y-122859334D01*
X124499523Y-122812009D01*
X124528514Y-122780548D01*
X124565042Y-122734645D01*
X124619389Y-122620007D01*
X124639074Y-122552968D01*
X124655500Y-122438722D01*
X124655500Y-120176362D01*
X124653176Y-120133013D01*
X124650342Y-120106655D01*
X124645699Y-120075158D01*
X124603065Y-119955668D01*
X124569580Y-119894345D01*
X124569578Y-119894342D01*
X124500419Y-119801956D01*
X124500403Y-119801938D01*
X123948064Y-119249600D01*
X123948051Y-119249587D01*
X123948032Y-119249570D01*
X123948014Y-119249553D01*
X123915758Y-119220580D01*
X123915751Y-119220574D01*
X123895122Y-119203951D01*
X123895121Y-119203950D01*
X123895112Y-119203943D01*
X123869561Y-119184958D01*
X123869559Y-119184957D01*
X123751438Y-119128958D01*
X123699294Y-119082453D01*
X123680570Y-119015139D01*
X123701211Y-118948388D01*
X123754664Y-118903393D01*
X123759072Y-118901556D01*
X123772093Y-118896421D01*
X123892564Y-118805064D01*
X123983920Y-118684595D01*
X124039386Y-118543943D01*
X124050000Y-118455553D01*
X124050000Y-118150000D01*
X121650000Y-118150000D01*
X121650000Y-118455553D01*
X121660613Y-118543943D01*
X121716079Y-118684595D01*
X121807435Y-118805064D01*
X121895301Y-118871696D01*
X121936824Y-118927889D01*
X121941375Y-118997610D01*
X121907510Y-119058724D01*
X121845980Y-119091828D01*
X121820375Y-119094500D01*
X121031826Y-119094500D01*
X121002385Y-119085855D01*
X120972399Y-119079332D01*
X120967383Y-119075577D01*
X120964787Y-119074815D01*
X120944145Y-119058181D01*
X120941819Y-119055855D01*
X120908334Y-118994532D01*
X120905500Y-118968174D01*
X120905500Y-118799037D01*
X120903823Y-118762203D01*
X120903823Y-118762196D01*
X120901776Y-118739758D01*
X120898692Y-118714643D01*
X120859934Y-118593840D01*
X120828444Y-118531469D01*
X120762290Y-118436889D01*
X120598212Y-118261872D01*
X120598189Y-118261848D01*
X120561855Y-118227590D01*
X120561847Y-118227582D01*
X120538425Y-118208078D01*
X120507827Y-118184958D01*
X120507821Y-118184955D01*
X120393193Y-118130612D01*
X120326151Y-118110926D01*
X120326148Y-118110925D01*
X120306351Y-118108079D01*
X120242796Y-118079053D01*
X120205022Y-118020274D01*
X120200000Y-117985341D01*
X120200000Y-117544446D01*
X121650000Y-117544446D01*
X121650000Y-117850000D01*
X122700000Y-117850000D01*
X123000000Y-117850000D01*
X124050000Y-117850000D01*
X124050000Y-117544446D01*
X124039386Y-117456056D01*
X123983920Y-117315404D01*
X123892564Y-117194935D01*
X123772095Y-117103579D01*
X123631443Y-117048113D01*
X123543054Y-117037500D01*
X123000000Y-117037500D01*
X123000000Y-117850000D01*
X122700000Y-117850000D01*
X122700000Y-117037500D01*
X122156946Y-117037500D01*
X122068556Y-117048113D01*
X121927904Y-117103579D01*
X121807435Y-117194935D01*
X121716079Y-117315404D01*
X121660613Y-117456056D01*
X121650000Y-117544446D01*
X120200000Y-117544446D01*
X120200000Y-117199862D01*
X120219685Y-117132823D01*
X120224230Y-117126228D01*
X120276022Y-117056051D01*
X120322068Y-116924462D01*
X120322070Y-116924450D01*
X120325000Y-116893213D01*
X120325000Y-116150000D01*
X119824000Y-116150000D01*
X119815314Y-116147449D01*
X119806353Y-116148738D01*
X119782312Y-116137759D01*
X119756961Y-116130315D01*
X119751033Y-116123474D01*
X119742797Y-116119713D01*
X119728507Y-116097478D01*
X119711206Y-116077511D01*
X119708918Y-116066996D01*
X119705023Y-116060935D01*
X119700000Y-116026000D01*
X119700000Y-115974000D01*
X119719685Y-115906961D01*
X119772489Y-115861206D01*
X119824000Y-115850000D01*
X120324999Y-115850000D01*
X120324999Y-115455553D01*
X121650000Y-115455553D01*
X121660613Y-115543943D01*
X121716079Y-115684595D01*
X121807435Y-115805064D01*
X121927904Y-115896420D01*
X122068556Y-115951886D01*
X122156946Y-115962500D01*
X122700000Y-115962500D01*
X123000000Y-115962500D01*
X123543054Y-115962500D01*
X123631443Y-115951886D01*
X123772095Y-115896420D01*
X123892564Y-115805064D01*
X123983920Y-115684595D01*
X124039386Y-115543943D01*
X124050000Y-115455553D01*
X124650000Y-115455553D01*
X124660613Y-115543943D01*
X124716079Y-115684595D01*
X124807435Y-115805064D01*
X124927904Y-115896420D01*
X125068556Y-115951886D01*
X125156946Y-115962500D01*
X125700000Y-115962500D01*
X126000000Y-115962500D01*
X126543054Y-115962500D01*
X126631443Y-115951886D01*
X126772095Y-115896420D01*
X126892564Y-115805064D01*
X126983920Y-115684595D01*
X127039386Y-115543943D01*
X127050000Y-115455553D01*
X127050000Y-115150000D01*
X126000000Y-115150000D01*
X126000000Y-115962500D01*
X125700000Y-115962500D01*
X125700000Y-115150000D01*
X124650000Y-115150000D01*
X124650000Y-115455553D01*
X124050000Y-115455553D01*
X124050000Y-115150000D01*
X123000000Y-115150000D01*
X123000000Y-115962500D01*
X122700000Y-115962500D01*
X122700000Y-115150000D01*
X121650000Y-115150000D01*
X121650000Y-115455553D01*
X120324999Y-115455553D01*
X120324999Y-115106797D01*
X120322068Y-115075540D01*
X120276022Y-114943948D01*
X120193229Y-114831768D01*
X120193204Y-114831749D01*
X120193181Y-114831719D01*
X120186660Y-114825198D01*
X120187552Y-114824305D01*
X120150956Y-114776100D01*
X120145500Y-114706443D01*
X120178570Y-114644895D01*
X120178767Y-114644697D01*
X120279018Y-114544446D01*
X121650000Y-114544446D01*
X121650000Y-114850000D01*
X122700000Y-114850000D01*
X123000000Y-114850000D01*
X124050000Y-114850000D01*
X124050000Y-114544446D01*
X124650000Y-114544446D01*
X124650000Y-114850000D01*
X125700000Y-114850000D01*
X126000000Y-114850000D01*
X127050000Y-114850000D01*
X127050000Y-114544446D01*
X127039386Y-114456056D01*
X126983920Y-114315404D01*
X126892564Y-114194935D01*
X126772095Y-114103579D01*
X126631443Y-114048113D01*
X126543054Y-114037500D01*
X126000000Y-114037500D01*
X126000000Y-114850000D01*
X125700000Y-114850000D01*
X125700000Y-114037500D01*
X125156946Y-114037500D01*
X125068556Y-114048113D01*
X124927904Y-114103579D01*
X124807435Y-114194935D01*
X124716079Y-114315404D01*
X124660613Y-114456056D01*
X124650000Y-114544446D01*
X124050000Y-114544446D01*
X124039386Y-114456056D01*
X123983920Y-114315404D01*
X123892564Y-114194935D01*
X123772095Y-114103579D01*
X123631443Y-114048113D01*
X123543054Y-114037500D01*
X123000000Y-114037500D01*
X123000000Y-114850000D01*
X122700000Y-114850000D01*
X122700000Y-114037500D01*
X122156946Y-114037500D01*
X122068556Y-114048113D01*
X121927904Y-114103579D01*
X121807435Y-114194935D01*
X121716079Y-114315404D01*
X121660613Y-114456056D01*
X121650000Y-114544446D01*
X120279018Y-114544446D01*
X120500413Y-114323051D01*
X120529423Y-114290754D01*
X120546057Y-114270112D01*
X120565042Y-114244561D01*
X120619389Y-114129923D01*
X120639074Y-114062884D01*
X120655500Y-113948638D01*
X120655500Y-113278326D01*
X120675185Y-113211287D01*
X120727989Y-113165532D01*
X120797147Y-113155588D01*
X120860703Y-113184613D01*
X120867181Y-113190645D01*
X121176949Y-113500413D01*
X121176956Y-113500419D01*
X121176985Y-113500446D01*
X121209241Y-113529419D01*
X121209246Y-113529423D01*
X121229888Y-113546057D01*
X121255439Y-113565042D01*
X121319794Y-113595551D01*
X121370072Y-113619387D01*
X121370074Y-113619387D01*
X121370077Y-113619389D01*
X121437116Y-113639074D01*
X121437120Y-113639074D01*
X121437122Y-113639075D01*
X121452912Y-113641345D01*
X121551362Y-113655500D01*
X121551365Y-113655500D01*
X126698639Y-113655500D01*
X126702709Y-113655281D01*
X126741987Y-113653176D01*
X126768345Y-113650342D01*
X126777962Y-113648924D01*
X126799837Y-113645700D01*
X126799838Y-113645699D01*
X126799842Y-113645699D01*
X126919332Y-113603065D01*
X126980655Y-113569580D01*
X127073051Y-113500413D01*
X127500413Y-113073051D01*
X127529423Y-113040754D01*
X127546057Y-113020112D01*
X127565042Y-112994561D01*
X127598643Y-112923683D01*
X127613454Y-112892443D01*
X127659959Y-112840299D01*
X127727273Y-112821575D01*
X127794024Y-112842216D01*
G37*
%TD.AperFunction*%
%TA.AperFunction,Conductor*%
G36*
X133844186Y-79153050D02*
G01*
X133853148Y-79151762D01*
X133877188Y-79162740D01*
X133902540Y-79170185D01*
X133908467Y-79177025D01*
X133916704Y-79180787D01*
X133930993Y-79203021D01*
X133948295Y-79222989D01*
X133950582Y-79233503D01*
X133954478Y-79239565D01*
X133959501Y-79274500D01*
X133959501Y-79281518D01*
X133974354Y-79375304D01*
X134031950Y-79488342D01*
X134031952Y-79488344D01*
X134031954Y-79488347D01*
X134121652Y-79578045D01*
X134121654Y-79578046D01*
X134121658Y-79578050D01*
X134234694Y-79635645D01*
X134234698Y-79635647D01*
X134328475Y-79650499D01*
X134328481Y-79650500D01*
X134475735Y-79650499D01*
X134542772Y-79670183D01*
X134588527Y-79722987D01*
X134598471Y-79792145D01*
X134569446Y-79855701D01*
X134548619Y-79874816D01*
X134395360Y-79986167D01*
X134395351Y-79986174D01*
X134256174Y-80125351D01*
X134256174Y-80125352D01*
X134256172Y-80125354D01*
X134228132Y-80163948D01*
X134140476Y-80284594D01*
X134051117Y-80459970D01*
X133990290Y-80647173D01*
X133959500Y-80841577D01*
X133959500Y-81038422D01*
X133990290Y-81232826D01*
X134051117Y-81420029D01*
X134140476Y-81595405D01*
X134256172Y-81754646D01*
X134395354Y-81893828D01*
X134554595Y-82009524D01*
X134667183Y-82066890D01*
X134731213Y-82099515D01*
X134782009Y-82147489D01*
X134798804Y-82215310D01*
X134776267Y-82281445D01*
X134731213Y-82320485D01*
X134554594Y-82410476D01*
X134499507Y-82450500D01*
X134395354Y-82526172D01*
X134395352Y-82526174D01*
X134395351Y-82526174D01*
X134256174Y-82665351D01*
X134256174Y-82665352D01*
X134256172Y-82665354D01*
X134206485Y-82733741D01*
X134140476Y-82824594D01*
X134051117Y-82999970D01*
X133990290Y-83187173D01*
X133959500Y-83381577D01*
X133959500Y-83578422D01*
X133990290Y-83772826D01*
X134051117Y-83960029D01*
X134136389Y-84127384D01*
X134140476Y-84135405D01*
X134256172Y-84294646D01*
X134395354Y-84433828D01*
X134554595Y-84549524D01*
X134635948Y-84590975D01*
X134731213Y-84639515D01*
X134782009Y-84687489D01*
X134798804Y-84755310D01*
X134776267Y-84821445D01*
X134731213Y-84860485D01*
X134554594Y-84950476D01*
X134470538Y-85011547D01*
X134395354Y-85066172D01*
X134395352Y-85066174D01*
X134395351Y-85066174D01*
X134256174Y-85205351D01*
X134256174Y-85205352D01*
X134256172Y-85205354D01*
X134216635Y-85259772D01*
X134140476Y-85364594D01*
X134051117Y-85539970D01*
X133990290Y-85727173D01*
X133959500Y-85921577D01*
X133959500Y-86118422D01*
X133990290Y-86312826D01*
X134051117Y-86500029D01*
X134135524Y-86665686D01*
X134140476Y-86675405D01*
X134256172Y-86834646D01*
X134395354Y-86973828D01*
X134554595Y-87089524D01*
X134574985Y-87099913D01*
X134729970Y-87178882D01*
X134729972Y-87178882D01*
X134729975Y-87178884D01*
X134847171Y-87216963D01*
X134871612Y-87224905D01*
X134929287Y-87264343D01*
X134956485Y-87328702D01*
X134944570Y-87397548D01*
X134897326Y-87449024D01*
X134871611Y-87460767D01*
X134768555Y-87494251D01*
X134768552Y-87494252D01*
X134607265Y-87576434D01*
X134509556Y-87647423D01*
X134509556Y-87647425D01*
X134978460Y-88116329D01*
X134902993Y-88159901D01*
X134809901Y-88252993D01*
X134766329Y-88328460D01*
X134297425Y-87859556D01*
X134297423Y-87859556D01*
X134226434Y-87957265D01*
X134144252Y-88118552D01*
X134144251Y-88118555D01*
X134088317Y-88290706D01*
X134060000Y-88469493D01*
X134060000Y-88650506D01*
X134088317Y-88829293D01*
X134144251Y-89001444D01*
X134144252Y-89001447D01*
X134226432Y-89162731D01*
X134297424Y-89260442D01*
X134297424Y-89260443D01*
X134766328Y-88791538D01*
X134809901Y-88867007D01*
X134902993Y-88960099D01*
X134978459Y-89003669D01*
X134509555Y-89472574D01*
X134607268Y-89543567D01*
X134768552Y-89625747D01*
X134768558Y-89625749D01*
X134871610Y-89659232D01*
X134929286Y-89698669D01*
X134956485Y-89763027D01*
X134944571Y-89831874D01*
X134897327Y-89883350D01*
X134871613Y-89895094D01*
X134729969Y-89941118D01*
X134554594Y-90030476D01*
X134463741Y-90096485D01*
X134395354Y-90146172D01*
X134395352Y-90146174D01*
X134395351Y-90146174D01*
X134256174Y-90285351D01*
X134256174Y-90285352D01*
X134256172Y-90285354D01*
X134208771Y-90350596D01*
X134140476Y-90444594D01*
X134051117Y-90619970D01*
X133990290Y-90807173D01*
X133959500Y-91001577D01*
X133959500Y-91198422D01*
X133981355Y-91336410D01*
X133972400Y-91405704D01*
X133946563Y-91443489D01*
X130244722Y-95145331D01*
X130232069Y-95164269D01*
X130219470Y-95183126D01*
X130202673Y-95208265D01*
X130173534Y-95251873D01*
X130124499Y-95370255D01*
X130124497Y-95370261D01*
X130099500Y-95495928D01*
X130099500Y-131429191D01*
X130079815Y-131496230D01*
X130063181Y-131516872D01*
X125494727Y-136085325D01*
X125494726Y-136085326D01*
X125494723Y-136085331D01*
X125456165Y-136143039D01*
X125454928Y-136144890D01*
X125401315Y-136189696D01*
X125351825Y-136200000D01*
X124774500Y-136200000D01*
X124707461Y-136180315D01*
X124661706Y-136127511D01*
X124650500Y-136076000D01*
X124650500Y-129320808D01*
X124670185Y-129253769D01*
X124686819Y-129233127D01*
X129005273Y-124914673D01*
X129005277Y-124914669D01*
X129076465Y-124808127D01*
X129125501Y-124689744D01*
X129135508Y-124639435D01*
X129150500Y-124564069D01*
X129150500Y-97435931D01*
X129150500Y-97435928D01*
X129125502Y-97310261D01*
X129125501Y-97310260D01*
X129125501Y-97310256D01*
X129076465Y-97191873D01*
X129075042Y-97189744D01*
X129005277Y-97085331D01*
X129005275Y-97085329D01*
X129005273Y-97085326D01*
X129005272Y-97085325D01*
X128752601Y-96832655D01*
X128724853Y-96786357D01*
X128723989Y-96786715D01*
X128665087Y-96644511D01*
X128665080Y-96644498D01*
X128582951Y-96521584D01*
X128582948Y-96521580D01*
X128478419Y-96417051D01*
X128478415Y-96417048D01*
X128355501Y-96334919D01*
X128355488Y-96334912D01*
X128218917Y-96278343D01*
X128218907Y-96278340D01*
X128112361Y-96257146D01*
X128050450Y-96224760D01*
X128015876Y-96164044D01*
X128019617Y-96094275D01*
X128048870Y-96047851D01*
X131352370Y-92744353D01*
X131437239Y-92617337D01*
X131495698Y-92476205D01*
X131498427Y-92462485D01*
X131512945Y-92389500D01*
X131525500Y-92326382D01*
X131525500Y-79324000D01*
X131545185Y-79256961D01*
X131597989Y-79211206D01*
X131649500Y-79200000D01*
X132704135Y-79200000D01*
X132751587Y-79209438D01*
X132781087Y-79221658D01*
X132781091Y-79221658D01*
X132781092Y-79221659D01*
X132926079Y-79250500D01*
X132926082Y-79250500D01*
X133073920Y-79250500D01*
X133171462Y-79231096D01*
X133218913Y-79221658D01*
X133355495Y-79165084D01*
X133355496Y-79165083D01*
X133361122Y-79162753D01*
X133361479Y-79163614D01*
X133413840Y-79150500D01*
X133835501Y-79150500D01*
X133844186Y-79153050D01*
G37*
%TD.AperFunction*%
%TA.AperFunction,Conductor*%
G36*
X137003736Y-70500726D02*
G01*
X137293796Y-70518271D01*
X137308659Y-70520076D01*
X137590798Y-70571780D01*
X137605335Y-70575363D01*
X137879172Y-70660695D01*
X137893163Y-70666000D01*
X138154743Y-70783727D01*
X138167989Y-70790680D01*
X138413465Y-70939075D01*
X138425776Y-70947573D01*
X138651573Y-71124473D01*
X138662781Y-71134403D01*
X138865596Y-71337218D01*
X138875526Y-71348426D01*
X138995481Y-71501538D01*
X139052422Y-71574217D01*
X139060928Y-71586540D01*
X139209316Y-71832004D01*
X139216275Y-71845263D01*
X139333997Y-72106831D01*
X139339306Y-72120832D01*
X139424635Y-72394663D01*
X139428219Y-72409201D01*
X139479923Y-72691340D01*
X139481728Y-72706205D01*
X139499274Y-72996263D01*
X139499500Y-73003750D01*
X139499500Y-131996249D01*
X139499274Y-132003736D01*
X139481728Y-132293794D01*
X139479923Y-132308659D01*
X139428219Y-132590798D01*
X139424635Y-132605336D01*
X139339306Y-132879167D01*
X139333997Y-132893168D01*
X139216275Y-133154736D01*
X139209316Y-133167995D01*
X139060928Y-133413459D01*
X139052422Y-133425782D01*
X138875526Y-133651573D01*
X138865596Y-133662781D01*
X138662781Y-133865596D01*
X138651573Y-133875526D01*
X138425782Y-134052422D01*
X138413459Y-134060928D01*
X138167995Y-134209316D01*
X138154736Y-134216275D01*
X137893168Y-134333997D01*
X137879167Y-134339306D01*
X137605336Y-134424635D01*
X137590798Y-134428219D01*
X137308659Y-134479923D01*
X137293794Y-134481728D01*
X137003736Y-134499274D01*
X136996249Y-134499500D01*
X136065892Y-134499500D01*
X136000000Y-134499500D01*
X135828031Y-134499500D01*
X135749966Y-134507188D01*
X135485750Y-134533210D01*
X135148427Y-134600308D01*
X134819293Y-134700150D01*
X134501535Y-134831770D01*
X134501530Y-134831772D01*
X134198224Y-134993893D01*
X134198206Y-134993904D01*
X133912248Y-135184975D01*
X133912234Y-135184985D01*
X133646367Y-135403176D01*
X133403176Y-135646367D01*
X133184985Y-135912234D01*
X133184975Y-135912248D01*
X132993904Y-136198206D01*
X132993893Y-136198224D01*
X132831772Y-136501530D01*
X132831770Y-136501535D01*
X132700150Y-136819293D01*
X132600308Y-137148427D01*
X132533210Y-137485750D01*
X132499500Y-137828034D01*
X132499500Y-141996249D01*
X132499274Y-142003736D01*
X132481728Y-142293794D01*
X132479923Y-142308659D01*
X132428219Y-142590798D01*
X132424635Y-142605336D01*
X132339306Y-142879167D01*
X132333997Y-142893168D01*
X132216275Y-143154736D01*
X132209316Y-143167995D01*
X132060928Y-143413459D01*
X132052422Y-143425782D01*
X131875526Y-143651573D01*
X131865596Y-143662781D01*
X131662781Y-143865596D01*
X131651573Y-143875526D01*
X131425782Y-144052422D01*
X131413459Y-144060928D01*
X131167995Y-144209316D01*
X131154736Y-144216275D01*
X130893168Y-144333997D01*
X130879167Y-144339306D01*
X130605336Y-144424635D01*
X130590798Y-144428219D01*
X130308659Y-144479923D01*
X130293794Y-144481728D01*
X130003736Y-144499274D01*
X129996249Y-144499500D01*
X120003751Y-144499500D01*
X119996264Y-144499274D01*
X119706205Y-144481728D01*
X119691340Y-144479923D01*
X119409201Y-144428219D01*
X119394663Y-144424635D01*
X119120832Y-144339306D01*
X119106831Y-144333997D01*
X118845263Y-144216275D01*
X118832004Y-144209316D01*
X118586540Y-144060928D01*
X118574217Y-144052422D01*
X118348426Y-143875526D01*
X118337218Y-143865596D01*
X118134403Y-143662781D01*
X118124473Y-143651573D01*
X117947573Y-143425776D01*
X117939075Y-143413465D01*
X117790680Y-143167989D01*
X117783727Y-143154743D01*
X117666000Y-142893163D01*
X117660693Y-142879167D01*
X117575364Y-142605336D01*
X117571780Y-142590798D01*
X117520076Y-142308659D01*
X117518271Y-142293794D01*
X117500726Y-142003736D01*
X117500500Y-141996249D01*
X117500500Y-137828034D01*
X117466789Y-137485750D01*
X117399691Y-137148427D01*
X117399690Y-137148426D01*
X117399690Y-137148422D01*
X117299850Y-136819295D01*
X117168231Y-136501538D01*
X117006100Y-136198213D01*
X116815019Y-135912240D01*
X116596828Y-135646373D01*
X116596827Y-135646372D01*
X116596823Y-135646367D01*
X116353632Y-135403176D01*
X116087765Y-135184985D01*
X116087764Y-135184984D01*
X116087760Y-135184981D01*
X115801787Y-134993900D01*
X115801782Y-134993897D01*
X115801775Y-134993893D01*
X115498469Y-134831772D01*
X115498464Y-134831770D01*
X115180706Y-134700150D01*
X114851572Y-134600308D01*
X114514248Y-134533210D01*
X114514249Y-134533210D01*
X114256456Y-134507821D01*
X114171969Y-134499500D01*
X114171966Y-134499500D01*
X113003751Y-134499500D01*
X112996264Y-134499274D01*
X112706205Y-134481728D01*
X112691340Y-134479923D01*
X112409201Y-134428219D01*
X112394663Y-134424635D01*
X112120832Y-134339306D01*
X112106831Y-134333997D01*
X111845263Y-134216275D01*
X111832004Y-134209316D01*
X111586540Y-134060928D01*
X111574217Y-134052422D01*
X111348426Y-133875526D01*
X111337218Y-133865596D01*
X111134403Y-133662781D01*
X111124473Y-133651573D01*
X111075077Y-133588524D01*
X110947573Y-133425776D01*
X110939075Y-133413465D01*
X110790680Y-133167989D01*
X110783727Y-133154743D01*
X110666000Y-132893163D01*
X110660693Y-132879167D01*
X110652226Y-132851996D01*
X110575363Y-132605335D01*
X110571780Y-132590798D01*
X110520076Y-132308659D01*
X110518271Y-132293794D01*
X110510460Y-132164668D01*
X110500726Y-132003736D01*
X110500500Y-131996249D01*
X110500500Y-122993053D01*
X113200000Y-122993053D01*
X113210613Y-123081443D01*
X113266079Y-123222095D01*
X113357435Y-123342564D01*
X113477904Y-123433920D01*
X113618556Y-123489386D01*
X113706946Y-123500000D01*
X113950000Y-123500000D01*
X113950000Y-122650000D01*
X113200000Y-122650000D01*
X113200000Y-122993053D01*
X110500500Y-122993053D01*
X110500500Y-122006946D01*
X113200000Y-122006946D01*
X113200000Y-122350000D01*
X113950000Y-122350000D01*
X113950000Y-121500000D01*
X113706946Y-121500000D01*
X113618556Y-121510613D01*
X113477904Y-121566079D01*
X113357435Y-121657435D01*
X113266079Y-121777904D01*
X113210613Y-121918556D01*
X113200000Y-122006946D01*
X110500500Y-122006946D01*
X110500500Y-83045605D01*
X112324500Y-83045605D01*
X112324500Y-84354403D01*
X112338988Y-84464463D01*
X112338991Y-84464472D01*
X112395719Y-84601426D01*
X112395721Y-84601429D01*
X112473876Y-84703283D01*
X112499070Y-84768452D01*
X112499500Y-84778769D01*
X112499500Y-87977526D01*
X112499500Y-88122474D01*
X112509529Y-88159901D01*
X112537016Y-88262485D01*
X112609489Y-88388013D01*
X112609491Y-88388016D01*
X113313083Y-89091608D01*
X113346568Y-89152931D01*
X113341584Y-89222623D01*
X113313083Y-89266970D01*
X112544724Y-90035329D01*
X112544723Y-90035331D01*
X112495206Y-90109441D01*
X112495173Y-90109490D01*
X112495171Y-90109492D01*
X112473539Y-90141864D01*
X112473533Y-90141875D01*
X112424499Y-90260255D01*
X112424497Y-90260261D01*
X112399500Y-90385928D01*
X112399500Y-103614071D01*
X112416908Y-103701583D01*
X112416908Y-103701584D01*
X112424497Y-103739737D01*
X112424498Y-103739742D01*
X112469245Y-103847769D01*
X112473535Y-103858127D01*
X112536087Y-103951744D01*
X112544726Y-103964673D01*
X112544727Y-103964674D01*
X117462873Y-108882819D01*
X117496358Y-108944142D01*
X117491374Y-109013834D01*
X117449502Y-109069767D01*
X117384038Y-109094184D01*
X117375192Y-109094500D01*
X117301361Y-109094500D01*
X117258003Y-109096824D01*
X117231648Y-109099658D01*
X117200162Y-109104299D01*
X117126419Y-109130611D01*
X117080668Y-109146935D01*
X117080666Y-109146935D01*
X117080663Y-109146937D01*
X117019350Y-109180416D01*
X117019342Y-109180421D01*
X116926956Y-109249580D01*
X116926938Y-109249596D01*
X116499600Y-109676935D01*
X116499553Y-109676985D01*
X116470580Y-109709241D01*
X116470574Y-109709248D01*
X116453951Y-109729877D01*
X116434957Y-109755440D01*
X116380612Y-109870072D01*
X116360926Y-109937114D01*
X116360924Y-109937122D01*
X116344500Y-110051361D01*
X116344500Y-110063000D01*
X116324815Y-110130039D01*
X116272011Y-110175794D01*
X116220500Y-110187000D01*
X116098429Y-110187000D01*
X115972761Y-110211997D01*
X115972755Y-110211999D01*
X115854370Y-110261035D01*
X115747831Y-110332222D01*
X115747824Y-110332228D01*
X113744724Y-112335328D01*
X113689510Y-112417962D01*
X113689511Y-112417963D01*
X113673536Y-112441871D01*
X113673533Y-112441877D01*
X113624499Y-112560255D01*
X113624497Y-112560261D01*
X113599500Y-112685928D01*
X113599500Y-112685931D01*
X113599500Y-117814069D01*
X113612711Y-117880485D01*
X113612837Y-117881115D01*
X113612837Y-117881117D01*
X113624497Y-117939736D01*
X113624499Y-117939744D01*
X113663537Y-118033991D01*
X113673535Y-118058127D01*
X113733025Y-118147161D01*
X113744726Y-118164673D01*
X115505325Y-119925272D01*
X115505332Y-119925278D01*
X115546184Y-119952574D01*
X115611874Y-119996466D01*
X115681221Y-120025189D01*
X115730256Y-120045501D01*
X115730259Y-120045501D01*
X115730260Y-120045502D01*
X115855928Y-120070500D01*
X115855931Y-120070500D01*
X116950501Y-120070500D01*
X117017540Y-120090185D01*
X117063295Y-120142989D01*
X117074501Y-120194500D01*
X117074501Y-120294403D01*
X117088988Y-120404463D01*
X117088991Y-120404472D01*
X117132900Y-120510478D01*
X117145721Y-120541429D01*
X117235964Y-120659036D01*
X117353571Y-120749279D01*
X117490528Y-120806009D01*
X117600599Y-120820500D01*
X117975500Y-120820499D01*
X118042539Y-120840183D01*
X118088294Y-120892987D01*
X118099500Y-120944499D01*
X118099500Y-121709369D01*
X118090855Y-121738809D01*
X118084332Y-121768796D01*
X118080577Y-121773811D01*
X118079815Y-121776408D01*
X118063181Y-121797050D01*
X118047050Y-121813181D01*
X117985727Y-121846666D01*
X117959369Y-121849500D01*
X117157896Y-121849500D01*
X117090857Y-121829815D01*
X117051164Y-121788621D01*
X116968083Y-121648138D01*
X116968076Y-121648129D01*
X116851870Y-121531923D01*
X116851862Y-121531917D01*
X116710396Y-121448255D01*
X116710393Y-121448254D01*
X116552573Y-121402402D01*
X116552567Y-121402401D01*
X116515701Y-121399500D01*
X116515694Y-121399500D01*
X115684306Y-121399500D01*
X115684298Y-121399500D01*
X115647432Y-121402401D01*
X115647426Y-121402402D01*
X115489606Y-121448254D01*
X115489603Y-121448255D01*
X115348137Y-121531917D01*
X115348129Y-121531923D01*
X115231923Y-121648129D01*
X115231916Y-121648138D01*
X115151198Y-121784626D01*
X115100129Y-121832310D01*
X115031387Y-121844813D01*
X114966798Y-121818167D01*
X114936379Y-121782277D01*
X114933921Y-121777906D01*
X114842564Y-121657435D01*
X114722095Y-121566079D01*
X114581443Y-121510613D01*
X114493054Y-121500000D01*
X114250000Y-121500000D01*
X114250000Y-123500000D01*
X114493054Y-123500000D01*
X114581443Y-123489386D01*
X114722095Y-123433920D01*
X114842564Y-123342564D01*
X114933921Y-123222093D01*
X114936377Y-123217726D01*
X114986389Y-123168935D01*
X115054841Y-123154929D01*
X115119998Y-123180153D01*
X115151198Y-123215373D01*
X115231916Y-123351861D01*
X115231923Y-123351870D01*
X115348129Y-123468076D01*
X115348133Y-123468079D01*
X115348135Y-123468081D01*
X115489602Y-123551744D01*
X115531224Y-123563836D01*
X115647426Y-123597597D01*
X115647429Y-123597597D01*
X115647431Y-123597598D01*
X115684306Y-123600500D01*
X115684314Y-123600500D01*
X116515686Y-123600500D01*
X116515694Y-123600500D01*
X116552569Y-123597598D01*
X116552571Y-123597597D01*
X116552573Y-123597597D01*
X116594191Y-123585505D01*
X116710398Y-123551744D01*
X116851865Y-123468081D01*
X116968081Y-123351865D01*
X117044298Y-123222989D01*
X117051164Y-123211379D01*
X117102233Y-123163696D01*
X117157896Y-123150500D01*
X117804824Y-123150500D01*
X117871863Y-123170185D01*
X117917618Y-123222989D01*
X117927562Y-123292147D01*
X117898537Y-123355703D01*
X117846496Y-123391287D01*
X117830668Y-123396935D01*
X117830666Y-123396935D01*
X117830663Y-123396937D01*
X117769350Y-123430416D01*
X117769342Y-123430421D01*
X117676956Y-123499580D01*
X117676938Y-123499596D01*
X117499601Y-123676934D01*
X117499553Y-123676985D01*
X117470580Y-123709241D01*
X117470574Y-123709248D01*
X117453951Y-123729877D01*
X117434957Y-123755440D01*
X117380612Y-123870072D01*
X117360926Y-123937114D01*
X117360924Y-123937122D01*
X117344500Y-124051361D01*
X117344500Y-125448638D01*
X117346824Y-125491996D01*
X117349658Y-125518351D01*
X117354299Y-125549837D01*
X117354301Y-125549842D01*
X117396935Y-125669332D01*
X117396936Y-125669335D01*
X117396937Y-125669336D01*
X117430416Y-125730649D01*
X117430421Y-125730657D01*
X117499580Y-125823043D01*
X117499596Y-125823061D01*
X117636092Y-125959556D01*
X117676949Y-126000413D01*
X117676961Y-126000424D01*
X117676977Y-126000439D01*
X117709241Y-126029419D01*
X117709246Y-126029423D01*
X117729888Y-126046057D01*
X117755439Y-126065042D01*
X117778616Y-126076029D01*
X117830761Y-126122533D01*
X117849500Y-126188077D01*
X117849500Y-133338696D01*
X117884103Y-133512658D01*
X117884105Y-133512666D01*
X117915526Y-133588524D01*
X117915529Y-133588529D01*
X117918046Y-133594606D01*
X117951987Y-133676547D01*
X118011063Y-133764959D01*
X118014169Y-133769607D01*
X118014172Y-133769613D01*
X118050534Y-133824034D01*
X121063181Y-136836681D01*
X121096666Y-136898004D01*
X121099500Y-136924362D01*
X121099500Y-139244597D01*
X121079815Y-139311636D01*
X121031796Y-139355081D01*
X120974159Y-139384449D01*
X120974152Y-139384454D01*
X120884454Y-139474152D01*
X120884451Y-139474157D01*
X120884450Y-139474158D01*
X120869160Y-139504166D01*
X120826852Y-139587198D01*
X120812000Y-139680975D01*
X120812000Y-141319017D01*
X120818709Y-141361377D01*
X120826854Y-141412804D01*
X120884450Y-141525842D01*
X120884452Y-141525844D01*
X120884454Y-141525847D01*
X120974152Y-141615545D01*
X120974154Y-141615546D01*
X120974158Y-141615550D01*
X121087194Y-141673145D01*
X121087198Y-141673147D01*
X121180975Y-141687999D01*
X121180981Y-141688000D01*
X122819018Y-141687999D01*
X122912804Y-141673146D01*
X123025842Y-141615550D01*
X123115550Y-141525842D01*
X123124004Y-141509249D01*
X123171975Y-141458455D01*
X123239795Y-141441658D01*
X123305931Y-141464193D01*
X123307374Y-141465227D01*
X123377347Y-141516066D01*
X123377349Y-141516067D01*
X123377352Y-141516069D01*
X123452719Y-141554470D01*
X123543961Y-141600961D01*
X123543963Y-141600961D01*
X123543966Y-141600963D01*
X123639293Y-141631936D01*
X123721808Y-141658748D01*
X123906497Y-141688000D01*
X123906502Y-141688000D01*
X124093503Y-141688000D01*
X124278191Y-141658748D01*
X124456034Y-141600963D01*
X124622648Y-141516069D01*
X124773930Y-141406156D01*
X124906156Y-141273930D01*
X124906156Y-141273929D01*
X124909601Y-141270485D01*
X124910466Y-141271350D01*
X124964205Y-141236262D01*
X125034073Y-141235756D01*
X125089850Y-141271033D01*
X125090399Y-141270485D01*
X125092837Y-141272923D01*
X125093123Y-141273104D01*
X125093800Y-141273886D01*
X125093844Y-141273930D01*
X125226070Y-141406156D01*
X125377352Y-141516069D01*
X125456069Y-141556177D01*
X125543961Y-141600961D01*
X125543963Y-141600961D01*
X125543966Y-141600963D01*
X125639293Y-141631936D01*
X125721808Y-141658748D01*
X125906497Y-141688000D01*
X125906502Y-141688000D01*
X126093503Y-141688000D01*
X126278191Y-141658748D01*
X126456034Y-141600963D01*
X126622648Y-141516069D01*
X126773930Y-141406156D01*
X126906156Y-141273930D01*
X126961796Y-141197347D01*
X127017122Y-141154685D01*
X127086735Y-141148706D01*
X127094345Y-141152721D01*
X127132168Y-141155698D01*
X127538027Y-140749839D01*
X127579896Y-140822357D01*
X127677643Y-140920104D01*
X127750159Y-140961971D01*
X127344300Y-141367830D01*
X127430025Y-141430113D01*
X127582544Y-141507825D01*
X127582547Y-141507827D01*
X127745341Y-141560721D01*
X127914413Y-141587500D01*
X128085587Y-141587500D01*
X128254658Y-141560721D01*
X128417452Y-141507827D01*
X128417455Y-141507825D01*
X128569966Y-141430117D01*
X128569972Y-141430113D01*
X128655697Y-141367830D01*
X128655698Y-141367829D01*
X128249840Y-140961971D01*
X128322357Y-140920104D01*
X128420104Y-140822357D01*
X128461971Y-140749840D01*
X128867829Y-141155698D01*
X128867830Y-141155697D01*
X128930113Y-141069972D01*
X128930117Y-141069966D01*
X129007825Y-140917455D01*
X129007827Y-140917452D01*
X129060721Y-140754658D01*
X129087500Y-140585587D01*
X129087500Y-140414412D01*
X129060721Y-140245341D01*
X129007827Y-140082547D01*
X129007825Y-140082544D01*
X128930113Y-139930025D01*
X128867830Y-139844301D01*
X128867830Y-139844300D01*
X128461971Y-140250159D01*
X128420104Y-140177643D01*
X128322357Y-140079896D01*
X128249839Y-140038027D01*
X128655698Y-139632168D01*
X128655697Y-139632166D01*
X128569977Y-139569888D01*
X128417455Y-139492174D01*
X128417452Y-139492172D01*
X128254658Y-139439278D01*
X128085587Y-139412500D01*
X127914413Y-139412500D01*
X127745341Y-139439278D01*
X127582547Y-139492172D01*
X127582544Y-139492173D01*
X127430027Y-139569885D01*
X127344301Y-139632168D01*
X127750160Y-140038027D01*
X127677643Y-140079896D01*
X127579896Y-140177643D01*
X127538027Y-140250160D01*
X127132168Y-139844301D01*
X127075180Y-139848787D01*
X127075158Y-139848514D01*
X127051499Y-139853308D01*
X127044716Y-139850667D01*
X127037464Y-139851289D01*
X127012596Y-139838162D01*
X126986390Y-139827959D01*
X126979145Y-139820503D01*
X126975675Y-139818672D01*
X126961793Y-139802648D01*
X126925222Y-139752312D01*
X126906870Y-139727053D01*
X126906156Y-139726070D01*
X126773930Y-139593844D01*
X126740954Y-139569885D01*
X126701614Y-139541302D01*
X126658948Y-139485972D01*
X126650500Y-139440985D01*
X126650500Y-136820808D01*
X126670185Y-136753769D01*
X126686819Y-136733127D01*
X131255271Y-132164675D01*
X131255276Y-132164670D01*
X131326465Y-132058127D01*
X131375501Y-131939744D01*
X131376622Y-131934108D01*
X131400500Y-131814069D01*
X131400500Y-102096777D01*
X131420185Y-102029738D01*
X131472989Y-101983983D01*
X131542147Y-101974039D01*
X131548692Y-101975160D01*
X131676079Y-102000500D01*
X131676082Y-102000500D01*
X131823920Y-102000500D01*
X131921462Y-101981096D01*
X131968913Y-101971658D01*
X132098325Y-101918054D01*
X132105488Y-101915087D01*
X132105488Y-101915086D01*
X132105495Y-101915084D01*
X132125937Y-101901425D01*
X132230741Y-101831398D01*
X132297419Y-101810520D01*
X132299632Y-101810500D01*
X134011038Y-101810500D01*
X134078077Y-101830185D01*
X134121521Y-101878204D01*
X134140314Y-101915087D01*
X134140477Y-101915406D01*
X134140478Y-101915409D01*
X134159874Y-101942104D01*
X134256172Y-102074646D01*
X134395354Y-102213828D01*
X134554595Y-102329524D01*
X134672507Y-102389603D01*
X134731213Y-102419515D01*
X134782009Y-102467489D01*
X134798804Y-102535310D01*
X134776267Y-102601445D01*
X134731213Y-102640485D01*
X134554594Y-102730476D01*
X134463741Y-102796485D01*
X134395354Y-102846172D01*
X134395352Y-102846174D01*
X134395351Y-102846174D01*
X134256174Y-102985351D01*
X134256174Y-102985352D01*
X134256172Y-102985354D01*
X134206485Y-103053741D01*
X134140476Y-103144594D01*
X134051117Y-103319970D01*
X133990290Y-103507173D01*
X133959500Y-103701577D01*
X133959500Y-103898422D01*
X133990290Y-104092826D01*
X134051117Y-104280029D01*
X134106948Y-104389602D01*
X134140476Y-104455405D01*
X134256172Y-104614646D01*
X134395354Y-104753828D01*
X134554595Y-104869524D01*
X134677992Y-104932397D01*
X134731213Y-104959515D01*
X134782009Y-105007489D01*
X134798804Y-105075310D01*
X134776267Y-105141445D01*
X134731213Y-105180485D01*
X134554594Y-105270476D01*
X134463741Y-105336485D01*
X134395354Y-105386172D01*
X134395352Y-105386174D01*
X134395351Y-105386174D01*
X134256174Y-105525351D01*
X134256174Y-105525352D01*
X134256172Y-105525354D01*
X134224181Y-105569386D01*
X134140476Y-105684594D01*
X134051117Y-105859970D01*
X133990290Y-106047173D01*
X133959500Y-106241577D01*
X133959500Y-106438422D01*
X133990290Y-106632826D01*
X134051117Y-106820029D01*
X134100369Y-106916691D01*
X134140476Y-106995405D01*
X134256172Y-107154646D01*
X134395354Y-107293828D01*
X134554595Y-107409524D01*
X134574985Y-107419913D01*
X134729970Y-107498882D01*
X134729972Y-107498882D01*
X134729975Y-107498884D01*
X134847171Y-107536963D01*
X134871612Y-107544905D01*
X134929287Y-107584343D01*
X134956485Y-107648702D01*
X134944570Y-107717548D01*
X134897326Y-107769024D01*
X134871611Y-107780767D01*
X134768555Y-107814251D01*
X134768552Y-107814252D01*
X134607265Y-107896434D01*
X134509556Y-107967423D01*
X134509556Y-107967425D01*
X134978460Y-108436329D01*
X134902993Y-108479901D01*
X134809901Y-108572993D01*
X134766329Y-108648460D01*
X134297425Y-108179556D01*
X134297423Y-108179556D01*
X134226434Y-108277265D01*
X134144252Y-108438552D01*
X134144251Y-108438555D01*
X134088317Y-108610706D01*
X134060000Y-108789493D01*
X134060000Y-108970506D01*
X134088317Y-109149293D01*
X134144251Y-109321444D01*
X134144252Y-109321447D01*
X134226432Y-109482731D01*
X134297424Y-109580442D01*
X134297424Y-109580443D01*
X134766328Y-109111538D01*
X134809901Y-109187007D01*
X134902993Y-109280099D01*
X134978459Y-109323669D01*
X134509555Y-109792574D01*
X134607268Y-109863567D01*
X134768552Y-109945747D01*
X134768558Y-109945749D01*
X134871610Y-109979232D01*
X134929286Y-110018669D01*
X134956485Y-110083027D01*
X134944571Y-110151874D01*
X134897327Y-110203350D01*
X134871613Y-110215094D01*
X134729969Y-110261118D01*
X134554594Y-110350476D01*
X134463741Y-110416485D01*
X134395354Y-110466172D01*
X134395352Y-110466174D01*
X134395351Y-110466174D01*
X134256174Y-110605351D01*
X134256174Y-110605352D01*
X134256172Y-110605354D01*
X134206485Y-110673741D01*
X134140476Y-110764594D01*
X134051117Y-110939970D01*
X133990290Y-111127173D01*
X133959500Y-111321577D01*
X133959500Y-111518422D01*
X133990290Y-111712826D01*
X134051117Y-111900029D01*
X134140476Y-112075405D01*
X134256172Y-112234646D01*
X134395354Y-112373828D01*
X134554595Y-112489524D01*
X134648874Y-112537561D01*
X134731213Y-112579515D01*
X134782009Y-112627489D01*
X134798804Y-112695310D01*
X134776267Y-112761445D01*
X134731213Y-112800485D01*
X134554594Y-112890476D01*
X134547447Y-112895669D01*
X134395354Y-113006172D01*
X134395352Y-113006174D01*
X134395351Y-113006174D01*
X134256174Y-113145351D01*
X134256174Y-113145352D01*
X134256172Y-113145354D01*
X134248737Y-113155588D01*
X134140476Y-113304594D01*
X134051117Y-113479970D01*
X133990290Y-113667173D01*
X133959500Y-113861577D01*
X133959500Y-114058422D01*
X133990290Y-114252826D01*
X134051117Y-114440029D01*
X134113637Y-114562730D01*
X134140476Y-114615405D01*
X134256172Y-114774646D01*
X134395354Y-114913828D01*
X134554595Y-115029524D01*
X134671921Y-115089304D01*
X134731213Y-115119515D01*
X134782009Y-115167489D01*
X134798804Y-115235310D01*
X134776267Y-115301445D01*
X134731213Y-115340485D01*
X134554594Y-115430476D01*
X134472128Y-115490392D01*
X134395354Y-115546172D01*
X134395352Y-115546174D01*
X134395351Y-115546174D01*
X134256174Y-115685351D01*
X134256174Y-115685352D01*
X134256172Y-115685354D01*
X134206485Y-115753741D01*
X134140476Y-115844594D01*
X134051117Y-116019970D01*
X133990290Y-116207173D01*
X133959500Y-116401577D01*
X133959500Y-116598422D01*
X133990290Y-116792826D01*
X134051117Y-116980029D01*
X134128970Y-117132823D01*
X134140476Y-117155405D01*
X134256172Y-117314646D01*
X134395354Y-117453828D01*
X134554595Y-117569524D01*
X134665030Y-117625793D01*
X134731213Y-117659515D01*
X134782009Y-117707489D01*
X134798804Y-117775310D01*
X134776267Y-117841445D01*
X134731213Y-117880485D01*
X134554594Y-117970476D01*
X134487118Y-118019501D01*
X134395354Y-118086172D01*
X134395352Y-118086174D01*
X134395351Y-118086174D01*
X134256174Y-118225351D01*
X134256174Y-118225352D01*
X134256172Y-118225354D01*
X134229655Y-118261851D01*
X134140476Y-118384594D01*
X134051117Y-118559970D01*
X133990290Y-118747173D01*
X133959500Y-118941577D01*
X133959500Y-119138422D01*
X133990290Y-119332826D01*
X134051117Y-119520029D01*
X134113637Y-119642730D01*
X134140476Y-119695405D01*
X134256172Y-119854646D01*
X134395354Y-119993828D01*
X134554595Y-120109524D01*
X134635948Y-120150975D01*
X134731213Y-120199515D01*
X134782009Y-120247489D01*
X134798804Y-120315310D01*
X134776267Y-120381445D01*
X134731213Y-120420485D01*
X134554594Y-120510476D01*
X134511992Y-120541429D01*
X134395354Y-120626172D01*
X134395352Y-120626174D01*
X134395351Y-120626174D01*
X134256174Y-120765351D01*
X134256174Y-120765352D01*
X134256172Y-120765354D01*
X134226635Y-120806008D01*
X134140476Y-120924594D01*
X134051117Y-121099970D01*
X133990290Y-121287173D01*
X133959500Y-121481577D01*
X133959500Y-121678422D01*
X133990290Y-121872826D01*
X134051117Y-122060029D01*
X134140476Y-122235405D01*
X134256172Y-122394646D01*
X134395354Y-122533828D01*
X134554595Y-122649524D01*
X134633905Y-122689934D01*
X134731213Y-122739515D01*
X134782009Y-122787489D01*
X134798804Y-122855310D01*
X134776267Y-122921445D01*
X134731213Y-122960485D01*
X134554594Y-123050476D01*
X134511130Y-123082055D01*
X134395354Y-123166172D01*
X134395352Y-123166174D01*
X134395351Y-123166174D01*
X134256174Y-123305351D01*
X134256174Y-123305352D01*
X134256172Y-123305354D01*
X134222380Y-123351865D01*
X134140476Y-123464594D01*
X134051117Y-123639970D01*
X133990290Y-123827173D01*
X133959500Y-124021577D01*
X133959500Y-124218422D01*
X133990290Y-124412826D01*
X134051117Y-124600029D01*
X134140476Y-124775405D01*
X134256172Y-124934646D01*
X134395354Y-125073828D01*
X134554595Y-125189524D01*
X134600295Y-125212809D01*
X134729970Y-125278882D01*
X134729972Y-125278882D01*
X134729975Y-125278884D01*
X134847171Y-125316963D01*
X134871612Y-125324905D01*
X134929287Y-125364343D01*
X134956485Y-125428702D01*
X134944570Y-125497548D01*
X134897326Y-125549024D01*
X134871611Y-125560767D01*
X134768555Y-125594251D01*
X134768552Y-125594252D01*
X134607265Y-125676434D01*
X134509556Y-125747423D01*
X134509556Y-125747425D01*
X134978461Y-126216329D01*
X134902993Y-126259901D01*
X134809901Y-126352993D01*
X134766329Y-126428460D01*
X134297425Y-125959556D01*
X134297423Y-125959556D01*
X134226434Y-126057265D01*
X134144252Y-126218552D01*
X134144251Y-126218555D01*
X134088317Y-126390706D01*
X134060000Y-126569493D01*
X134060000Y-126750506D01*
X134088317Y-126929293D01*
X134144251Y-127101444D01*
X134144252Y-127101447D01*
X134226432Y-127262731D01*
X134297424Y-127360442D01*
X134297425Y-127360443D01*
X134766329Y-126891538D01*
X134809901Y-126967007D01*
X134902993Y-127060099D01*
X134978460Y-127103670D01*
X134509555Y-127572574D01*
X134607268Y-127643567D01*
X134768552Y-127725747D01*
X134768555Y-127725748D01*
X134940706Y-127781682D01*
X135119494Y-127810000D01*
X135300506Y-127810000D01*
X135479293Y-127781682D01*
X135651444Y-127725748D01*
X135651447Y-127725747D01*
X135812730Y-127643568D01*
X135910442Y-127572574D01*
X135910443Y-127572574D01*
X135441539Y-127103670D01*
X135517007Y-127060099D01*
X135610099Y-126967007D01*
X135653670Y-126891538D01*
X136122574Y-127360443D01*
X136122574Y-127360442D01*
X136193568Y-127262730D01*
X136275747Y-127101447D01*
X136275749Y-127101441D01*
X136309232Y-126998389D01*
X136348668Y-126940713D01*
X136413027Y-126913514D01*
X136481873Y-126925428D01*
X136533350Y-126972672D01*
X136545094Y-126998387D01*
X136591117Y-127140029D01*
X136653637Y-127262730D01*
X136680476Y-127315405D01*
X136796172Y-127474646D01*
X136935354Y-127613828D01*
X137094595Y-127729524D01*
X137177455Y-127771743D01*
X137269970Y-127818882D01*
X137269972Y-127818882D01*
X137269975Y-127818884D01*
X137370317Y-127851487D01*
X137457173Y-127879709D01*
X137651578Y-127910500D01*
X137651583Y-127910500D01*
X137848422Y-127910500D01*
X138042826Y-127879709D01*
X138230025Y-127818884D01*
X138405405Y-127729524D01*
X138564646Y-127613828D01*
X138703828Y-127474646D01*
X138819524Y-127315405D01*
X138908884Y-127140025D01*
X138969709Y-126952826D01*
X139000500Y-126758422D01*
X139000500Y-126561577D01*
X138969709Y-126367173D01*
X138921419Y-126218555D01*
X138908884Y-126179975D01*
X138908882Y-126179972D01*
X138908882Y-126179970D01*
X138855921Y-126076029D01*
X138819524Y-126004595D01*
X138703828Y-125845354D01*
X138564646Y-125706172D01*
X138441056Y-125616378D01*
X138405403Y-125590474D01*
X138228787Y-125500485D01*
X138177990Y-125452511D01*
X138161195Y-125384690D01*
X138183732Y-125318555D01*
X138228787Y-125279515D01*
X138405403Y-125189525D01*
X138405402Y-125189525D01*
X138405405Y-125189524D01*
X138564646Y-125073828D01*
X138703828Y-124934646D01*
X138819524Y-124775405D01*
X138908884Y-124600025D01*
X138969709Y-124412826D01*
X138992826Y-124266872D01*
X139000500Y-124218422D01*
X139000500Y-124021577D01*
X138969709Y-123827173D01*
X138920909Y-123676985D01*
X138908884Y-123639975D01*
X138908882Y-123639972D01*
X138908882Y-123639970D01*
X138861743Y-123547455D01*
X138819524Y-123464595D01*
X138703828Y-123305354D01*
X138564646Y-123166172D01*
X138448870Y-123082055D01*
X138405403Y-123050474D01*
X138228787Y-122960485D01*
X138177990Y-122912511D01*
X138161195Y-122844690D01*
X138183732Y-122778555D01*
X138228787Y-122739515D01*
X138405403Y-122649525D01*
X138405402Y-122649525D01*
X138405405Y-122649524D01*
X138564646Y-122533828D01*
X138703828Y-122394646D01*
X138819524Y-122235405D01*
X138908884Y-122060025D01*
X138969709Y-121872826D01*
X138972397Y-121855857D01*
X139000500Y-121678422D01*
X139000500Y-121481577D01*
X138969709Y-121287173D01*
X138908882Y-121099970D01*
X138861743Y-121007455D01*
X138819524Y-120924595D01*
X138703828Y-120765354D01*
X138564646Y-120626172D01*
X138405405Y-120510476D01*
X138230029Y-120421117D01*
X138088387Y-120375094D01*
X138030712Y-120335656D01*
X138003514Y-120271297D01*
X138015429Y-120202450D01*
X138062674Y-120150975D01*
X138088389Y-120139232D01*
X138191441Y-120105749D01*
X138191447Y-120105747D01*
X138352730Y-120023568D01*
X138450442Y-119952574D01*
X138450443Y-119952574D01*
X137981539Y-119483670D01*
X138057007Y-119440099D01*
X138150099Y-119347007D01*
X138193670Y-119271539D01*
X138662574Y-119740443D01*
X138662574Y-119740442D01*
X138733568Y-119642730D01*
X138815747Y-119481447D01*
X138815748Y-119481444D01*
X138871682Y-119309293D01*
X138900000Y-119130506D01*
X138900000Y-118949493D01*
X138871682Y-118770706D01*
X138815748Y-118598555D01*
X138815747Y-118598552D01*
X138733567Y-118437268D01*
X138662574Y-118339556D01*
X138662574Y-118339555D01*
X138193669Y-118808459D01*
X138150099Y-118732993D01*
X138057007Y-118639901D01*
X137981538Y-118596329D01*
X138450443Y-118127424D01*
X138352731Y-118056432D01*
X138191447Y-117974252D01*
X138191444Y-117974251D01*
X138088388Y-117940767D01*
X138030713Y-117901330D01*
X138003514Y-117836971D01*
X138015428Y-117768125D01*
X138062672Y-117716649D01*
X138088385Y-117704905D01*
X138230025Y-117658884D01*
X138405405Y-117569524D01*
X138564646Y-117453828D01*
X138703828Y-117314646D01*
X138819524Y-117155405D01*
X138908884Y-116980025D01*
X138969709Y-116792826D01*
X139000500Y-116598422D01*
X139000500Y-116401577D01*
X138969709Y-116207173D01*
X138922193Y-116060935D01*
X138908884Y-116019975D01*
X138908882Y-116019972D01*
X138908882Y-116019970D01*
X138861743Y-115927455D01*
X138819524Y-115844595D01*
X138703828Y-115685354D01*
X138564646Y-115546172D01*
X138405405Y-115430476D01*
X138393598Y-115424460D01*
X138230029Y-115341117D01*
X138088387Y-115295094D01*
X138030712Y-115255656D01*
X138003514Y-115191297D01*
X138015429Y-115122450D01*
X138062674Y-115070975D01*
X138088389Y-115059232D01*
X138191441Y-115025749D01*
X138191447Y-115025747D01*
X138352730Y-114943568D01*
X138450442Y-114872574D01*
X138450443Y-114872574D01*
X137981539Y-114403670D01*
X138057007Y-114360099D01*
X138150099Y-114267007D01*
X138193670Y-114191539D01*
X138662574Y-114660443D01*
X138662574Y-114660442D01*
X138733568Y-114562730D01*
X138815747Y-114401447D01*
X138815748Y-114401444D01*
X138871682Y-114229293D01*
X138900000Y-114050506D01*
X138900000Y-113869493D01*
X138871682Y-113690706D01*
X138815748Y-113518555D01*
X138815747Y-113518552D01*
X138733567Y-113357268D01*
X138662574Y-113259556D01*
X138662574Y-113259555D01*
X138193669Y-113728459D01*
X138150099Y-113652993D01*
X138057007Y-113559901D01*
X137981538Y-113516329D01*
X138450443Y-113047424D01*
X138352731Y-112976432D01*
X138191447Y-112894252D01*
X138191444Y-112894251D01*
X138088388Y-112860767D01*
X138030713Y-112821330D01*
X138003514Y-112756971D01*
X138015428Y-112688125D01*
X138062672Y-112636649D01*
X138088385Y-112624905D01*
X138230025Y-112578884D01*
X138405405Y-112489524D01*
X138564646Y-112373828D01*
X138703828Y-112234646D01*
X138819524Y-112075405D01*
X138908884Y-111900025D01*
X138969709Y-111712826D01*
X138970919Y-111705188D01*
X139000500Y-111518422D01*
X139000500Y-111321577D01*
X138969709Y-111127173D01*
X138908882Y-110939970D01*
X138819523Y-110764594D01*
X138703828Y-110605354D01*
X138564646Y-110466172D01*
X138485025Y-110408324D01*
X138405403Y-110350474D01*
X138228787Y-110260485D01*
X138177990Y-110212511D01*
X138161195Y-110144690D01*
X138183732Y-110078555D01*
X138228787Y-110039515D01*
X138405403Y-109949525D01*
X138405402Y-109949525D01*
X138405405Y-109949524D01*
X138564646Y-109833828D01*
X138703828Y-109694646D01*
X138819524Y-109535405D01*
X138908884Y-109360025D01*
X138969709Y-109172826D01*
X138980562Y-109104301D01*
X139000500Y-108978422D01*
X139000500Y-108781577D01*
X138969709Y-108587173D01*
X138921419Y-108438555D01*
X138908884Y-108399975D01*
X138908882Y-108399972D01*
X138908882Y-108399970D01*
X138861743Y-108307455D01*
X138819524Y-108224595D01*
X138703828Y-108065354D01*
X138564646Y-107926172D01*
X138440441Y-107835931D01*
X138405403Y-107810474D01*
X138228787Y-107720485D01*
X138177990Y-107672511D01*
X138161195Y-107604690D01*
X138183732Y-107538555D01*
X138228787Y-107499515D01*
X138405403Y-107409525D01*
X138405402Y-107409525D01*
X138405405Y-107409524D01*
X138564646Y-107293828D01*
X138703828Y-107154646D01*
X138819524Y-106995405D01*
X138908884Y-106820025D01*
X138969709Y-106632826D01*
X139000500Y-106438422D01*
X139000500Y-106241577D01*
X138969709Y-106047173D01*
X138911519Y-105868085D01*
X138908884Y-105859975D01*
X138908882Y-105859972D01*
X138908882Y-105859970D01*
X138853802Y-105751870D01*
X138819524Y-105684595D01*
X138703828Y-105525354D01*
X138564646Y-105386172D01*
X138485025Y-105328324D01*
X138405403Y-105270474D01*
X138228787Y-105180485D01*
X138177990Y-105132511D01*
X138161195Y-105064690D01*
X138183732Y-104998555D01*
X138228787Y-104959515D01*
X138405403Y-104869525D01*
X138405402Y-104869525D01*
X138405405Y-104869524D01*
X138564646Y-104753828D01*
X138703828Y-104614646D01*
X138819524Y-104455405D01*
X138908884Y-104280025D01*
X138969709Y-104092826D01*
X138978798Y-104035438D01*
X139000500Y-103898422D01*
X139000500Y-103701577D01*
X138969709Y-103507173D01*
X138908882Y-103319970D01*
X138819523Y-103144594D01*
X138703828Y-102985354D01*
X138564646Y-102846172D01*
X138405405Y-102730476D01*
X138403768Y-102729642D01*
X138230029Y-102641117D01*
X138088387Y-102595094D01*
X138030712Y-102555656D01*
X138003514Y-102491297D01*
X138015429Y-102422450D01*
X138062674Y-102370975D01*
X138088389Y-102359232D01*
X138191441Y-102325749D01*
X138191447Y-102325747D01*
X138352730Y-102243568D01*
X138450442Y-102172574D01*
X138450443Y-102172574D01*
X137981539Y-101703670D01*
X138057007Y-101660099D01*
X138150099Y-101567007D01*
X138193670Y-101491539D01*
X138662574Y-101960443D01*
X138662574Y-101960442D01*
X138733568Y-101862730D01*
X138815747Y-101701447D01*
X138815748Y-101701444D01*
X138871682Y-101529293D01*
X138900000Y-101350506D01*
X138900000Y-101169493D01*
X138871682Y-100990706D01*
X138815748Y-100818555D01*
X138815747Y-100818552D01*
X138733567Y-100657268D01*
X138662574Y-100559556D01*
X138662574Y-100559555D01*
X138193669Y-101028459D01*
X138150099Y-100952993D01*
X138057007Y-100859901D01*
X137981538Y-100816329D01*
X138450443Y-100347424D01*
X138352731Y-100276432D01*
X138191447Y-100194252D01*
X138191444Y-100194251D01*
X138088388Y-100160767D01*
X138030713Y-100121330D01*
X138003514Y-100056971D01*
X138015428Y-99988125D01*
X138062672Y-99936649D01*
X138088385Y-99924905D01*
X138230025Y-99878884D01*
X138405405Y-99789524D01*
X138564646Y-99673828D01*
X138703828Y-99534646D01*
X138819524Y-99375405D01*
X138908884Y-99200025D01*
X138969709Y-99012826D01*
X138978964Y-98954394D01*
X139000500Y-98818422D01*
X139000500Y-98621577D01*
X138969709Y-98427173D01*
X138908882Y-98239970D01*
X138819523Y-98064594D01*
X138792866Y-98027904D01*
X138703828Y-97905354D01*
X138564646Y-97766172D01*
X138440536Y-97676000D01*
X138405403Y-97650474D01*
X138228787Y-97560485D01*
X138177990Y-97512511D01*
X138161195Y-97444690D01*
X138183732Y-97378555D01*
X138228787Y-97339515D01*
X138405403Y-97249525D01*
X138405402Y-97249525D01*
X138405405Y-97249524D01*
X138564646Y-97133828D01*
X138703828Y-96994646D01*
X138819524Y-96835405D01*
X138908695Y-96660396D01*
X138908882Y-96660029D01*
X138908882Y-96660028D01*
X138908884Y-96660025D01*
X138969709Y-96472826D01*
X139000500Y-96278422D01*
X139000500Y-96081577D01*
X138969709Y-95887173D01*
X138908882Y-95699970D01*
X138861743Y-95607455D01*
X138819524Y-95524595D01*
X138703828Y-95365354D01*
X138564646Y-95226172D01*
X138405405Y-95110476D01*
X138372898Y-95093913D01*
X138230029Y-95021117D01*
X138088387Y-94975094D01*
X138030712Y-94935656D01*
X138003514Y-94871297D01*
X138015429Y-94802450D01*
X138062674Y-94750975D01*
X138088389Y-94739232D01*
X138191441Y-94705749D01*
X138191447Y-94705747D01*
X138352730Y-94623568D01*
X138450442Y-94552574D01*
X138450443Y-94552574D01*
X137981539Y-94083670D01*
X138057007Y-94040099D01*
X138150099Y-93947007D01*
X138193670Y-93871539D01*
X138662574Y-94340443D01*
X138662574Y-94340442D01*
X138733568Y-94242730D01*
X138815747Y-94081447D01*
X138815748Y-94081444D01*
X138871682Y-93909293D01*
X138900000Y-93730506D01*
X138900000Y-93549493D01*
X138871682Y-93370706D01*
X138815748Y-93198555D01*
X138815747Y-93198552D01*
X138733567Y-93037268D01*
X138662574Y-92939556D01*
X138662574Y-92939555D01*
X138193669Y-93408459D01*
X138150099Y-93332993D01*
X138057007Y-93239901D01*
X137981538Y-93196329D01*
X138450443Y-92727424D01*
X138352731Y-92656432D01*
X138191447Y-92574252D01*
X138191444Y-92574251D01*
X138088388Y-92540767D01*
X138030713Y-92501330D01*
X138003514Y-92436971D01*
X138015428Y-92368125D01*
X138062672Y-92316649D01*
X138088385Y-92304905D01*
X138230025Y-92258884D01*
X138405405Y-92169524D01*
X138564646Y-92053828D01*
X138703828Y-91914646D01*
X138819524Y-91755405D01*
X138908884Y-91580025D01*
X138969709Y-91392826D01*
X138976492Y-91350000D01*
X139000500Y-91198422D01*
X139000500Y-91001577D01*
X138969709Y-90807173D01*
X138908882Y-90619970D01*
X138819523Y-90444594D01*
X138703828Y-90285354D01*
X138564646Y-90146172D01*
X138485025Y-90088324D01*
X138405403Y-90030474D01*
X138228787Y-89940485D01*
X138177990Y-89892511D01*
X138161195Y-89824690D01*
X138183732Y-89758555D01*
X138228787Y-89719515D01*
X138405403Y-89629525D01*
X138405402Y-89629525D01*
X138405405Y-89629524D01*
X138564646Y-89513828D01*
X138703828Y-89374646D01*
X138819524Y-89215405D01*
X138908884Y-89040025D01*
X138969709Y-88852826D01*
X138987282Y-88741873D01*
X139000500Y-88658422D01*
X139000500Y-88461577D01*
X138969709Y-88267173D01*
X138921419Y-88118555D01*
X138908884Y-88079975D01*
X138908882Y-88079972D01*
X138908882Y-88079970D01*
X138856684Y-87977526D01*
X138819524Y-87904595D01*
X138703828Y-87745354D01*
X138564646Y-87606172D01*
X138469179Y-87536811D01*
X138405403Y-87490474D01*
X138228787Y-87400485D01*
X138177990Y-87352511D01*
X138161195Y-87284690D01*
X138183732Y-87218555D01*
X138228787Y-87179515D01*
X138405403Y-87089525D01*
X138405402Y-87089525D01*
X138405405Y-87089524D01*
X138564646Y-86973828D01*
X138703828Y-86834646D01*
X138819524Y-86675405D01*
X138908884Y-86500025D01*
X138969709Y-86312826D01*
X139000500Y-86118422D01*
X139000500Y-85921577D01*
X138969709Y-85727173D01*
X138908882Y-85539970D01*
X138819523Y-85364594D01*
X138810020Y-85351514D01*
X138703828Y-85205354D01*
X138564646Y-85066172D01*
X138405405Y-84950476D01*
X138230029Y-84861117D01*
X138088387Y-84815094D01*
X138030712Y-84775656D01*
X138003514Y-84711297D01*
X138015429Y-84642450D01*
X138062674Y-84590975D01*
X138088389Y-84579232D01*
X138191441Y-84545749D01*
X138191447Y-84545747D01*
X138352730Y-84463568D01*
X138450442Y-84392574D01*
X138450443Y-84392574D01*
X137981539Y-83923670D01*
X138057007Y-83880099D01*
X138150099Y-83787007D01*
X138193670Y-83711539D01*
X138662574Y-84180443D01*
X138662574Y-84180442D01*
X138733568Y-84082730D01*
X138815747Y-83921447D01*
X138815748Y-83921444D01*
X138871682Y-83749293D01*
X138900000Y-83570506D01*
X138900000Y-83389493D01*
X138871682Y-83210706D01*
X138815748Y-83038555D01*
X138815747Y-83038552D01*
X138733567Y-82877268D01*
X138662574Y-82779556D01*
X138662574Y-82779555D01*
X138193669Y-83248459D01*
X138150099Y-83172993D01*
X138057007Y-83079901D01*
X137981538Y-83036329D01*
X138450443Y-82567424D01*
X138352731Y-82496432D01*
X138191447Y-82414252D01*
X138191444Y-82414251D01*
X138088388Y-82380767D01*
X138030713Y-82341330D01*
X138003514Y-82276971D01*
X138015428Y-82208125D01*
X138062672Y-82156649D01*
X138088385Y-82144905D01*
X138230025Y-82098884D01*
X138405405Y-82009524D01*
X138564646Y-81893828D01*
X138703828Y-81754646D01*
X138819524Y-81595405D01*
X138908884Y-81420025D01*
X138969709Y-81232826D01*
X138978515Y-81177228D01*
X139000500Y-81038422D01*
X139000500Y-80841577D01*
X138969709Y-80647173D01*
X138922985Y-80503373D01*
X138908884Y-80459975D01*
X138908882Y-80459972D01*
X138908882Y-80459970D01*
X138844423Y-80333462D01*
X138819524Y-80284595D01*
X138703828Y-80125354D01*
X138564646Y-79986172D01*
X138564645Y-79986171D01*
X138561818Y-79983344D01*
X138528334Y-79922021D01*
X138525500Y-79895663D01*
X138525500Y-79444336D01*
X138545185Y-79377297D01*
X138561819Y-79356655D01*
X138612121Y-79306353D01*
X138703828Y-79214646D01*
X138819524Y-79055405D01*
X138908884Y-78880025D01*
X138969709Y-78692826D01*
X138973058Y-78671684D01*
X139000500Y-78498422D01*
X139000500Y-78301577D01*
X138969709Y-78107173D01*
X138908882Y-77919970D01*
X138861743Y-77827455D01*
X138819524Y-77744595D01*
X138703828Y-77585354D01*
X138564646Y-77446172D01*
X138564645Y-77446171D01*
X138561818Y-77443344D01*
X138528334Y-77382021D01*
X138525500Y-77355663D01*
X138525500Y-77173619D01*
X138525499Y-77173615D01*
X138495698Y-77023795D01*
X138447364Y-76907106D01*
X138437238Y-76882660D01*
X138352373Y-76755651D01*
X138352367Y-76755643D01*
X137494355Y-75897632D01*
X137494351Y-75897629D01*
X137367343Y-75812764D01*
X137367334Y-75812759D01*
X137226205Y-75754302D01*
X137226197Y-75754300D01*
X137076384Y-75724500D01*
X137076380Y-75724500D01*
X131423620Y-75724500D01*
X131423615Y-75724500D01*
X131273802Y-75754300D01*
X131273794Y-75754302D01*
X131132660Y-75812761D01*
X131005651Y-75897626D01*
X131005643Y-75897632D01*
X130378778Y-76524500D01*
X130255648Y-76647630D01*
X130201638Y-76701640D01*
X130147628Y-76755649D01*
X130062764Y-76882656D01*
X130062759Y-76882665D01*
X130004302Y-77023794D01*
X130004300Y-77023802D01*
X129974500Y-77173615D01*
X129974500Y-78476000D01*
X129954815Y-78543039D01*
X129902011Y-78588794D01*
X129850500Y-78600000D01*
X129164776Y-78600000D01*
X129111381Y-78586625D01*
X129111124Y-78587247D01*
X129106933Y-78585511D01*
X129106322Y-78585358D01*
X129105490Y-78584913D01*
X128968917Y-78528343D01*
X128968907Y-78528340D01*
X128823920Y-78499500D01*
X128823918Y-78499500D01*
X128676082Y-78499500D01*
X128676080Y-78499500D01*
X128531092Y-78528340D01*
X128531086Y-78528342D01*
X128503958Y-78539579D01*
X128394513Y-78584913D01*
X128388878Y-78587247D01*
X128388520Y-78586385D01*
X128380598Y-78588369D01*
X128371095Y-78594477D01*
X128336160Y-78599500D01*
X128203131Y-78599500D01*
X128136092Y-78579815D01*
X128115454Y-78563185D01*
X128056643Y-78504374D01*
X128056641Y-78504373D01*
X128056636Y-78504369D01*
X127917896Y-78422320D01*
X127917889Y-78422317D01*
X127763102Y-78377346D01*
X127763096Y-78377345D01*
X127726935Y-78374500D01*
X126998077Y-78374500D01*
X126998052Y-78374501D01*
X126961901Y-78377346D01*
X126807110Y-78422317D01*
X126807103Y-78422320D01*
X126668363Y-78504369D01*
X126668351Y-78504378D01*
X126554378Y-78618351D01*
X126554369Y-78618362D01*
X126542671Y-78638144D01*
X126491602Y-78685827D01*
X126422860Y-78698330D01*
X126358271Y-78671684D01*
X126337135Y-78649946D01*
X126321142Y-78628856D01*
X126203413Y-78539579D01*
X126203407Y-78539576D01*
X126065958Y-78485373D01*
X125979572Y-78475000D01*
X125787500Y-78475000D01*
X125787500Y-80025000D01*
X125979572Y-80025000D01*
X126065958Y-80014626D01*
X126203407Y-79960423D01*
X126203413Y-79960420D01*
X126321143Y-79871143D01*
X126337134Y-79850055D01*
X126359073Y-79833841D01*
X126378756Y-79814950D01*
X126386763Y-79813379D01*
X126393325Y-79808530D01*
X126420546Y-79806751D01*
X126447319Y-79801500D01*
X126454904Y-79804507D01*
X126463046Y-79803976D01*
X126486909Y-79817198D01*
X126512269Y-79827254D01*
X126519110Y-79835040D01*
X126524161Y-79837839D01*
X126536709Y-79852717D01*
X126539894Y-79857159D01*
X126554374Y-79881643D01*
X126565252Y-79892521D01*
X126571168Y-79900771D01*
X126579488Y-79924555D01*
X126591565Y-79946673D01*
X126590828Y-79956974D01*
X126594238Y-79966722D01*
X126588378Y-79991227D01*
X126586581Y-80016365D01*
X126578673Y-80031817D01*
X126577990Y-80034676D01*
X126576458Y-80036145D01*
X126576307Y-80036440D01*
X126576410Y-80036495D01*
X126573536Y-80041869D01*
X126524499Y-80160255D01*
X126524497Y-80160261D01*
X126499500Y-80285928D01*
X126499500Y-80333462D01*
X126479815Y-80400501D01*
X126427011Y-80446256D01*
X126404021Y-80454137D01*
X126397890Y-80455585D01*
X126269773Y-80503372D01*
X126160313Y-80585313D01*
X126078373Y-80694771D01*
X126030587Y-80822889D01*
X126024500Y-80879499D01*
X126024500Y-81120480D01*
X126024501Y-81120490D01*
X126030587Y-81177113D01*
X126030589Y-81177118D01*
X126041610Y-81206668D01*
X126046594Y-81276360D01*
X126041610Y-81293332D01*
X126030589Y-81322878D01*
X126030587Y-81322889D01*
X126024500Y-81379499D01*
X126024500Y-81620480D01*
X126024501Y-81620490D01*
X126030587Y-81677113D01*
X126030589Y-81677118D01*
X126041610Y-81706668D01*
X126046594Y-81776360D01*
X126041610Y-81793332D01*
X126030589Y-81822878D01*
X126030587Y-81822889D01*
X126024500Y-81879499D01*
X126024500Y-82120480D01*
X126024501Y-82120490D01*
X126030587Y-82177113D01*
X126030589Y-82177118D01*
X126041610Y-82206668D01*
X126046594Y-82276360D01*
X126041610Y-82293332D01*
X126030589Y-82322878D01*
X126030587Y-82322889D01*
X126024500Y-82379499D01*
X126024500Y-82620480D01*
X126024501Y-82620490D01*
X126030587Y-82677113D01*
X126030589Y-82677118D01*
X126041610Y-82706668D01*
X126046594Y-82776360D01*
X126041610Y-82793332D01*
X126030589Y-82822878D01*
X126030587Y-82822889D01*
X126024500Y-82879499D01*
X126024500Y-83120480D01*
X126024501Y-83120490D01*
X126030587Y-83177114D01*
X126074697Y-83295374D01*
X126078372Y-83305226D01*
X126160313Y-83414687D01*
X126269774Y-83496628D01*
X126397886Y-83544412D01*
X126454515Y-83550500D01*
X127063082Y-83550499D01*
X127063092Y-83550500D01*
X127077525Y-83550500D01*
X127970613Y-83550500D01*
X128037652Y-83570185D01*
X128058294Y-83586819D01*
X128411985Y-83940510D01*
X128514162Y-83999501D01*
X128537515Y-84012984D01*
X128677525Y-84050500D01*
X128677526Y-84050500D01*
X128705209Y-84050500D01*
X128721974Y-84055311D01*
X128737346Y-84065057D01*
X128754809Y-84070185D01*
X128766468Y-84079580D01*
X128766874Y-84079086D01*
X128771584Y-84082951D01*
X128894498Y-84165080D01*
X128894511Y-84165087D01*
X129008352Y-84212241D01*
X129031087Y-84221658D01*
X129031091Y-84221658D01*
X129031092Y-84221659D01*
X129176079Y-84250500D01*
X129176082Y-84250500D01*
X129323920Y-84250500D01*
X129421462Y-84231096D01*
X129468913Y-84221658D01*
X129605495Y-84165084D01*
X129728416Y-84082951D01*
X129741183Y-84070184D01*
X129762819Y-84048549D01*
X129824142Y-84015064D01*
X129893834Y-84020048D01*
X129949767Y-84061920D01*
X129974184Y-84127384D01*
X129974500Y-84136230D01*
X129974500Y-87725500D01*
X129954815Y-87792539D01*
X129902011Y-87838294D01*
X129850500Y-87849500D01*
X127185929Y-87849500D01*
X127060261Y-87874497D01*
X127060255Y-87874499D01*
X126941870Y-87923535D01*
X126835331Y-87994722D01*
X126835324Y-87994728D01*
X126194725Y-88635328D01*
X126194722Y-88635331D01*
X126160039Y-88687238D01*
X126160040Y-88687239D01*
X126123534Y-88741874D01*
X126074499Y-88860255D01*
X126074497Y-88860261D01*
X126049500Y-88985928D01*
X126049500Y-89715240D01*
X126029815Y-89782279D01*
X125977011Y-89828034D01*
X125941691Y-89838178D01*
X125935540Y-89838988D01*
X125935527Y-89838991D01*
X125798574Y-89895719D01*
X125798571Y-89895720D01*
X125798571Y-89895721D01*
X125680964Y-89985964D01*
X125641791Y-90037016D01*
X125586217Y-90109441D01*
X125529789Y-90150643D01*
X125460042Y-90154798D01*
X125424568Y-90140596D01*
X125411173Y-90132648D01*
X125388015Y-90109490D01*
X125262485Y-90037016D01*
X125256197Y-90035331D01*
X125122475Y-89999500D01*
X125122472Y-89999500D01*
X125078769Y-89999500D01*
X125011730Y-89979815D01*
X125003283Y-89973876D01*
X124901429Y-89895721D01*
X124901426Y-89895719D01*
X124764472Y-89838991D01*
X124764449Y-89838988D01*
X124758309Y-89838179D01*
X124694415Y-89809910D01*
X124655946Y-89751585D01*
X124650500Y-89715241D01*
X124650500Y-89307895D01*
X124670185Y-89240856D01*
X124711380Y-89201163D01*
X124851859Y-89118085D01*
X124851860Y-89118083D01*
X124851865Y-89118081D01*
X124968081Y-89001865D01*
X125051744Y-88860398D01*
X125097598Y-88702569D01*
X125100500Y-88665694D01*
X125100500Y-87834306D01*
X125097598Y-87797431D01*
X125051744Y-87639602D01*
X124968081Y-87498135D01*
X124968079Y-87498133D01*
X124968076Y-87498129D01*
X124851870Y-87381923D01*
X124851862Y-87381917D01*
X124809276Y-87356732D01*
X124761593Y-87305663D01*
X124749089Y-87236922D01*
X124775734Y-87172332D01*
X124809276Y-87143268D01*
X124811425Y-87141996D01*
X124851865Y-87118081D01*
X124968081Y-87001865D01*
X125051744Y-86860398D01*
X125097598Y-86702569D01*
X125100500Y-86665694D01*
X125100500Y-85834306D01*
X125097598Y-85797431D01*
X125051744Y-85639602D01*
X124968081Y-85498135D01*
X124968079Y-85498133D01*
X124968076Y-85498129D01*
X124851870Y-85381923D01*
X124851862Y-85381917D01*
X124710396Y-85298255D01*
X124710393Y-85298254D01*
X124707396Y-85297383D01*
X124705326Y-85296061D01*
X124703235Y-85295156D01*
X124703381Y-85294818D01*
X124684985Y-85283068D01*
X124660797Y-85272022D01*
X124655996Y-85264551D01*
X124648513Y-85259772D01*
X124637399Y-85235613D01*
X124623023Y-85213244D01*
X124621165Y-85200327D01*
X124619312Y-85196298D01*
X124618000Y-85178309D01*
X124618000Y-85174500D01*
X124637685Y-85107461D01*
X124690489Y-85061706D01*
X124742000Y-85050500D01*
X124822472Y-85050500D01*
X124822474Y-85050500D01*
X124822475Y-85050500D01*
X124962485Y-85012984D01*
X125088015Y-84940510D01*
X125440510Y-84588015D01*
X125512984Y-84462485D01*
X125517743Y-84444724D01*
X125517995Y-84443786D01*
X125526520Y-84411966D01*
X125550500Y-84322475D01*
X125550500Y-82177525D01*
X125512984Y-82037515D01*
X125509235Y-82031022D01*
X125497957Y-82011486D01*
X125440512Y-81911988D01*
X125440508Y-81911983D01*
X124887016Y-81358491D01*
X124887015Y-81358490D01*
X124761485Y-81286016D01*
X124693618Y-81267831D01*
X124693617Y-81267830D01*
X124621475Y-81248500D01*
X124099463Y-81248500D01*
X124032424Y-81228815D01*
X123986669Y-81176011D01*
X123976757Y-81123805D01*
X123975500Y-81123806D01*
X123975499Y-80879519D01*
X123975498Y-80879509D01*
X123975328Y-80877930D01*
X123969412Y-80822886D01*
X123958244Y-80792945D01*
X123937757Y-80738017D01*
X123921628Y-80694774D01*
X123839687Y-80585313D01*
X123773911Y-80536074D01*
X123730228Y-80503373D01*
X123730226Y-80503372D01*
X123602114Y-80455588D01*
X123602112Y-80455587D01*
X123602110Y-80455587D01*
X123545501Y-80449500D01*
X123545485Y-80449500D01*
X123371808Y-80449500D01*
X123304769Y-80429815D01*
X123284127Y-80413181D01*
X122924288Y-80053342D01*
X122890803Y-79992019D01*
X122895787Y-79922327D01*
X122917270Y-79888908D01*
X122915846Y-79887804D01*
X122920617Y-79881651D01*
X122920626Y-79881643D01*
X123002681Y-79742894D01*
X123047654Y-79588098D01*
X123050500Y-79551935D01*
X123050500Y-79529571D01*
X124800000Y-79529571D01*
X124810373Y-79615958D01*
X124864576Y-79753407D01*
X124864579Y-79753413D01*
X124953856Y-79871143D01*
X125071586Y-79960420D01*
X125071592Y-79960423D01*
X125209041Y-80014626D01*
X125295428Y-80025000D01*
X125487500Y-80025000D01*
X125487500Y-79400000D01*
X124800000Y-79400000D01*
X124800000Y-79529571D01*
X123050500Y-79529571D01*
X123050499Y-79250000D01*
X123050499Y-78970428D01*
X124800000Y-78970428D01*
X124800000Y-79100000D01*
X125487500Y-79100000D01*
X125487500Y-78475000D01*
X125295428Y-78475000D01*
X125209041Y-78485373D01*
X125071592Y-78539576D01*
X125071586Y-78539579D01*
X124953856Y-78628856D01*
X124864579Y-78746586D01*
X124864576Y-78746592D01*
X124810373Y-78884041D01*
X124800000Y-78970428D01*
X123050499Y-78970428D01*
X123050499Y-78966716D01*
X123050499Y-78948077D01*
X123050498Y-78948052D01*
X123050216Y-78944468D01*
X123047654Y-78911902D01*
X123002681Y-78757106D01*
X122952163Y-78671684D01*
X122920630Y-78618363D01*
X122920621Y-78618351D01*
X122849319Y-78547049D01*
X122815834Y-78485726D01*
X122813000Y-78459368D01*
X122813000Y-78190631D01*
X122832685Y-78123592D01*
X122849314Y-78102954D01*
X122920626Y-78031643D01*
X123002681Y-77892894D01*
X123044341Y-77749500D01*
X123047653Y-77738102D01*
X123047654Y-77738096D01*
X123050499Y-77701942D01*
X123050500Y-77701935D01*
X123050499Y-77098066D01*
X123047654Y-77061902D01*
X123002681Y-76907106D01*
X122953257Y-76823534D01*
X122920630Y-76768363D01*
X122920621Y-76768351D01*
X122806648Y-76654378D01*
X122806636Y-76654369D01*
X122667896Y-76572320D01*
X122667889Y-76572317D01*
X122513102Y-76527346D01*
X122513096Y-76527345D01*
X122476935Y-76524500D01*
X121848077Y-76524500D01*
X121848052Y-76524501D01*
X121811901Y-76527346D01*
X121657110Y-76572317D01*
X121657103Y-76572320D01*
X121518363Y-76654369D01*
X121518351Y-76654378D01*
X121404378Y-76768351D01*
X121404372Y-76768359D01*
X121356732Y-76848916D01*
X121305663Y-76896599D01*
X121236922Y-76909103D01*
X121172332Y-76882458D01*
X121143268Y-76848916D01*
X121099257Y-76774497D01*
X121095626Y-76768357D01*
X121095624Y-76768355D01*
X121095621Y-76768351D01*
X120981648Y-76654378D01*
X120981636Y-76654369D01*
X120842896Y-76572320D01*
X120842889Y-76572317D01*
X120688102Y-76527346D01*
X120688096Y-76527345D01*
X120651935Y-76524500D01*
X120023077Y-76524500D01*
X120023052Y-76524501D01*
X119986901Y-76527346D01*
X119832110Y-76572317D01*
X119832103Y-76572320D01*
X119693363Y-76654369D01*
X119693355Y-76654375D01*
X119663953Y-76683778D01*
X119634548Y-76713182D01*
X119573228Y-76746666D01*
X119546869Y-76749500D01*
X116285929Y-76749500D01*
X116160261Y-76774497D01*
X116160255Y-76774499D01*
X116041874Y-76823534D01*
X115935326Y-76894726D01*
X115935325Y-76894727D01*
X114444725Y-78385328D01*
X114444719Y-78385336D01*
X114410913Y-78435930D01*
X114410914Y-78435931D01*
X114373534Y-78491874D01*
X114324499Y-78610255D01*
X114324497Y-78610261D01*
X114299500Y-78735928D01*
X114299500Y-79796000D01*
X114279815Y-79863039D01*
X114227011Y-79908794D01*
X114175500Y-79920000D01*
X114150000Y-79920000D01*
X114150000Y-82079999D01*
X114218202Y-82079999D01*
X114249458Y-82077068D01*
X114331887Y-82048225D01*
X114401666Y-82044662D01*
X114448327Y-82066889D01*
X114503571Y-82109279D01*
X114640528Y-82166009D01*
X114750599Y-82180500D01*
X115149400Y-82180499D01*
X115149403Y-82180499D01*
X115259463Y-82166011D01*
X115259467Y-82166009D01*
X115259472Y-82166009D01*
X115396429Y-82109279D01*
X115514036Y-82019036D01*
X115604279Y-81901429D01*
X115661009Y-81764472D01*
X115675500Y-81654401D01*
X115675499Y-80345600D01*
X115675499Y-80345599D01*
X115675499Y-80345596D01*
X115661011Y-80235536D01*
X115661009Y-80235531D01*
X115661009Y-80235528D01*
X115609939Y-80112235D01*
X115600500Y-80064782D01*
X115600500Y-79529571D01*
X119550000Y-79529571D01*
X119560373Y-79615958D01*
X119614576Y-79753407D01*
X119614579Y-79753413D01*
X119703856Y-79871143D01*
X119821586Y-79960420D01*
X119821592Y-79960423D01*
X119959041Y-80014626D01*
X120045428Y-80025000D01*
X120237500Y-80025000D01*
X120237500Y-79400000D01*
X119550000Y-79400000D01*
X119550000Y-79529571D01*
X115600500Y-79529571D01*
X115600500Y-79120808D01*
X115620185Y-79053769D01*
X115636819Y-79033127D01*
X116583127Y-78086819D01*
X116644450Y-78053334D01*
X116670808Y-78050500D01*
X119546869Y-78050500D01*
X119613908Y-78070185D01*
X119634545Y-78086814D01*
X119693357Y-78145626D01*
X119693360Y-78145627D01*
X119693363Y-78145630D01*
X119724886Y-78164272D01*
X119832104Y-78227680D01*
X119832110Y-78227683D01*
X119932885Y-78256961D01*
X119991771Y-78294567D01*
X120020977Y-78358040D01*
X120011231Y-78427226D01*
X119965627Y-78480161D01*
X119943780Y-78491391D01*
X119821592Y-78539576D01*
X119821586Y-78539579D01*
X119703856Y-78628856D01*
X119614579Y-78746586D01*
X119614576Y-78746592D01*
X119560373Y-78884041D01*
X119550000Y-78970428D01*
X119550000Y-79100000D01*
X120263500Y-79100000D01*
X120272185Y-79102550D01*
X120281147Y-79101262D01*
X120305187Y-79112240D01*
X120330539Y-79119685D01*
X120336466Y-79126525D01*
X120344703Y-79130287D01*
X120358992Y-79152521D01*
X120376294Y-79172489D01*
X120378581Y-79183003D01*
X120382477Y-79189065D01*
X120387500Y-79224000D01*
X120387500Y-79250000D01*
X120413500Y-79250000D01*
X120480539Y-79269685D01*
X120526294Y-79322489D01*
X120537500Y-79374000D01*
X120537500Y-80025000D01*
X120729572Y-80025000D01*
X120815958Y-80014626D01*
X120953407Y-79960423D01*
X120953413Y-79960420D01*
X121071143Y-79871143D01*
X121087134Y-79850055D01*
X121143325Y-79808530D01*
X121213046Y-79803976D01*
X121274161Y-79837839D01*
X121277187Y-79841013D01*
X121286027Y-79850620D01*
X121304374Y-79881643D01*
X121418357Y-79995626D01*
X121420776Y-79997056D01*
X121429247Y-80006262D01*
X121440286Y-80028642D01*
X121454901Y-80048872D01*
X121457375Y-80063285D01*
X121460156Y-80068923D01*
X121459434Y-80075282D01*
X121462000Y-80090226D01*
X121462000Y-80225571D01*
X121473061Y-80281176D01*
X121482225Y-80327244D01*
X121483462Y-80333462D01*
X121486999Y-80351244D01*
X121530218Y-80455585D01*
X121536035Y-80469627D01*
X121558583Y-80503373D01*
X121607226Y-80576173D01*
X121707747Y-80676694D01*
X121712630Y-80685637D01*
X121720676Y-80691893D01*
X121729092Y-80715786D01*
X121741232Y-80738017D01*
X121741123Y-80749935D01*
X121743891Y-80757793D01*
X121740870Y-80777517D01*
X121740730Y-80792945D01*
X121738947Y-80800472D01*
X121730588Y-80822886D01*
X121728049Y-80846500D01*
X121726257Y-80854070D01*
X121712655Y-80877930D01*
X121702145Y-80903305D01*
X121695600Y-80907848D01*
X121691655Y-80914771D01*
X121667311Y-80927490D01*
X121644753Y-80943154D01*
X121634000Y-80944896D01*
X121629730Y-80947128D01*
X121623620Y-80946578D01*
X121605593Y-80949500D01*
X121372896Y-80949500D01*
X121327407Y-80940855D01*
X121319044Y-80937557D01*
X121287759Y-80925220D01*
X121198492Y-80914500D01*
X120801508Y-80914500D01*
X120765635Y-80918808D01*
X120712242Y-80925219D01*
X120570181Y-80981241D01*
X120536474Y-81006803D01*
X120471163Y-81031627D01*
X120461548Y-81032000D01*
X119253429Y-81032000D01*
X119127761Y-81056997D01*
X119127755Y-81056999D01*
X119009370Y-81106035D01*
X118902831Y-81177222D01*
X118902824Y-81177228D01*
X116432226Y-83647826D01*
X116415410Y-83672993D01*
X116368857Y-83742666D01*
X116368855Y-83742669D01*
X116361038Y-83754366D01*
X116361034Y-83754373D01*
X116311999Y-83872755D01*
X116311997Y-83872761D01*
X116287000Y-83998428D01*
X116287000Y-94414281D01*
X116267315Y-94481320D01*
X116226121Y-94521013D01*
X116123138Y-94581916D01*
X116123129Y-94581923D01*
X116006923Y-94698129D01*
X116006917Y-94698137D01*
X115923255Y-94839603D01*
X115923254Y-94839606D01*
X115877402Y-94997426D01*
X115877401Y-94997432D01*
X115874500Y-95034298D01*
X115874500Y-96465701D01*
X115877401Y-96502567D01*
X115877402Y-96502573D01*
X115923254Y-96660393D01*
X115923255Y-96660396D01*
X116006917Y-96801862D01*
X116006923Y-96801870D01*
X116123129Y-96918076D01*
X116123133Y-96918079D01*
X116123135Y-96918081D01*
X116242338Y-96988577D01*
X116254234Y-97001318D01*
X116260978Y-97004398D01*
X116269247Y-97017265D01*
X116289080Y-97037810D01*
X116289550Y-97039141D01*
X116290021Y-97039646D01*
X116297368Y-97061023D01*
X116298752Y-97063176D01*
X116300365Y-97069742D01*
X116300829Y-97071091D01*
X116300830Y-97071096D01*
X116300831Y-97071099D01*
X116301389Y-97073902D01*
X116301387Y-97073902D01*
X116301392Y-97073920D01*
X116311997Y-97127237D01*
X116311999Y-97127244D01*
X116353062Y-97226380D01*
X116361035Y-97245627D01*
X116423768Y-97339515D01*
X116432226Y-97352173D01*
X116432227Y-97352174D01*
X116800681Y-97720627D01*
X116834166Y-97781950D01*
X116837000Y-97808308D01*
X116837000Y-98954403D01*
X116851488Y-99064463D01*
X116851491Y-99064472D01*
X116879231Y-99131443D01*
X116908221Y-99201429D01*
X116998464Y-99319036D01*
X117116071Y-99409279D01*
X117253028Y-99466009D01*
X117363099Y-99480500D01*
X117761900Y-99480499D01*
X117761903Y-99480499D01*
X117871963Y-99466011D01*
X117871967Y-99466009D01*
X117871972Y-99466009D01*
X118008929Y-99409279D01*
X118126536Y-99319036D01*
X118216779Y-99201429D01*
X118273509Y-99064472D01*
X118285525Y-98973202D01*
X118837501Y-98973202D01*
X118840431Y-99004459D01*
X118886477Y-99136051D01*
X118969269Y-99248230D01*
X119081448Y-99331022D01*
X119213037Y-99377068D01*
X119213049Y-99377070D01*
X119244287Y-99379999D01*
X119612500Y-99379999D01*
X119680702Y-99379999D01*
X119711959Y-99377068D01*
X119843551Y-99331022D01*
X119955730Y-99248230D01*
X120038522Y-99136051D01*
X120084568Y-99004462D01*
X120084570Y-99004450D01*
X120087500Y-98973213D01*
X120087500Y-98450000D01*
X119612500Y-98450000D01*
X119612500Y-99379999D01*
X119244287Y-99379999D01*
X119312499Y-99379998D01*
X119312500Y-99379998D01*
X119312500Y-98450000D01*
X118837501Y-98450000D01*
X118837501Y-98973202D01*
X118285525Y-98973202D01*
X118288000Y-98954401D01*
X118287999Y-98256946D01*
X122512500Y-98256946D01*
X122512500Y-98500000D01*
X123362500Y-98500000D01*
X123362500Y-97750000D01*
X123019446Y-97750000D01*
X122931056Y-97760613D01*
X122790404Y-97816079D01*
X122669935Y-97907435D01*
X122578579Y-98027904D01*
X122523113Y-98168556D01*
X122512500Y-98256946D01*
X118287999Y-98256946D01*
X118287999Y-97645599D01*
X118287272Y-97640077D01*
X118287272Y-97640075D01*
X118285523Y-97626786D01*
X118837500Y-97626786D01*
X118837500Y-98150000D01*
X119312500Y-98150000D01*
X119612500Y-98150000D01*
X120087499Y-98150000D01*
X120087499Y-97626797D01*
X120084568Y-97595540D01*
X120038522Y-97463948D01*
X119955730Y-97351769D01*
X119843551Y-97268977D01*
X119711962Y-97222931D01*
X119711950Y-97222929D01*
X119680713Y-97220000D01*
X119612500Y-97220000D01*
X119612500Y-98150000D01*
X119312500Y-98150000D01*
X119312500Y-97220000D01*
X119312499Y-97219999D01*
X119244298Y-97220000D01*
X119213039Y-97222931D01*
X119081448Y-97268977D01*
X118969269Y-97351769D01*
X118886477Y-97463948D01*
X118840431Y-97595537D01*
X118840429Y-97595549D01*
X118837500Y-97626786D01*
X118285523Y-97626786D01*
X118273511Y-97535536D01*
X118273509Y-97535531D01*
X118273509Y-97535528D01*
X118216779Y-97398571D01*
X118187417Y-97360305D01*
X118171232Y-97332272D01*
X118162115Y-97310261D01*
X118138965Y-97254373D01*
X118132757Y-97245083D01*
X118120261Y-97226379D01*
X118120261Y-97226378D01*
X118067779Y-97147834D01*
X118067773Y-97147826D01*
X117881486Y-96961540D01*
X117848001Y-96900217D01*
X117852985Y-96830526D01*
X117864943Y-96809073D01*
X117864110Y-96808580D01*
X117880369Y-96781087D01*
X117951744Y-96660398D01*
X117997598Y-96502569D01*
X118000500Y-96465694D01*
X118000500Y-96443053D01*
X119100000Y-96443053D01*
X119110613Y-96531443D01*
X119166079Y-96672095D01*
X119257435Y-96792564D01*
X119377904Y-96883920D01*
X119518556Y-96939386D01*
X119606946Y-96950000D01*
X119912500Y-96950000D01*
X120212500Y-96950000D01*
X120518054Y-96950000D01*
X120606443Y-96939386D01*
X120747095Y-96883920D01*
X120867564Y-96792564D01*
X120958920Y-96672095D01*
X121014386Y-96531443D01*
X121025000Y-96443053D01*
X121025000Y-95900000D01*
X120212500Y-95900000D01*
X120212500Y-96950000D01*
X119912500Y-96950000D01*
X119912500Y-95900000D01*
X119100000Y-95900000D01*
X119100000Y-96443053D01*
X118000500Y-96443053D01*
X118000500Y-95056946D01*
X119100000Y-95056946D01*
X119100000Y-95600000D01*
X119912500Y-95600000D01*
X120212500Y-95600000D01*
X121025000Y-95600000D01*
X121025000Y-95056946D01*
X121014386Y-94968556D01*
X120958920Y-94827904D01*
X120867564Y-94707435D01*
X120747095Y-94616079D01*
X120606443Y-94560613D01*
X120518054Y-94550000D01*
X120212500Y-94550000D01*
X120212500Y-95600000D01*
X119912500Y-95600000D01*
X119912500Y-94550000D01*
X119606946Y-94550000D01*
X119518556Y-94560613D01*
X119377904Y-94616079D01*
X119257435Y-94707435D01*
X119166079Y-94827904D01*
X119110613Y-94968556D01*
X119100000Y-95056946D01*
X118000500Y-95056946D01*
X118000500Y-95034306D01*
X117997598Y-94997431D01*
X117995890Y-94991553D01*
X117951745Y-94839606D01*
X117951744Y-94839603D01*
X117951744Y-94839602D01*
X117868081Y-94698135D01*
X117868079Y-94698133D01*
X117868076Y-94698129D01*
X117751870Y-94581923D01*
X117751861Y-94581916D01*
X117648879Y-94521013D01*
X117601195Y-94469944D01*
X117588000Y-94414281D01*
X117588000Y-84709794D01*
X122265001Y-84709794D01*
X122267883Y-84740546D01*
X122313184Y-84870009D01*
X122394632Y-84980367D01*
X122504989Y-85061814D01*
X122634458Y-85107117D01*
X122665180Y-85109998D01*
X122665208Y-85109999D01*
X122782499Y-85109999D01*
X122782500Y-85109998D01*
X122782500Y-84650000D01*
X122265001Y-84650000D01*
X122265001Y-84709794D01*
X117588000Y-84709794D01*
X117588000Y-84383308D01*
X117607685Y-84316269D01*
X117624319Y-84295627D01*
X117629752Y-84290194D01*
X122265000Y-84290194D01*
X122265000Y-84350000D01*
X122782500Y-84350000D01*
X122782500Y-83890000D01*
X122665206Y-83890000D01*
X122634453Y-83892883D01*
X122504990Y-83938184D01*
X122394632Y-84019632D01*
X122313185Y-84129989D01*
X122267882Y-84259458D01*
X122265000Y-84290194D01*
X117629752Y-84290194D01*
X118835152Y-83084794D01*
X120390001Y-83084794D01*
X120392883Y-83115546D01*
X120438184Y-83245009D01*
X120519632Y-83355367D01*
X120629989Y-83436814D01*
X120759458Y-83482117D01*
X120759459Y-83482118D01*
X120790194Y-83484999D01*
X120849999Y-83484998D01*
X120850000Y-83484998D01*
X120850000Y-82967500D01*
X120390001Y-82967500D01*
X120390001Y-83084794D01*
X118835152Y-83084794D01*
X119550627Y-82369319D01*
X119611950Y-82335834D01*
X119638308Y-82333000D01*
X120283365Y-82333000D01*
X120350404Y-82352685D01*
X120396159Y-82405489D01*
X120406103Y-82474647D01*
X120400406Y-82497956D01*
X120392883Y-82519454D01*
X120392882Y-82519458D01*
X120390000Y-82550194D01*
X120390000Y-82667500D01*
X120876000Y-82667500D01*
X120884685Y-82670050D01*
X120893647Y-82668762D01*
X120917687Y-82679740D01*
X120943039Y-82687185D01*
X120948966Y-82694025D01*
X120957203Y-82697787D01*
X120971492Y-82720021D01*
X120988794Y-82739989D01*
X120991081Y-82750503D01*
X120994977Y-82756565D01*
X121000000Y-82791500D01*
X121000000Y-82817500D01*
X121026000Y-82817500D01*
X121093039Y-82837185D01*
X121138794Y-82889989D01*
X121150000Y-82941500D01*
X121150000Y-83484999D01*
X121209794Y-83484999D01*
X121240546Y-83482116D01*
X121370009Y-83436815D01*
X121480367Y-83355367D01*
X121561815Y-83245009D01*
X121594564Y-83151417D01*
X121635286Y-83094641D01*
X121700238Y-83068893D01*
X121768800Y-83082349D01*
X121819203Y-83130736D01*
X121834310Y-83174492D01*
X121835619Y-83183479D01*
X121890587Y-83295918D01*
X121979081Y-83384412D01*
X122091517Y-83439379D01*
X122164418Y-83450000D01*
X122700000Y-83450000D01*
X123000000Y-83450000D01*
X123535582Y-83450000D01*
X123608482Y-83439379D01*
X123720918Y-83384412D01*
X123809412Y-83295918D01*
X123864380Y-83183479D01*
X123869258Y-83150000D01*
X123000000Y-83150000D01*
X123000000Y-83450000D01*
X122700000Y-83450000D01*
X122700000Y-83124000D01*
X122702550Y-83115314D01*
X122701262Y-83106353D01*
X122712240Y-83082312D01*
X122719685Y-83056961D01*
X122726525Y-83051033D01*
X122730287Y-83042797D01*
X122752521Y-83028507D01*
X122772489Y-83011206D01*
X122783003Y-83008918D01*
X122789065Y-83005023D01*
X122824000Y-83000000D01*
X122850000Y-83000000D01*
X122850000Y-82974000D01*
X122869685Y-82906961D01*
X122922489Y-82861206D01*
X122974000Y-82850000D01*
X123869258Y-82850000D01*
X123869258Y-82849999D01*
X123864380Y-82816520D01*
X123864379Y-82816517D01*
X123858487Y-82804465D01*
X123846725Y-82735592D01*
X123849126Y-82721837D01*
X123876070Y-82606306D01*
X123890792Y-82580274D01*
X123903268Y-82553092D01*
X123907810Y-82550184D01*
X123910466Y-82545489D01*
X123936928Y-82531548D01*
X123962116Y-82515427D01*
X123964671Y-82514712D01*
X123971121Y-82512984D01*
X124096651Y-82440510D01*
X124151342Y-82385819D01*
X124178269Y-82371115D01*
X124204088Y-82354523D01*
X124210288Y-82353631D01*
X124212665Y-82352334D01*
X124239023Y-82349500D01*
X124269613Y-82349500D01*
X124336652Y-82369185D01*
X124357294Y-82385819D01*
X124413181Y-82441706D01*
X124446666Y-82503029D01*
X124449500Y-82529387D01*
X124449500Y-83665500D01*
X124429815Y-83732539D01*
X124377011Y-83778294D01*
X124325500Y-83789500D01*
X124323492Y-83789500D01*
X123811508Y-83789500D01*
X123771322Y-83794325D01*
X123722242Y-83800219D01*
X123580181Y-83856241D01*
X123489059Y-83925341D01*
X123423747Y-83950164D01*
X123369586Y-83938944D01*
X123368779Y-83941253D01*
X123230549Y-83892883D01*
X123230541Y-83892882D01*
X123199805Y-83890000D01*
X123082500Y-83890000D01*
X123082500Y-85109999D01*
X123154659Y-85109999D01*
X123221698Y-85129684D01*
X123267453Y-85182488D01*
X123277397Y-85251646D01*
X123248372Y-85315202D01*
X123217780Y-85340731D01*
X123148138Y-85381916D01*
X123148129Y-85381923D01*
X123031923Y-85498129D01*
X123031917Y-85498137D01*
X122948255Y-85639603D01*
X122948254Y-85639606D01*
X122902402Y-85797426D01*
X122902401Y-85797432D01*
X122899500Y-85834298D01*
X122899500Y-86665701D01*
X122902401Y-86702567D01*
X122902402Y-86702573D01*
X122948254Y-86860393D01*
X122948255Y-86860396D01*
X123031917Y-87001862D01*
X123031923Y-87001870D01*
X123148129Y-87118076D01*
X123148132Y-87118078D01*
X123148135Y-87118081D01*
X123189040Y-87142272D01*
X123190724Y-87143268D01*
X123238407Y-87194338D01*
X123250910Y-87263079D01*
X123224264Y-87327669D01*
X123190724Y-87356732D01*
X123148135Y-87381919D01*
X123148129Y-87381923D01*
X123031923Y-87498129D01*
X123031917Y-87498137D01*
X122948255Y-87639603D01*
X122948254Y-87639606D01*
X122902402Y-87797426D01*
X122902401Y-87797432D01*
X122899500Y-87834298D01*
X122899500Y-88665701D01*
X122902401Y-88702567D01*
X122902402Y-88702573D01*
X122948254Y-88860393D01*
X122948255Y-88860396D01*
X123031917Y-89001862D01*
X123031923Y-89001870D01*
X123148129Y-89118076D01*
X123148140Y-89118085D01*
X123288620Y-89201163D01*
X123336304Y-89252231D01*
X123349500Y-89307895D01*
X123349500Y-89715240D01*
X123329815Y-89782279D01*
X123277011Y-89828034D01*
X123241691Y-89838178D01*
X123235540Y-89838988D01*
X123235527Y-89838991D01*
X123098574Y-89895719D01*
X123098571Y-89895720D01*
X123098571Y-89895721D01*
X122980964Y-89985964D01*
X122941791Y-90037016D01*
X122890719Y-90103574D01*
X122833991Y-90240527D01*
X122833990Y-90240529D01*
X122819500Y-90350598D01*
X122819500Y-90749403D01*
X122833988Y-90859463D01*
X122833991Y-90859472D01*
X122890719Y-90996426D01*
X122890720Y-90996428D01*
X122890721Y-90996429D01*
X122933109Y-91051671D01*
X122958303Y-91116838D01*
X122951775Y-91168111D01*
X122922930Y-91250544D01*
X122922929Y-91250549D01*
X122920000Y-91281786D01*
X122920000Y-91350000D01*
X123876000Y-91350000D01*
X123884685Y-91352550D01*
X123893647Y-91351262D01*
X123917687Y-91362240D01*
X123943039Y-91369685D01*
X123948966Y-91376525D01*
X123957203Y-91380287D01*
X123971492Y-91402521D01*
X123988794Y-91422489D01*
X123991081Y-91433003D01*
X123994977Y-91439065D01*
X124000000Y-91474000D01*
X124000000Y-91526000D01*
X123980315Y-91593039D01*
X123927511Y-91638794D01*
X123876000Y-91650000D01*
X122920001Y-91650000D01*
X122920001Y-91718202D01*
X122922931Y-91749459D01*
X122951774Y-91831890D01*
X122955335Y-91901668D01*
X122933109Y-91948328D01*
X122890720Y-92003571D01*
X122833991Y-92140527D01*
X122833990Y-92140529D01*
X122819500Y-92250598D01*
X122819500Y-92649403D01*
X122833988Y-92759463D01*
X122833991Y-92759472D01*
X122890721Y-92896429D01*
X122980964Y-93014036D01*
X123098571Y-93104279D01*
X123235528Y-93161009D01*
X123298946Y-93169358D01*
X123362843Y-93197624D01*
X123397322Y-93244844D01*
X123423533Y-93308125D01*
X123494726Y-93414673D01*
X123494727Y-93414674D01*
X125122398Y-95042344D01*
X125150149Y-95088643D01*
X125151011Y-95088286D01*
X125209912Y-95230488D01*
X125209919Y-95230501D01*
X125292048Y-95353415D01*
X125292051Y-95353419D01*
X125396580Y-95457948D01*
X125396584Y-95457951D01*
X125519498Y-95540080D01*
X125519511Y-95540087D01*
X125656082Y-95596656D01*
X125656087Y-95596658D01*
X125656091Y-95596658D01*
X125656092Y-95596659D01*
X125801079Y-95625500D01*
X125801082Y-95625500D01*
X125948916Y-95625500D01*
X125948918Y-95625500D01*
X125958514Y-95623591D01*
X126028104Y-95629817D01*
X126083282Y-95672678D01*
X126106529Y-95738567D01*
X126090463Y-95806564D01*
X126070388Y-95832889D01*
X125678518Y-96224760D01*
X125355648Y-96547630D01*
X125301638Y-96601640D01*
X125247628Y-96655649D01*
X125162764Y-96782656D01*
X125162759Y-96782665D01*
X125104302Y-96923794D01*
X125104300Y-96923802D01*
X125074500Y-97073615D01*
X125074500Y-97676000D01*
X125054815Y-97743039D01*
X125002011Y-97788794D01*
X124950500Y-97800000D01*
X124217388Y-97800000D01*
X124171898Y-97791355D01*
X124093943Y-97760613D01*
X124005554Y-97750000D01*
X123662500Y-97750000D01*
X123662500Y-98526000D01*
X123659949Y-98534685D01*
X123661238Y-98543647D01*
X123650259Y-98567687D01*
X123642815Y-98593039D01*
X123635974Y-98598966D01*
X123632213Y-98607203D01*
X123609978Y-98621492D01*
X123590011Y-98638794D01*
X123579496Y-98641081D01*
X123573435Y-98644977D01*
X123538500Y-98650000D01*
X123512500Y-98650000D01*
X123512500Y-98676000D01*
X123492815Y-98743039D01*
X123440011Y-98788794D01*
X123388500Y-98800000D01*
X122512500Y-98800000D01*
X122512500Y-99043053D01*
X122523113Y-99131443D01*
X122578579Y-99272095D01*
X122669935Y-99392564D01*
X122790406Y-99483921D01*
X122794777Y-99486379D01*
X122843566Y-99536393D01*
X122857570Y-99604845D01*
X122832343Y-99670002D01*
X122797126Y-99701198D01*
X122660638Y-99781916D01*
X122660629Y-99781923D01*
X122544423Y-99898129D01*
X122544418Y-99898135D01*
X122531489Y-99919999D01*
X122520475Y-99938621D01*
X122469408Y-99986304D01*
X122413744Y-99999500D01*
X121598429Y-99999500D01*
X121472761Y-100024497D01*
X121472755Y-100024499D01*
X121354374Y-100073534D01*
X121247826Y-100144726D01*
X121247825Y-100144727D01*
X121079373Y-100313181D01*
X121018050Y-100346666D01*
X120991692Y-100349500D01*
X120297259Y-100349500D01*
X120230220Y-100329815D01*
X120184465Y-100277011D01*
X120174319Y-100241683D01*
X120173509Y-100235528D01*
X120116779Y-100098571D01*
X120026536Y-99980964D01*
X119908929Y-99890721D01*
X119908925Y-99890719D01*
X119771972Y-99833991D01*
X119771970Y-99833990D01*
X119661901Y-99819500D01*
X119263096Y-99819500D01*
X119153036Y-99833988D01*
X119153027Y-99833991D01*
X119016071Y-99890720D01*
X118960828Y-99933109D01*
X118895658Y-99958302D01*
X118844389Y-99951774D01*
X118761958Y-99922930D01*
X118761950Y-99922929D01*
X118730713Y-99920000D01*
X118662500Y-99920000D01*
X118662500Y-102079999D01*
X118730702Y-102079999D01*
X118761958Y-102077068D01*
X118844387Y-102048225D01*
X118914166Y-102044662D01*
X118960827Y-102066889D01*
X119016071Y-102109279D01*
X119153028Y-102166009D01*
X119263099Y-102180500D01*
X119661900Y-102180499D01*
X119661903Y-102180499D01*
X119771963Y-102166011D01*
X119771967Y-102166009D01*
X119771972Y-102166009D01*
X119908929Y-102109279D01*
X120026536Y-102019036D01*
X120116779Y-101901429D01*
X120173509Y-101764472D01*
X120174319Y-101758314D01*
X120202583Y-101694421D01*
X120260906Y-101655948D01*
X120297258Y-101650500D01*
X121376571Y-101650500D01*
X121461115Y-101633682D01*
X121502244Y-101625501D01*
X121620627Y-101576465D01*
X121642277Y-101561999D01*
X121727169Y-101505277D01*
X121895627Y-101336819D01*
X121956950Y-101303334D01*
X121983308Y-101300500D01*
X122413744Y-101300500D01*
X122480783Y-101320185D01*
X122520475Y-101361378D01*
X122533495Y-101383393D01*
X122544418Y-101401864D01*
X122544423Y-101401870D01*
X122660629Y-101518076D01*
X122660640Y-101518085D01*
X122801120Y-101601163D01*
X122808870Y-101609463D01*
X122819203Y-101614182D01*
X122832288Y-101634543D01*
X122848804Y-101652231D01*
X122851813Y-101664925D01*
X122856977Y-101672960D01*
X122862000Y-101707895D01*
X122862000Y-101942104D01*
X122842315Y-102009143D01*
X122801121Y-102048836D01*
X122660638Y-102131916D01*
X122660629Y-102131923D01*
X122544423Y-102248129D01*
X122544417Y-102248137D01*
X122460755Y-102389603D01*
X122460754Y-102389606D01*
X122414902Y-102547426D01*
X122414901Y-102547432D01*
X122412000Y-102584298D01*
X122412000Y-103415701D01*
X122414901Y-103452567D01*
X122414902Y-103452573D01*
X122460754Y-103610393D01*
X122460755Y-103610396D01*
X122544417Y-103751862D01*
X122544423Y-103751870D01*
X122660629Y-103868076D01*
X122660632Y-103868078D01*
X122660635Y-103868081D01*
X122683576Y-103881648D01*
X122703224Y-103893268D01*
X122750907Y-103944338D01*
X122763410Y-104013079D01*
X122736764Y-104077669D01*
X122703224Y-104106732D01*
X122660635Y-104131919D01*
X122660629Y-104131923D01*
X122544423Y-104248129D01*
X122544417Y-104248137D01*
X122460755Y-104389603D01*
X122460754Y-104389606D01*
X122414902Y-104547426D01*
X122414901Y-104547432D01*
X122412000Y-104584298D01*
X122412000Y-105415701D01*
X122414901Y-105452567D01*
X122414902Y-105452573D01*
X122460754Y-105610393D01*
X122460755Y-105610396D01*
X122544417Y-105751862D01*
X122544423Y-105751870D01*
X122660629Y-105868076D01*
X122660640Y-105868085D01*
X122801120Y-105951163D01*
X122848804Y-106002231D01*
X122862000Y-106057895D01*
X122862000Y-106916691D01*
X122842315Y-106983730D01*
X122825681Y-107004372D01*
X122344727Y-107485325D01*
X122344724Y-107485328D01*
X122295025Y-107559708D01*
X122295026Y-107559709D01*
X122273534Y-107591874D01*
X122224499Y-107710255D01*
X122224497Y-107710261D01*
X122199500Y-107835928D01*
X122199500Y-108970500D01*
X122179815Y-109037539D01*
X122127011Y-109083294D01*
X122075500Y-109094500D01*
X121274500Y-109094500D01*
X121207461Y-109074815D01*
X121161706Y-109022011D01*
X121150500Y-108970500D01*
X121150500Y-108935928D01*
X121125502Y-108810261D01*
X121125501Y-108810260D01*
X121125501Y-108810256D01*
X121076465Y-108691873D01*
X121076464Y-108691872D01*
X121076461Y-108691866D01*
X121005277Y-108585332D01*
X120992938Y-108572993D01*
X120914669Y-108494724D01*
X117636819Y-105216873D01*
X117603334Y-105155550D01*
X117600500Y-105129192D01*
X117600500Y-104090226D01*
X117620185Y-104023187D01*
X117633253Y-104006262D01*
X117641723Y-103997056D01*
X117644143Y-103995626D01*
X117758126Y-103881643D01*
X117776472Y-103850619D01*
X117785312Y-103841014D01*
X117804514Y-103829468D01*
X117820894Y-103814174D01*
X117833881Y-103811811D01*
X117845192Y-103805011D01*
X117867587Y-103805679D01*
X117889636Y-103801669D01*
X117901838Y-103806702D01*
X117915030Y-103807097D01*
X117933509Y-103819768D01*
X117954225Y-103828314D01*
X117970734Y-103845292D01*
X117972654Y-103846609D01*
X117973142Y-103847769D01*
X117975362Y-103850052D01*
X117991355Y-103871142D01*
X118109086Y-103960420D01*
X118109092Y-103960423D01*
X118246541Y-104014626D01*
X118332928Y-104025000D01*
X118525000Y-104025000D01*
X118825000Y-104025000D01*
X119017072Y-104025000D01*
X119103458Y-104014626D01*
X119240907Y-103960423D01*
X119240913Y-103960420D01*
X119358643Y-103871143D01*
X119447920Y-103753413D01*
X119447923Y-103753407D01*
X119502126Y-103615958D01*
X119512500Y-103529571D01*
X119512500Y-103400000D01*
X118825000Y-103400000D01*
X118825000Y-104025000D01*
X118525000Y-104025000D01*
X118525000Y-103100000D01*
X118825000Y-103100000D01*
X119512500Y-103100000D01*
X119512500Y-102970428D01*
X119502126Y-102884041D01*
X119447923Y-102746592D01*
X119447920Y-102746586D01*
X119358643Y-102628856D01*
X119240913Y-102539579D01*
X119240907Y-102539576D01*
X119103458Y-102485373D01*
X119017072Y-102475000D01*
X118825000Y-102475000D01*
X118825000Y-103100000D01*
X118525000Y-103100000D01*
X118525000Y-102475000D01*
X118332919Y-102475000D01*
X118329228Y-102475221D01*
X118329153Y-102473979D01*
X118311067Y-102470944D01*
X118287549Y-102471531D01*
X118277250Y-102465269D01*
X118265364Y-102463275D01*
X118247949Y-102447455D01*
X118227847Y-102435233D01*
X118222568Y-102424397D01*
X118213648Y-102416294D01*
X118207551Y-102393572D01*
X118197247Y-102372421D01*
X118197481Y-102356044D01*
X118195541Y-102348812D01*
X118196367Y-102337138D01*
X118196938Y-102332315D01*
X118213000Y-102251569D01*
X118213000Y-102196679D01*
X118213860Y-102189417D01*
X118224821Y-102163738D01*
X118232685Y-102136960D01*
X118238348Y-102132052D01*
X118241292Y-102125157D01*
X118264397Y-102109480D01*
X118285489Y-102091205D01*
X118294094Y-102089332D01*
X118299110Y-102085930D01*
X118311111Y-102085630D01*
X118336998Y-102079999D01*
X118362499Y-102079998D01*
X118362500Y-102079998D01*
X118362500Y-99920000D01*
X118362499Y-99919999D01*
X118294298Y-99920000D01*
X118263042Y-99922931D01*
X118180610Y-99951775D01*
X118110831Y-99955336D01*
X118064171Y-99933110D01*
X118008929Y-99890721D01*
X118008928Y-99890720D01*
X118008926Y-99890719D01*
X117871972Y-99833991D01*
X117871970Y-99833990D01*
X117761901Y-99819500D01*
X117363096Y-99819500D01*
X117253036Y-99833988D01*
X117253027Y-99833991D01*
X117116074Y-99890719D01*
X117116071Y-99890720D01*
X117116071Y-99890721D01*
X116998464Y-99980964D01*
X116965059Y-100024499D01*
X116908219Y-100098574D01*
X116851491Y-100235527D01*
X116851490Y-100235529D01*
X116837001Y-100345589D01*
X116837000Y-100345605D01*
X116837000Y-101654403D01*
X116851488Y-101764463D01*
X116851490Y-101764470D01*
X116851491Y-101764472D01*
X116879213Y-101831398D01*
X116882490Y-101839309D01*
X116889959Y-101908778D01*
X116858684Y-101971258D01*
X116855610Y-101974443D01*
X116444717Y-102385336D01*
X116444286Y-102385862D01*
X116443904Y-102386149D01*
X116440416Y-102389638D01*
X116439926Y-102389148D01*
X116401280Y-102418280D01*
X116401320Y-102418348D01*
X116400722Y-102418701D01*
X116397705Y-102420976D01*
X116394613Y-102422314D01*
X116255859Y-102504372D01*
X116255851Y-102504378D01*
X116141878Y-102618351D01*
X116141869Y-102618363D01*
X116059820Y-102757103D01*
X116059817Y-102757110D01*
X116014846Y-102911897D01*
X116014845Y-102911903D01*
X116012000Y-102948057D01*
X116012000Y-103551922D01*
X116012001Y-103551947D01*
X116014846Y-103588098D01*
X116059817Y-103742889D01*
X116059820Y-103742896D01*
X116141869Y-103881636D01*
X116141878Y-103881648D01*
X116261373Y-104001143D01*
X116259368Y-104003147D01*
X116292401Y-104048872D01*
X116299500Y-104090226D01*
X116299500Y-105514069D01*
X116299500Y-105514071D01*
X116299499Y-105514071D01*
X116310503Y-105569386D01*
X116304276Y-105638978D01*
X116261413Y-105694155D01*
X116195524Y-105717400D01*
X116127526Y-105701332D01*
X116101205Y-105681259D01*
X113736819Y-103316872D01*
X113703334Y-103255549D01*
X113700500Y-103229191D01*
X113700500Y-90770808D01*
X113720185Y-90703769D01*
X113736819Y-90683127D01*
X115755272Y-88664674D01*
X115755277Y-88664669D01*
X115826466Y-88558126D01*
X115875501Y-88439743D01*
X115878534Y-88424499D01*
X115882536Y-88404383D01*
X115900499Y-88314073D01*
X115900500Y-88314071D01*
X115900500Y-86088452D01*
X115920185Y-86021413D01*
X115925697Y-86013526D01*
X115951258Y-85979818D01*
X115951260Y-85979816D01*
X116007280Y-85837759D01*
X116018000Y-85748492D01*
X116018000Y-85351508D01*
X116007280Y-85262241D01*
X115951260Y-85120184D01*
X115925695Y-85086471D01*
X115900873Y-85021159D01*
X115900500Y-85011547D01*
X115900500Y-84885928D01*
X115875502Y-84760261D01*
X115875501Y-84760260D01*
X115875501Y-84760256D01*
X115826465Y-84641873D01*
X115824469Y-84638885D01*
X115824469Y-84638884D01*
X115755278Y-84535332D01*
X115755272Y-84535325D01*
X115706972Y-84487026D01*
X115673486Y-84425703D01*
X115671713Y-84383162D01*
X115675500Y-84354401D01*
X115675499Y-83045600D01*
X115675499Y-83045599D01*
X115675499Y-83045596D01*
X115661011Y-82935536D01*
X115661009Y-82935529D01*
X115661009Y-82935528D01*
X115604279Y-82798571D01*
X115514036Y-82680964D01*
X115396429Y-82590721D01*
X115396425Y-82590719D01*
X115259472Y-82533991D01*
X115259470Y-82533990D01*
X115149401Y-82519500D01*
X114750596Y-82519500D01*
X114640536Y-82533988D01*
X114640527Y-82533991D01*
X114503571Y-82590720D01*
X114448328Y-82633109D01*
X114383158Y-82658302D01*
X114331889Y-82651774D01*
X114249458Y-82622930D01*
X114249450Y-82622929D01*
X114218213Y-82620000D01*
X114150000Y-82620000D01*
X114150000Y-84779555D01*
X114163598Y-84782076D01*
X114225927Y-84813648D01*
X114261293Y-84873906D01*
X114265000Y-84903999D01*
X114265000Y-85426000D01*
X114245315Y-85493039D01*
X114192511Y-85538794D01*
X114141000Y-85550000D01*
X114089000Y-85550000D01*
X114021961Y-85530315D01*
X113976206Y-85477511D01*
X113965000Y-85426000D01*
X113965000Y-84940443D01*
X113951404Y-84937924D01*
X113929988Y-84927076D01*
X113906961Y-84920315D01*
X113899390Y-84911578D01*
X113889074Y-84906353D01*
X113876922Y-84885648D01*
X113861206Y-84867511D01*
X113858219Y-84853781D01*
X113853708Y-84846095D01*
X113854153Y-84835091D01*
X113850000Y-84816000D01*
X113850000Y-82620000D01*
X113849999Y-82619999D01*
X113781798Y-82620000D01*
X113750542Y-82622931D01*
X113668110Y-82651775D01*
X113598331Y-82655336D01*
X113551671Y-82633110D01*
X113496429Y-82590721D01*
X113496428Y-82590720D01*
X113496426Y-82590719D01*
X113359472Y-82533991D01*
X113359470Y-82533990D01*
X113249401Y-82519500D01*
X112850596Y-82519500D01*
X112740536Y-82533988D01*
X112740527Y-82533991D01*
X112603574Y-82590719D01*
X112603571Y-82590720D01*
X112603571Y-82590721D01*
X112485964Y-82680964D01*
X112410313Y-82779555D01*
X112395719Y-82798574D01*
X112338991Y-82935527D01*
X112338990Y-82935529D01*
X112325427Y-83038555D01*
X112324501Y-83045596D01*
X112324500Y-83045605D01*
X110500500Y-83045605D01*
X110500500Y-81673202D01*
X112425001Y-81673202D01*
X112427931Y-81704459D01*
X112473977Y-81836051D01*
X112556769Y-81948230D01*
X112668948Y-82031022D01*
X112800537Y-82077068D01*
X112800549Y-82077070D01*
X112831787Y-82079999D01*
X113200000Y-82079999D01*
X113268202Y-82079999D01*
X113299459Y-82077068D01*
X113431051Y-82031022D01*
X113451366Y-82016030D01*
X113516995Y-81992059D01*
X113585165Y-82007374D01*
X113598634Y-82016030D01*
X113618948Y-82031022D01*
X113750537Y-82077068D01*
X113750549Y-82077070D01*
X113781787Y-82079999D01*
X113849999Y-82079998D01*
X113850000Y-82079998D01*
X113850000Y-81150000D01*
X113200000Y-81150000D01*
X113200000Y-82079999D01*
X112831787Y-82079999D01*
X112899999Y-82079998D01*
X112900000Y-82079998D01*
X112900000Y-81150000D01*
X112425001Y-81150000D01*
X112425001Y-81673202D01*
X110500500Y-81673202D01*
X110500500Y-80326786D01*
X112425000Y-80326786D01*
X112425000Y-80850000D01*
X112900000Y-80850000D01*
X112900000Y-79920000D01*
X113200000Y-79920000D01*
X113200000Y-80850000D01*
X113850000Y-80850000D01*
X113850000Y-79920000D01*
X113849999Y-79919999D01*
X113781798Y-79920000D01*
X113750542Y-79922931D01*
X113618945Y-79968978D01*
X113598632Y-79983970D01*
X113533003Y-80007940D01*
X113464833Y-79992624D01*
X113451368Y-79983970D01*
X113431055Y-79968979D01*
X113299455Y-79922930D01*
X113299450Y-79922929D01*
X113268213Y-79920000D01*
X113200000Y-79920000D01*
X112900000Y-79920000D01*
X112899999Y-79919999D01*
X112831798Y-79920000D01*
X112800539Y-79922931D01*
X112668948Y-79968977D01*
X112556769Y-80051769D01*
X112473977Y-80163948D01*
X112427931Y-80295537D01*
X112427929Y-80295549D01*
X112425000Y-80326786D01*
X110500500Y-80326786D01*
X110500500Y-73003750D01*
X110500726Y-72996263D01*
X110518271Y-72706205D01*
X110520076Y-72691340D01*
X110571780Y-72409201D01*
X110575364Y-72394663D01*
X110652096Y-72148422D01*
X110660696Y-72120822D01*
X110665998Y-72106841D01*
X110783731Y-71845249D01*
X110790676Y-71832016D01*
X110939080Y-71586526D01*
X110947567Y-71574230D01*
X111124480Y-71348417D01*
X111134395Y-71337226D01*
X111337226Y-71134395D01*
X111348417Y-71124480D01*
X111574230Y-70947567D01*
X111586526Y-70939080D01*
X111832016Y-70790676D01*
X111845249Y-70783731D01*
X112106841Y-70665998D01*
X112120822Y-70660696D01*
X112394668Y-70575362D01*
X112409197Y-70571780D01*
X112691344Y-70520075D01*
X112706201Y-70518271D01*
X112996264Y-70500726D01*
X113003751Y-70500500D01*
X113065892Y-70500500D01*
X136934108Y-70500500D01*
X136996249Y-70500500D01*
X137003736Y-70500726D01*
G37*
%TD.AperFunction*%
%TD*%
M02*
