M48
; DRILL file {KiCad 9.0.7} date 2026-07-15T19:52:39+0200
; FORMAT={-:-/ absolute / metric / decimal}
; #@! TF.CreationDate,2026-07-15T19:52:39+02:00
; #@! TF.GenerationSoftware,Kicad,Pcbnew,9.0.7
; #@! TF.FileFunction,Plated,1,2,PTH
FMAT,2
METRIC
; #@! TA.AperFunction,Plated,PTH,ViaDrill
T1C0.300
; #@! TA.AperFunction,Plated,PTH,ComponentDrill
T2C1.000
; #@! TA.AperFunction,Plated,PTH,ComponentDrill
T3C1.050
; #@! TA.AperFunction,Plated,PTH,ComponentDrill
T4C2.700
%
G90
G05
T1
X111.5Y-77.5
X111.5Y-82.75
X111.5Y-84.5
X111.5Y-87.5
X111.5Y-92.9
X111.5Y-97.75
X111.5Y-99.5
X111.5Y-103.5
X111.5Y-106.0
X111.5Y-109.25
X111.5Y-112.5
X111.5Y-115.0
X111.5Y-117.5
X111.5Y-120.0
X111.5Y-125.0
X111.5Y-127.5
X111.75Y-81.0
X112.5Y-122.5
X113.0Y-79.5
X113.0Y-107.5
X113.5Y-77.5
X113.75Y-111.25
X113.75Y-127.5
X113.95Y-79.5
X114.0Y-86.6
X114.1Y-121.0
X115.0Y-92.5
X115.0Y-95.0
X115.0Y-97.5
X115.0Y-100.75
X115.0Y-102.5
X115.0Y-107.5
X115.75Y-90.0
X115.75Y-104.5
X116.0Y-79.25
X116.0Y-109.25
X116.25Y-127.5
X116.5Y-80.5
X116.5Y-82.25
X116.75Y-130.0
X116.75Y-132.5
X117.5Y-72.5
X117.5Y-75.0
X117.5Y-135.0
X118.25Y-85.0
X118.25Y-87.5
X118.25Y-90.0
X118.25Y-92.5
X118.5Y-78.5
X118.5Y-80.5
X118.75Y-137.5
X118.75Y-140.0
X118.75Y-142.5
X119.25Y-104.5
X120.0Y-72.5
X120.0Y-75.0
X120.0Y-82.75
X120.0Y-94.0
X120.0Y-106.25
X120.062Y-103.25
X120.25Y-80.5
X120.25Y-86.0
X120.25Y-88.75
X120.25Y-127.5
X120.25Y-130.0
X120.25Y-132.5
X120.5Y-91.5
X120.812Y-98.25
X121.1Y-115.0
X121.1Y-116.5
X121.1Y-118.0
X121.562Y-95.75
X121.75Y-102.25
X121.75Y-104.0
X121.75Y-106.5
X121.75Y-108.5
X122.0Y-98.5
X122.25Y-89.5
X122.25Y-91.5
X122.25Y-93.25
X122.5Y-72.5
X122.5Y-75.0
X122.5Y-85.5
X122.5Y-125.0
X122.5Y-127.5
X122.5Y-130.0
X122.5Y-132.5
X122.5Y-143.5
X122.75Y-135.0
X122.85Y-116.5
X123.5Y-97.25
X124.25Y-77.5
X124.25Y-79.25
X124.25Y-83.0
X124.75Y-118.0
X125.0Y-72.5
X125.0Y-75.0
X125.0Y-96.0
X125.0Y-125.0
X125.25Y-120.0
X125.25Y-122.5
X125.25Y-130.0
X125.25Y-132.5
X125.25Y-135.0
X125.5Y-81.25
X125.5Y-85.25
X125.5Y-87.25
X125.5Y-89.25
X125.85Y-116.5
X125.875Y-94.875
X126.0Y-84.0
X126.25Y-76.25
X127.25Y-86.25
X127.25Y-117.5
X127.25Y-120.0
X127.25Y-122.5
X127.5Y-72.5
X127.5Y-75.0
X127.5Y-127.5
X127.5Y-130.0
X127.5Y-132.5
X127.5Y-143.5
X128.0Y-97.0
X128.0Y-139.0
X128.0Y-142.0
X128.75Y-76.25
X128.75Y-77.5
X128.75Y-79.25
X128.75Y-85.25
X128.75Y-87.25
X128.75Y-96.0
X129.25Y-81.5
X129.25Y-82.5
X129.25Y-83.5
X129.25Y-139.5
X129.25Y-141.5
X129.5Y-107.5
X129.5Y-110.0
X129.5Y-112.5
X129.5Y-115.0
X129.5Y-117.5
X129.5Y-120.0
X129.5Y-122.5
X129.5Y-125.0
X129.5Y-127.5
X129.5Y-130.0
X129.5Y-140.5
X130.0Y-72.5
X130.0Y-75.0
X131.25Y-135.0
X131.25Y-137.5
X131.25Y-140.0
X131.25Y-142.5
X131.75Y-101.25
X132.5Y-72.5
X132.5Y-75.0
X132.5Y-112.5
X132.5Y-115.0
X132.5Y-117.5
X132.5Y-120.0
X132.5Y-122.5
X132.5Y-130.0
X132.5Y-132.5
X132.75Y-80.5
X133.0Y-78.5
X133.25Y-109.0
X133.25Y-125.5
X134.0Y-82.25
X134.0Y-84.75
X134.0Y-87.5
X134.0Y-89.75
X134.25Y-128.5
X136.4Y-128.5
X139.0Y-82.25
X139.0Y-84.5
X139.0Y-92.5
X139.0Y-94.75
X139.0Y-100.0
X139.0Y-102.5
X139.0Y-112.75
X139.0Y-115.0
X139.0Y-118.0
X139.0Y-120.0
T2
X135.21Y-78.4
X135.21Y-80.94
X135.21Y-83.48
X135.21Y-86.02
X135.21Y-88.56
X135.21Y-91.1
X135.21Y-93.64
X135.21Y-96.18
X135.21Y-98.72
X135.21Y-101.26
X135.21Y-103.8
X135.21Y-106.34
X135.21Y-108.88
X135.21Y-111.42
X135.21Y-113.96
X135.21Y-116.5
X135.21Y-119.04
X135.21Y-121.58
X135.21Y-124.12
X135.21Y-126.66
X137.75Y-78.4
X137.75Y-80.94
X137.75Y-83.48
X137.75Y-86.02
X137.75Y-88.56
X137.75Y-91.1
X137.75Y-93.64
X137.75Y-96.18
X137.75Y-98.72
X137.75Y-101.26
X137.75Y-103.8
X137.75Y-106.34
X137.75Y-108.88
X137.75Y-111.42
X137.75Y-113.96
X137.75Y-116.5
X137.75Y-119.04
X137.75Y-121.58
X137.75Y-124.12
X137.75Y-126.66
T3
X122.0Y-140.5
X124.0Y-140.5
X126.0Y-140.5
X128.0Y-140.5
T4
X113.5Y-73.5
X113.5Y-131.5
X136.5Y-73.5
X136.5Y-131.5
M30
