%TF.GenerationSoftware,KiCad,Pcbnew,9.0.7*%
%TF.CreationDate,2026-07-15T19:52:47+02:00*%
%TF.ProjectId,PSU_Control_RPI,5053555f-436f-46e7-9472-6f6c5f525049,A*%
%TF.SameCoordinates,Original*%
%TF.FileFunction,Legend,Top*%
%TF.FilePolarity,Positive*%
%FSLAX46Y46*%
G04 Gerber Fmt 4.6, Leading zero omitted, Abs format (unit mm)*
G04 Created by KiCad (PCBNEW 9.0.7) date 2026-07-15 19:52:47*
%MOMM*%
%LPD*%
G01*
G04 APERTURE LIST*
%ADD10C,0.150000*%
%ADD11C,0.254000*%
%ADD12C,0.120000*%
%ADD13C,0.200000*%
G04 APERTURE END LIST*
D10*
X128083333Y-113859580D02*
X128035714Y-113907200D01*
X128035714Y-113907200D02*
X127892857Y-113954819D01*
X127892857Y-113954819D02*
X127797619Y-113954819D01*
X127797619Y-113954819D02*
X127654762Y-113907200D01*
X127654762Y-113907200D02*
X127559524Y-113811961D01*
X127559524Y-113811961D02*
X127511905Y-113716723D01*
X127511905Y-113716723D02*
X127464286Y-113526247D01*
X127464286Y-113526247D02*
X127464286Y-113383390D01*
X127464286Y-113383390D02*
X127511905Y-113192914D01*
X127511905Y-113192914D02*
X127559524Y-113097676D01*
X127559524Y-113097676D02*
X127654762Y-113002438D01*
X127654762Y-113002438D02*
X127797619Y-112954819D01*
X127797619Y-112954819D02*
X127892857Y-112954819D01*
X127892857Y-112954819D02*
X128035714Y-113002438D01*
X128035714Y-113002438D02*
X128083333Y-113050057D01*
X128940476Y-113288152D02*
X128940476Y-113954819D01*
X128702381Y-112907200D02*
X128464286Y-113621485D01*
X128464286Y-113621485D02*
X129083333Y-113621485D01*
X118357142Y-82109580D02*
X118309523Y-82157200D01*
X118309523Y-82157200D02*
X118166666Y-82204819D01*
X118166666Y-82204819D02*
X118071428Y-82204819D01*
X118071428Y-82204819D02*
X117928571Y-82157200D01*
X117928571Y-82157200D02*
X117833333Y-82061961D01*
X117833333Y-82061961D02*
X117785714Y-81966723D01*
X117785714Y-81966723D02*
X117738095Y-81776247D01*
X117738095Y-81776247D02*
X117738095Y-81633390D01*
X117738095Y-81633390D02*
X117785714Y-81442914D01*
X117785714Y-81442914D02*
X117833333Y-81347676D01*
X117833333Y-81347676D02*
X117928571Y-81252438D01*
X117928571Y-81252438D02*
X118071428Y-81204819D01*
X118071428Y-81204819D02*
X118166666Y-81204819D01*
X118166666Y-81204819D02*
X118309523Y-81252438D01*
X118309523Y-81252438D02*
X118357142Y-81300057D01*
X119309523Y-82204819D02*
X118738095Y-82204819D01*
X119023809Y-82204819D02*
X119023809Y-81204819D01*
X119023809Y-81204819D02*
X118928571Y-81347676D01*
X118928571Y-81347676D02*
X118833333Y-81442914D01*
X118833333Y-81442914D02*
X118738095Y-81490533D01*
X120261904Y-82204819D02*
X119690476Y-82204819D01*
X119976190Y-82204819D02*
X119976190Y-81204819D01*
X119976190Y-81204819D02*
X119880952Y-81347676D01*
X119880952Y-81347676D02*
X119785714Y-81442914D01*
X119785714Y-81442914D02*
X119690476Y-81490533D01*
X117357142Y-79709580D02*
X117309523Y-79757200D01*
X117309523Y-79757200D02*
X117166666Y-79804819D01*
X117166666Y-79804819D02*
X117071428Y-79804819D01*
X117071428Y-79804819D02*
X116928571Y-79757200D01*
X116928571Y-79757200D02*
X116833333Y-79661961D01*
X116833333Y-79661961D02*
X116785714Y-79566723D01*
X116785714Y-79566723D02*
X116738095Y-79376247D01*
X116738095Y-79376247D02*
X116738095Y-79233390D01*
X116738095Y-79233390D02*
X116785714Y-79042914D01*
X116785714Y-79042914D02*
X116833333Y-78947676D01*
X116833333Y-78947676D02*
X116928571Y-78852438D01*
X116928571Y-78852438D02*
X117071428Y-78804819D01*
X117071428Y-78804819D02*
X117166666Y-78804819D01*
X117166666Y-78804819D02*
X117309523Y-78852438D01*
X117309523Y-78852438D02*
X117357142Y-78900057D01*
X118309523Y-79804819D02*
X117738095Y-79804819D01*
X118023809Y-79804819D02*
X118023809Y-78804819D01*
X118023809Y-78804819D02*
X117928571Y-78947676D01*
X117928571Y-78947676D02*
X117833333Y-79042914D01*
X117833333Y-79042914D02*
X117738095Y-79090533D01*
X118928571Y-78804819D02*
X119023809Y-78804819D01*
X119023809Y-78804819D02*
X119119047Y-78852438D01*
X119119047Y-78852438D02*
X119166666Y-78900057D01*
X119166666Y-78900057D02*
X119214285Y-78995295D01*
X119214285Y-78995295D02*
X119261904Y-79185771D01*
X119261904Y-79185771D02*
X119261904Y-79423866D01*
X119261904Y-79423866D02*
X119214285Y-79614342D01*
X119214285Y-79614342D02*
X119166666Y-79709580D01*
X119166666Y-79709580D02*
X119119047Y-79757200D01*
X119119047Y-79757200D02*
X119023809Y-79804819D01*
X119023809Y-79804819D02*
X118928571Y-79804819D01*
X118928571Y-79804819D02*
X118833333Y-79757200D01*
X118833333Y-79757200D02*
X118785714Y-79709580D01*
X118785714Y-79709580D02*
X118738095Y-79614342D01*
X118738095Y-79614342D02*
X118690476Y-79423866D01*
X118690476Y-79423866D02*
X118690476Y-79185771D01*
X118690476Y-79185771D02*
X118738095Y-78995295D01*
X118738095Y-78995295D02*
X118785714Y-78900057D01*
X118785714Y-78900057D02*
X118833333Y-78852438D01*
X118833333Y-78852438D02*
X118928571Y-78804819D01*
X125395833Y-100104819D02*
X125062500Y-99628628D01*
X124824405Y-100104819D02*
X124824405Y-99104819D01*
X124824405Y-99104819D02*
X125205357Y-99104819D01*
X125205357Y-99104819D02*
X125300595Y-99152438D01*
X125300595Y-99152438D02*
X125348214Y-99200057D01*
X125348214Y-99200057D02*
X125395833Y-99295295D01*
X125395833Y-99295295D02*
X125395833Y-99438152D01*
X125395833Y-99438152D02*
X125348214Y-99533390D01*
X125348214Y-99533390D02*
X125300595Y-99581009D01*
X125300595Y-99581009D02*
X125205357Y-99628628D01*
X125205357Y-99628628D02*
X124824405Y-99628628D01*
X126252976Y-99438152D02*
X126252976Y-100104819D01*
X126014881Y-99057200D02*
X125776786Y-99771485D01*
X125776786Y-99771485D02*
X126395833Y-99771485D01*
X123238095Y-93454819D02*
X123238095Y-94264342D01*
X123238095Y-94264342D02*
X123285714Y-94359580D01*
X123285714Y-94359580D02*
X123333333Y-94407200D01*
X123333333Y-94407200D02*
X123428571Y-94454819D01*
X123428571Y-94454819D02*
X123619047Y-94454819D01*
X123619047Y-94454819D02*
X123714285Y-94407200D01*
X123714285Y-94407200D02*
X123761904Y-94359580D01*
X123761904Y-94359580D02*
X123809523Y-94264342D01*
X123809523Y-94264342D02*
X123809523Y-93454819D01*
X124714285Y-93788152D02*
X124714285Y-94454819D01*
X124476190Y-93407200D02*
X124238095Y-94121485D01*
X124238095Y-94121485D02*
X124857142Y-94121485D01*
X118333333Y-94259580D02*
X118285714Y-94307200D01*
X118285714Y-94307200D02*
X118142857Y-94354819D01*
X118142857Y-94354819D02*
X118047619Y-94354819D01*
X118047619Y-94354819D02*
X117904762Y-94307200D01*
X117904762Y-94307200D02*
X117809524Y-94211961D01*
X117809524Y-94211961D02*
X117761905Y-94116723D01*
X117761905Y-94116723D02*
X117714286Y-93926247D01*
X117714286Y-93926247D02*
X117714286Y-93783390D01*
X117714286Y-93783390D02*
X117761905Y-93592914D01*
X117761905Y-93592914D02*
X117809524Y-93497676D01*
X117809524Y-93497676D02*
X117904762Y-93402438D01*
X117904762Y-93402438D02*
X118047619Y-93354819D01*
X118047619Y-93354819D02*
X118142857Y-93354819D01*
X118142857Y-93354819D02*
X118285714Y-93402438D01*
X118285714Y-93402438D02*
X118333333Y-93450057D01*
X119190476Y-93354819D02*
X119000000Y-93354819D01*
X119000000Y-93354819D02*
X118904762Y-93402438D01*
X118904762Y-93402438D02*
X118857143Y-93450057D01*
X118857143Y-93450057D02*
X118761905Y-93592914D01*
X118761905Y-93592914D02*
X118714286Y-93783390D01*
X118714286Y-93783390D02*
X118714286Y-94164342D01*
X118714286Y-94164342D02*
X118761905Y-94259580D01*
X118761905Y-94259580D02*
X118809524Y-94307200D01*
X118809524Y-94307200D02*
X118904762Y-94354819D01*
X118904762Y-94354819D02*
X119095238Y-94354819D01*
X119095238Y-94354819D02*
X119190476Y-94307200D01*
X119190476Y-94307200D02*
X119238095Y-94259580D01*
X119238095Y-94259580D02*
X119285714Y-94164342D01*
X119285714Y-94164342D02*
X119285714Y-93926247D01*
X119285714Y-93926247D02*
X119238095Y-93831009D01*
X119238095Y-93831009D02*
X119190476Y-93783390D01*
X119190476Y-93783390D02*
X119095238Y-93735771D01*
X119095238Y-93735771D02*
X118904762Y-93735771D01*
X118904762Y-93735771D02*
X118809524Y-93783390D01*
X118809524Y-93783390D02*
X118761905Y-93831009D01*
X118761905Y-93831009D02*
X118714286Y-93926247D01*
X120333333Y-124029819D02*
X120000000Y-123553628D01*
X119761905Y-124029819D02*
X119761905Y-123029819D01*
X119761905Y-123029819D02*
X120142857Y-123029819D01*
X120142857Y-123029819D02*
X120238095Y-123077438D01*
X120238095Y-123077438D02*
X120285714Y-123125057D01*
X120285714Y-123125057D02*
X120333333Y-123220295D01*
X120333333Y-123220295D02*
X120333333Y-123363152D01*
X120333333Y-123363152D02*
X120285714Y-123458390D01*
X120285714Y-123458390D02*
X120238095Y-123506009D01*
X120238095Y-123506009D02*
X120142857Y-123553628D01*
X120142857Y-123553628D02*
X119761905Y-123553628D01*
X121285714Y-124029819D02*
X120714286Y-124029819D01*
X121000000Y-124029819D02*
X121000000Y-123029819D01*
X121000000Y-123029819D02*
X120904762Y-123172676D01*
X120904762Y-123172676D02*
X120809524Y-123267914D01*
X120809524Y-123267914D02*
X120714286Y-123315533D01*
X115988095Y-82954819D02*
X115988095Y-83764342D01*
X115988095Y-83764342D02*
X116035714Y-83859580D01*
X116035714Y-83859580D02*
X116083333Y-83907200D01*
X116083333Y-83907200D02*
X116178571Y-83954819D01*
X116178571Y-83954819D02*
X116369047Y-83954819D01*
X116369047Y-83954819D02*
X116464285Y-83907200D01*
X116464285Y-83907200D02*
X116511904Y-83859580D01*
X116511904Y-83859580D02*
X116559523Y-83764342D01*
X116559523Y-83764342D02*
X116559523Y-82954819D01*
X116940476Y-82954819D02*
X117559523Y-82954819D01*
X117559523Y-82954819D02*
X117226190Y-83335771D01*
X117226190Y-83335771D02*
X117369047Y-83335771D01*
X117369047Y-83335771D02*
X117464285Y-83383390D01*
X117464285Y-83383390D02*
X117511904Y-83431009D01*
X117511904Y-83431009D02*
X117559523Y-83526247D01*
X117559523Y-83526247D02*
X117559523Y-83764342D01*
X117559523Y-83764342D02*
X117511904Y-83859580D01*
X117511904Y-83859580D02*
X117464285Y-83907200D01*
X117464285Y-83907200D02*
X117369047Y-83954819D01*
X117369047Y-83954819D02*
X117083333Y-83954819D01*
X117083333Y-83954819D02*
X116988095Y-83907200D01*
X116988095Y-83907200D02*
X116940476Y-83859580D01*
X114600595Y-99054819D02*
X114600595Y-99864342D01*
X114600595Y-99864342D02*
X114648214Y-99959580D01*
X114648214Y-99959580D02*
X114695833Y-100007200D01*
X114695833Y-100007200D02*
X114791071Y-100054819D01*
X114791071Y-100054819D02*
X114981547Y-100054819D01*
X114981547Y-100054819D02*
X115076785Y-100007200D01*
X115076785Y-100007200D02*
X115124404Y-99959580D01*
X115124404Y-99959580D02*
X115172023Y-99864342D01*
X115172023Y-99864342D02*
X115172023Y-99054819D01*
X115600595Y-99150057D02*
X115648214Y-99102438D01*
X115648214Y-99102438D02*
X115743452Y-99054819D01*
X115743452Y-99054819D02*
X115981547Y-99054819D01*
X115981547Y-99054819D02*
X116076785Y-99102438D01*
X116076785Y-99102438D02*
X116124404Y-99150057D01*
X116124404Y-99150057D02*
X116172023Y-99245295D01*
X116172023Y-99245295D02*
X116172023Y-99340533D01*
X116172023Y-99340533D02*
X116124404Y-99483390D01*
X116124404Y-99483390D02*
X115552976Y-100054819D01*
X115552976Y-100054819D02*
X116172023Y-100054819D01*
X115088095Y-117164819D02*
X115088095Y-117974342D01*
X115088095Y-117974342D02*
X115135714Y-118069580D01*
X115135714Y-118069580D02*
X115183333Y-118117200D01*
X115183333Y-118117200D02*
X115278571Y-118164819D01*
X115278571Y-118164819D02*
X115469047Y-118164819D01*
X115469047Y-118164819D02*
X115564285Y-118117200D01*
X115564285Y-118117200D02*
X115611904Y-118069580D01*
X115611904Y-118069580D02*
X115659523Y-117974342D01*
X115659523Y-117974342D02*
X115659523Y-117164819D01*
X116659523Y-118164819D02*
X116088095Y-118164819D01*
X116373809Y-118164819D02*
X116373809Y-117164819D01*
X116373809Y-117164819D02*
X116278571Y-117307676D01*
X116278571Y-117307676D02*
X116183333Y-117402914D01*
X116183333Y-117402914D02*
X116088095Y-117450533D01*
X112333333Y-86109580D02*
X112285714Y-86157200D01*
X112285714Y-86157200D02*
X112142857Y-86204819D01*
X112142857Y-86204819D02*
X112047619Y-86204819D01*
X112047619Y-86204819D02*
X111904762Y-86157200D01*
X111904762Y-86157200D02*
X111809524Y-86061961D01*
X111809524Y-86061961D02*
X111761905Y-85966723D01*
X111761905Y-85966723D02*
X111714286Y-85776247D01*
X111714286Y-85776247D02*
X111714286Y-85633390D01*
X111714286Y-85633390D02*
X111761905Y-85442914D01*
X111761905Y-85442914D02*
X111809524Y-85347676D01*
X111809524Y-85347676D02*
X111904762Y-85252438D01*
X111904762Y-85252438D02*
X112047619Y-85204819D01*
X112047619Y-85204819D02*
X112142857Y-85204819D01*
X112142857Y-85204819D02*
X112285714Y-85252438D01*
X112285714Y-85252438D02*
X112333333Y-85300057D01*
X112666667Y-85204819D02*
X113333333Y-85204819D01*
X113333333Y-85204819D02*
X112904762Y-86204819D01*
X116183333Y-112454819D02*
X115707143Y-112454819D01*
X115707143Y-112454819D02*
X115707143Y-111454819D01*
X117040476Y-112454819D02*
X116469048Y-112454819D01*
X116754762Y-112454819D02*
X116754762Y-111454819D01*
X116754762Y-111454819D02*
X116659524Y-111597676D01*
X116659524Y-111597676D02*
X116564286Y-111692914D01*
X116564286Y-111692914D02*
X116469048Y-111740533D01*
D11*
X128576667Y-135354318D02*
X128576667Y-136261461D01*
X128576667Y-136261461D02*
X128516190Y-136442889D01*
X128516190Y-136442889D02*
X128395238Y-136563842D01*
X128395238Y-136563842D02*
X128213809Y-136624318D01*
X128213809Y-136624318D02*
X128092857Y-136624318D01*
X129846667Y-136624318D02*
X129120952Y-136624318D01*
X129483809Y-136624318D02*
X129483809Y-135354318D01*
X129483809Y-135354318D02*
X129362857Y-135535746D01*
X129362857Y-135535746D02*
X129241905Y-135656699D01*
X129241905Y-135656699D02*
X129120952Y-135717175D01*
D10*
X114933333Y-124704819D02*
X114600000Y-124228628D01*
X114361905Y-124704819D02*
X114361905Y-123704819D01*
X114361905Y-123704819D02*
X114742857Y-123704819D01*
X114742857Y-123704819D02*
X114838095Y-123752438D01*
X114838095Y-123752438D02*
X114885714Y-123800057D01*
X114885714Y-123800057D02*
X114933333Y-123895295D01*
X114933333Y-123895295D02*
X114933333Y-124038152D01*
X114933333Y-124038152D02*
X114885714Y-124133390D01*
X114885714Y-124133390D02*
X114838095Y-124181009D01*
X114838095Y-124181009D02*
X114742857Y-124228628D01*
X114742857Y-124228628D02*
X114361905Y-124228628D01*
X115314286Y-123800057D02*
X115361905Y-123752438D01*
X115361905Y-123752438D02*
X115457143Y-123704819D01*
X115457143Y-123704819D02*
X115695238Y-123704819D01*
X115695238Y-123704819D02*
X115790476Y-123752438D01*
X115790476Y-123752438D02*
X115838095Y-123800057D01*
X115838095Y-123800057D02*
X115885714Y-123895295D01*
X115885714Y-123895295D02*
X115885714Y-123990533D01*
X115885714Y-123990533D02*
X115838095Y-124133390D01*
X115838095Y-124133390D02*
X115266667Y-124704819D01*
X115266667Y-124704819D02*
X115885714Y-124704819D01*
X117645833Y-105109580D02*
X117598214Y-105157200D01*
X117598214Y-105157200D02*
X117455357Y-105204819D01*
X117455357Y-105204819D02*
X117360119Y-105204819D01*
X117360119Y-105204819D02*
X117217262Y-105157200D01*
X117217262Y-105157200D02*
X117122024Y-105061961D01*
X117122024Y-105061961D02*
X117074405Y-104966723D01*
X117074405Y-104966723D02*
X117026786Y-104776247D01*
X117026786Y-104776247D02*
X117026786Y-104633390D01*
X117026786Y-104633390D02*
X117074405Y-104442914D01*
X117074405Y-104442914D02*
X117122024Y-104347676D01*
X117122024Y-104347676D02*
X117217262Y-104252438D01*
X117217262Y-104252438D02*
X117360119Y-104204819D01*
X117360119Y-104204819D02*
X117455357Y-104204819D01*
X117455357Y-104204819D02*
X117598214Y-104252438D01*
X117598214Y-104252438D02*
X117645833Y-104300057D01*
X118550595Y-104204819D02*
X118074405Y-104204819D01*
X118074405Y-104204819D02*
X118026786Y-104681009D01*
X118026786Y-104681009D02*
X118074405Y-104633390D01*
X118074405Y-104633390D02*
X118169643Y-104585771D01*
X118169643Y-104585771D02*
X118407738Y-104585771D01*
X118407738Y-104585771D02*
X118502976Y-104633390D01*
X118502976Y-104633390D02*
X118550595Y-104681009D01*
X118550595Y-104681009D02*
X118598214Y-104776247D01*
X118598214Y-104776247D02*
X118598214Y-105014342D01*
X118598214Y-105014342D02*
X118550595Y-105109580D01*
X118550595Y-105109580D02*
X118502976Y-105157200D01*
X118502976Y-105157200D02*
X118407738Y-105204819D01*
X118407738Y-105204819D02*
X118169643Y-105204819D01*
X118169643Y-105204819D02*
X118074405Y-105157200D01*
X118074405Y-105157200D02*
X118026786Y-105109580D01*
X132166666Y-126954819D02*
X132166666Y-127669104D01*
X132166666Y-127669104D02*
X132119047Y-127811961D01*
X132119047Y-127811961D02*
X132023809Y-127907200D01*
X132023809Y-127907200D02*
X131880952Y-127954819D01*
X131880952Y-127954819D02*
X131785714Y-127954819D01*
X132595238Y-127050057D02*
X132642857Y-127002438D01*
X132642857Y-127002438D02*
X132738095Y-126954819D01*
X132738095Y-126954819D02*
X132976190Y-126954819D01*
X132976190Y-126954819D02*
X133071428Y-127002438D01*
X133071428Y-127002438D02*
X133119047Y-127050057D01*
X133119047Y-127050057D02*
X133166666Y-127145295D01*
X133166666Y-127145295D02*
X133166666Y-127240533D01*
X133166666Y-127240533D02*
X133119047Y-127383390D01*
X133119047Y-127383390D02*
X132547619Y-127954819D01*
X132547619Y-127954819D02*
X133166666Y-127954819D01*
X122683333Y-123359580D02*
X122635714Y-123407200D01*
X122635714Y-123407200D02*
X122492857Y-123454819D01*
X122492857Y-123454819D02*
X122397619Y-123454819D01*
X122397619Y-123454819D02*
X122254762Y-123407200D01*
X122254762Y-123407200D02*
X122159524Y-123311961D01*
X122159524Y-123311961D02*
X122111905Y-123216723D01*
X122111905Y-123216723D02*
X122064286Y-123026247D01*
X122064286Y-123026247D02*
X122064286Y-122883390D01*
X122064286Y-122883390D02*
X122111905Y-122692914D01*
X122111905Y-122692914D02*
X122159524Y-122597676D01*
X122159524Y-122597676D02*
X122254762Y-122502438D01*
X122254762Y-122502438D02*
X122397619Y-122454819D01*
X122397619Y-122454819D02*
X122492857Y-122454819D01*
X122492857Y-122454819D02*
X122635714Y-122502438D01*
X122635714Y-122502438D02*
X122683333Y-122550057D01*
X123635714Y-123454819D02*
X123064286Y-123454819D01*
X123350000Y-123454819D02*
X123350000Y-122454819D01*
X123350000Y-122454819D02*
X123254762Y-122597676D01*
X123254762Y-122597676D02*
X123159524Y-122692914D01*
X123159524Y-122692914D02*
X123064286Y-122740533D01*
X125857142Y-78109580D02*
X125809523Y-78157200D01*
X125809523Y-78157200D02*
X125666666Y-78204819D01*
X125666666Y-78204819D02*
X125571428Y-78204819D01*
X125571428Y-78204819D02*
X125428571Y-78157200D01*
X125428571Y-78157200D02*
X125333333Y-78061961D01*
X125333333Y-78061961D02*
X125285714Y-77966723D01*
X125285714Y-77966723D02*
X125238095Y-77776247D01*
X125238095Y-77776247D02*
X125238095Y-77633390D01*
X125238095Y-77633390D02*
X125285714Y-77442914D01*
X125285714Y-77442914D02*
X125333333Y-77347676D01*
X125333333Y-77347676D02*
X125428571Y-77252438D01*
X125428571Y-77252438D02*
X125571428Y-77204819D01*
X125571428Y-77204819D02*
X125666666Y-77204819D01*
X125666666Y-77204819D02*
X125809523Y-77252438D01*
X125809523Y-77252438D02*
X125857142Y-77300057D01*
X126809523Y-78204819D02*
X126238095Y-78204819D01*
X126523809Y-78204819D02*
X126523809Y-77204819D01*
X126523809Y-77204819D02*
X126428571Y-77347676D01*
X126428571Y-77347676D02*
X126333333Y-77442914D01*
X126333333Y-77442914D02*
X126238095Y-77490533D01*
X127190476Y-77300057D02*
X127238095Y-77252438D01*
X127238095Y-77252438D02*
X127333333Y-77204819D01*
X127333333Y-77204819D02*
X127571428Y-77204819D01*
X127571428Y-77204819D02*
X127666666Y-77252438D01*
X127666666Y-77252438D02*
X127714285Y-77300057D01*
X127714285Y-77300057D02*
X127761904Y-77395295D01*
X127761904Y-77395295D02*
X127761904Y-77490533D01*
X127761904Y-77490533D02*
X127714285Y-77633390D01*
X127714285Y-77633390D02*
X127142857Y-78204819D01*
X127142857Y-78204819D02*
X127761904Y-78204819D01*
X121083333Y-76424819D02*
X120750000Y-75948628D01*
X120511905Y-76424819D02*
X120511905Y-75424819D01*
X120511905Y-75424819D02*
X120892857Y-75424819D01*
X120892857Y-75424819D02*
X120988095Y-75472438D01*
X120988095Y-75472438D02*
X121035714Y-75520057D01*
X121035714Y-75520057D02*
X121083333Y-75615295D01*
X121083333Y-75615295D02*
X121083333Y-75758152D01*
X121083333Y-75758152D02*
X121035714Y-75853390D01*
X121035714Y-75853390D02*
X120988095Y-75901009D01*
X120988095Y-75901009D02*
X120892857Y-75948628D01*
X120892857Y-75948628D02*
X120511905Y-75948628D01*
X121988095Y-75424819D02*
X121511905Y-75424819D01*
X121511905Y-75424819D02*
X121464286Y-75901009D01*
X121464286Y-75901009D02*
X121511905Y-75853390D01*
X121511905Y-75853390D02*
X121607143Y-75805771D01*
X121607143Y-75805771D02*
X121845238Y-75805771D01*
X121845238Y-75805771D02*
X121940476Y-75853390D01*
X121940476Y-75853390D02*
X121988095Y-75901009D01*
X121988095Y-75901009D02*
X122035714Y-75996247D01*
X122035714Y-75996247D02*
X122035714Y-76234342D01*
X122035714Y-76234342D02*
X121988095Y-76329580D01*
X121988095Y-76329580D02*
X121940476Y-76377200D01*
X121940476Y-76377200D02*
X121845238Y-76424819D01*
X121845238Y-76424819D02*
X121607143Y-76424819D01*
X121607143Y-76424819D02*
X121511905Y-76377200D01*
X121511905Y-76377200D02*
X121464286Y-76329580D01*
X125395833Y-104454819D02*
X125062500Y-103978628D01*
X124824405Y-104454819D02*
X124824405Y-103454819D01*
X124824405Y-103454819D02*
X125205357Y-103454819D01*
X125205357Y-103454819D02*
X125300595Y-103502438D01*
X125300595Y-103502438D02*
X125348214Y-103550057D01*
X125348214Y-103550057D02*
X125395833Y-103645295D01*
X125395833Y-103645295D02*
X125395833Y-103788152D01*
X125395833Y-103788152D02*
X125348214Y-103883390D01*
X125348214Y-103883390D02*
X125300595Y-103931009D01*
X125300595Y-103931009D02*
X125205357Y-103978628D01*
X125205357Y-103978628D02*
X124824405Y-103978628D01*
X125729167Y-103454819D02*
X126348214Y-103454819D01*
X126348214Y-103454819D02*
X126014881Y-103835771D01*
X126014881Y-103835771D02*
X126157738Y-103835771D01*
X126157738Y-103835771D02*
X126252976Y-103883390D01*
X126252976Y-103883390D02*
X126300595Y-103931009D01*
X126300595Y-103931009D02*
X126348214Y-104026247D01*
X126348214Y-104026247D02*
X126348214Y-104264342D01*
X126348214Y-104264342D02*
X126300595Y-104359580D01*
X126300595Y-104359580D02*
X126252976Y-104407200D01*
X126252976Y-104407200D02*
X126157738Y-104454819D01*
X126157738Y-104454819D02*
X125872024Y-104454819D01*
X125872024Y-104454819D02*
X125776786Y-104407200D01*
X125776786Y-104407200D02*
X125729167Y-104359580D01*
X114333333Y-115359580D02*
X114285714Y-115407200D01*
X114285714Y-115407200D02*
X114142857Y-115454819D01*
X114142857Y-115454819D02*
X114047619Y-115454819D01*
X114047619Y-115454819D02*
X113904762Y-115407200D01*
X113904762Y-115407200D02*
X113809524Y-115311961D01*
X113809524Y-115311961D02*
X113761905Y-115216723D01*
X113761905Y-115216723D02*
X113714286Y-115026247D01*
X113714286Y-115026247D02*
X113714286Y-114883390D01*
X113714286Y-114883390D02*
X113761905Y-114692914D01*
X113761905Y-114692914D02*
X113809524Y-114597676D01*
X113809524Y-114597676D02*
X113904762Y-114502438D01*
X113904762Y-114502438D02*
X114047619Y-114454819D01*
X114047619Y-114454819D02*
X114142857Y-114454819D01*
X114142857Y-114454819D02*
X114285714Y-114502438D01*
X114285714Y-114502438D02*
X114333333Y-114550057D01*
X114714286Y-114550057D02*
X114761905Y-114502438D01*
X114761905Y-114502438D02*
X114857143Y-114454819D01*
X114857143Y-114454819D02*
X115095238Y-114454819D01*
X115095238Y-114454819D02*
X115190476Y-114502438D01*
X115190476Y-114502438D02*
X115238095Y-114550057D01*
X115238095Y-114550057D02*
X115285714Y-114645295D01*
X115285714Y-114645295D02*
X115285714Y-114740533D01*
X115285714Y-114740533D02*
X115238095Y-114883390D01*
X115238095Y-114883390D02*
X114666667Y-115454819D01*
X114666667Y-115454819D02*
X115285714Y-115454819D01*
X122683333Y-110484580D02*
X122635714Y-110532200D01*
X122635714Y-110532200D02*
X122492857Y-110579819D01*
X122492857Y-110579819D02*
X122397619Y-110579819D01*
X122397619Y-110579819D02*
X122254762Y-110532200D01*
X122254762Y-110532200D02*
X122159524Y-110436961D01*
X122159524Y-110436961D02*
X122111905Y-110341723D01*
X122111905Y-110341723D02*
X122064286Y-110151247D01*
X122064286Y-110151247D02*
X122064286Y-110008390D01*
X122064286Y-110008390D02*
X122111905Y-109817914D01*
X122111905Y-109817914D02*
X122159524Y-109722676D01*
X122159524Y-109722676D02*
X122254762Y-109627438D01*
X122254762Y-109627438D02*
X122397619Y-109579819D01*
X122397619Y-109579819D02*
X122492857Y-109579819D01*
X122492857Y-109579819D02*
X122635714Y-109627438D01*
X122635714Y-109627438D02*
X122683333Y-109675057D01*
X123016667Y-109579819D02*
X123635714Y-109579819D01*
X123635714Y-109579819D02*
X123302381Y-109960771D01*
X123302381Y-109960771D02*
X123445238Y-109960771D01*
X123445238Y-109960771D02*
X123540476Y-110008390D01*
X123540476Y-110008390D02*
X123588095Y-110056009D01*
X123588095Y-110056009D02*
X123635714Y-110151247D01*
X123635714Y-110151247D02*
X123635714Y-110389342D01*
X123635714Y-110389342D02*
X123588095Y-110484580D01*
X123588095Y-110484580D02*
X123540476Y-110532200D01*
X123540476Y-110532200D02*
X123445238Y-110579819D01*
X123445238Y-110579819D02*
X123159524Y-110579819D01*
X123159524Y-110579819D02*
X123064286Y-110532200D01*
X123064286Y-110532200D02*
X123016667Y-110484580D01*
X121083333Y-84859580D02*
X121035714Y-84907200D01*
X121035714Y-84907200D02*
X120892857Y-84954819D01*
X120892857Y-84954819D02*
X120797619Y-84954819D01*
X120797619Y-84954819D02*
X120654762Y-84907200D01*
X120654762Y-84907200D02*
X120559524Y-84811961D01*
X120559524Y-84811961D02*
X120511905Y-84716723D01*
X120511905Y-84716723D02*
X120464286Y-84526247D01*
X120464286Y-84526247D02*
X120464286Y-84383390D01*
X120464286Y-84383390D02*
X120511905Y-84192914D01*
X120511905Y-84192914D02*
X120559524Y-84097676D01*
X120559524Y-84097676D02*
X120654762Y-84002438D01*
X120654762Y-84002438D02*
X120797619Y-83954819D01*
X120797619Y-83954819D02*
X120892857Y-83954819D01*
X120892857Y-83954819D02*
X121035714Y-84002438D01*
X121035714Y-84002438D02*
X121083333Y-84050057D01*
X121654762Y-84383390D02*
X121559524Y-84335771D01*
X121559524Y-84335771D02*
X121511905Y-84288152D01*
X121511905Y-84288152D02*
X121464286Y-84192914D01*
X121464286Y-84192914D02*
X121464286Y-84145295D01*
X121464286Y-84145295D02*
X121511905Y-84050057D01*
X121511905Y-84050057D02*
X121559524Y-84002438D01*
X121559524Y-84002438D02*
X121654762Y-83954819D01*
X121654762Y-83954819D02*
X121845238Y-83954819D01*
X121845238Y-83954819D02*
X121940476Y-84002438D01*
X121940476Y-84002438D02*
X121988095Y-84050057D01*
X121988095Y-84050057D02*
X122035714Y-84145295D01*
X122035714Y-84145295D02*
X122035714Y-84192914D01*
X122035714Y-84192914D02*
X121988095Y-84288152D01*
X121988095Y-84288152D02*
X121940476Y-84335771D01*
X121940476Y-84335771D02*
X121845238Y-84383390D01*
X121845238Y-84383390D02*
X121654762Y-84383390D01*
X121654762Y-84383390D02*
X121559524Y-84431009D01*
X121559524Y-84431009D02*
X121511905Y-84478628D01*
X121511905Y-84478628D02*
X121464286Y-84573866D01*
X121464286Y-84573866D02*
X121464286Y-84764342D01*
X121464286Y-84764342D02*
X121511905Y-84859580D01*
X121511905Y-84859580D02*
X121559524Y-84907200D01*
X121559524Y-84907200D02*
X121654762Y-84954819D01*
X121654762Y-84954819D02*
X121845238Y-84954819D01*
X121845238Y-84954819D02*
X121940476Y-84907200D01*
X121940476Y-84907200D02*
X121988095Y-84859580D01*
X121988095Y-84859580D02*
X122035714Y-84764342D01*
X122035714Y-84764342D02*
X122035714Y-84573866D01*
X122035714Y-84573866D02*
X121988095Y-84478628D01*
X121988095Y-84478628D02*
X121940476Y-84431009D01*
X121940476Y-84431009D02*
X121845238Y-84383390D01*
X126988095Y-83704819D02*
X126988095Y-84514342D01*
X126988095Y-84514342D02*
X127035714Y-84609580D01*
X127035714Y-84609580D02*
X127083333Y-84657200D01*
X127083333Y-84657200D02*
X127178571Y-84704819D01*
X127178571Y-84704819D02*
X127369047Y-84704819D01*
X127369047Y-84704819D02*
X127464285Y-84657200D01*
X127464285Y-84657200D02*
X127511904Y-84609580D01*
X127511904Y-84609580D02*
X127559523Y-84514342D01*
X127559523Y-84514342D02*
X127559523Y-83704819D01*
X128511904Y-83704819D02*
X128035714Y-83704819D01*
X128035714Y-83704819D02*
X127988095Y-84181009D01*
X127988095Y-84181009D02*
X128035714Y-84133390D01*
X128035714Y-84133390D02*
X128130952Y-84085771D01*
X128130952Y-84085771D02*
X128369047Y-84085771D01*
X128369047Y-84085771D02*
X128464285Y-84133390D01*
X128464285Y-84133390D02*
X128511904Y-84181009D01*
X128511904Y-84181009D02*
X128559523Y-84276247D01*
X128559523Y-84276247D02*
X128559523Y-84514342D01*
X128559523Y-84514342D02*
X128511904Y-84609580D01*
X128511904Y-84609580D02*
X128464285Y-84657200D01*
X128464285Y-84657200D02*
X128369047Y-84704819D01*
X128369047Y-84704819D02*
X128130952Y-84704819D01*
X128130952Y-84704819D02*
X128035714Y-84657200D01*
X128035714Y-84657200D02*
X127988095Y-84609580D01*
X121833333Y-87704819D02*
X121500000Y-87228628D01*
X121261905Y-87704819D02*
X121261905Y-86704819D01*
X121261905Y-86704819D02*
X121642857Y-86704819D01*
X121642857Y-86704819D02*
X121738095Y-86752438D01*
X121738095Y-86752438D02*
X121785714Y-86800057D01*
X121785714Y-86800057D02*
X121833333Y-86895295D01*
X121833333Y-86895295D02*
X121833333Y-87038152D01*
X121833333Y-87038152D02*
X121785714Y-87133390D01*
X121785714Y-87133390D02*
X121738095Y-87181009D01*
X121738095Y-87181009D02*
X121642857Y-87228628D01*
X121642857Y-87228628D02*
X121261905Y-87228628D01*
X122690476Y-86704819D02*
X122500000Y-86704819D01*
X122500000Y-86704819D02*
X122404762Y-86752438D01*
X122404762Y-86752438D02*
X122357143Y-86800057D01*
X122357143Y-86800057D02*
X122261905Y-86942914D01*
X122261905Y-86942914D02*
X122214286Y-87133390D01*
X122214286Y-87133390D02*
X122214286Y-87514342D01*
X122214286Y-87514342D02*
X122261905Y-87609580D01*
X122261905Y-87609580D02*
X122309524Y-87657200D01*
X122309524Y-87657200D02*
X122404762Y-87704819D01*
X122404762Y-87704819D02*
X122595238Y-87704819D01*
X122595238Y-87704819D02*
X122690476Y-87657200D01*
X122690476Y-87657200D02*
X122738095Y-87609580D01*
X122738095Y-87609580D02*
X122785714Y-87514342D01*
X122785714Y-87514342D02*
X122785714Y-87276247D01*
X122785714Y-87276247D02*
X122738095Y-87181009D01*
X122738095Y-87181009D02*
X122690476Y-87133390D01*
X122690476Y-87133390D02*
X122595238Y-87085771D01*
X122595238Y-87085771D02*
X122404762Y-87085771D01*
X122404762Y-87085771D02*
X122309524Y-87133390D01*
X122309524Y-87133390D02*
X122261905Y-87181009D01*
X122261905Y-87181009D02*
X122214286Y-87276247D01*
D12*
%TO.C,C4*%
X124940000Y-112726248D02*
X124940000Y-114148752D01*
X126760000Y-112726248D02*
X126760000Y-114148752D01*
%TO.C,C11*%
X120640000Y-82134165D02*
X120640000Y-82365835D01*
X121360000Y-82134165D02*
X121360000Y-82365835D01*
%TO.C,C10*%
X121396267Y-78740000D02*
X121103733Y-78740000D01*
X121396267Y-79760000D02*
X121103733Y-79760000D01*
%TO.C,R4*%
X122777500Y-99422936D02*
X122777500Y-99877064D01*
X124247500Y-99422936D02*
X124247500Y-99877064D01*
%TO.C,U4*%
X124450000Y-93110000D02*
X126250000Y-93110000D01*
X125450000Y-89890000D02*
X124650000Y-89890000D01*
X125450000Y-89890000D02*
X126250000Y-89890000D01*
X124150000Y-89940000D02*
X123910000Y-89610000D01*
X124390000Y-89610000D01*
X124150000Y-89940000D01*
G36*
X124150000Y-89940000D02*
G01*
X123910000Y-89610000D01*
X124390000Y-89610000D01*
X124150000Y-89940000D01*
G37*
%TO.C,C6*%
X117788748Y-94840000D02*
X119211252Y-94840000D01*
X117788748Y-96660000D02*
X119211252Y-96660000D01*
%TO.C,R1*%
X118227500Y-123157776D02*
X118227500Y-123667224D01*
X119272500Y-123157776D02*
X119272500Y-123667224D01*
%TO.C,U3*%
X112390000Y-81450000D02*
X112390000Y-83250000D01*
X115610000Y-82450000D02*
X115610000Y-81650000D01*
X115610000Y-82450000D02*
X115610000Y-83250000D01*
X115890000Y-81390000D02*
X115560000Y-81150000D01*
X115890000Y-80910000D01*
X115890000Y-81390000D01*
G36*
X115890000Y-81390000D02*
G01*
X115560000Y-81150000D01*
X115890000Y-80910000D01*
X115890000Y-81390000D01*
G37*
%TO.C,U2*%
X116902500Y-99550000D02*
X116902500Y-98750000D01*
X116902500Y-99550000D02*
X116902500Y-100350000D01*
X120122500Y-100550000D02*
X120122500Y-98750000D01*
X116952500Y-100850000D02*
X116622500Y-101090000D01*
X116622500Y-100610000D01*
X116952500Y-100850000D01*
G36*
X116952500Y-100850000D02*
G01*
X116622500Y-101090000D01*
X116622500Y-100610000D01*
X116952500Y-100850000D01*
G37*
%TO.C,U1*%
X117240000Y-117630000D02*
X117240000Y-116830000D01*
X117240000Y-117630000D02*
X117240000Y-118430000D01*
X120310000Y-118590000D02*
X120310000Y-116830000D01*
X117290000Y-118930000D02*
X116960000Y-119170000D01*
X116960000Y-118690000D01*
X117290000Y-118930000D01*
G36*
X117290000Y-118930000D02*
G01*
X116960000Y-119170000D01*
X116960000Y-118690000D01*
X117290000Y-118930000D01*
G37*
%TO.C,C7*%
X114566665Y-85190000D02*
X114798335Y-85190000D01*
X114566665Y-85910000D02*
X114798335Y-85910000D01*
%TO.C,L1*%
X117490000Y-112261252D02*
X117490000Y-111738748D01*
X119710000Y-112261252D02*
X119710000Y-111738748D01*
D13*
%TO.C,J1*%
X120000000Y-142750000D02*
X120000000Y-141050000D01*
X122000000Y-137250000D02*
X130000000Y-137250000D01*
X130000000Y-137250000D02*
X130000000Y-142750000D01*
X130000000Y-142750000D02*
X120000000Y-142750000D01*
D12*
%TO.C,R2*%
X115327064Y-121765000D02*
X114872936Y-121765000D01*
X115327064Y-123235000D02*
X114872936Y-123235000D01*
%TO.C,C5*%
X117666233Y-102740000D02*
X117958767Y-102740000D01*
X117666233Y-103760000D02*
X117958767Y-103760000D01*
%TO.C,J2*%
X133880000Y-77070000D02*
X133880000Y-78400000D01*
X133880000Y-79670000D02*
X133880000Y-127990000D01*
X135210000Y-77070000D02*
X133880000Y-77070000D01*
X136480000Y-77070000D02*
X136480000Y-79670000D01*
X136480000Y-79670000D02*
X133880000Y-79670000D01*
X139080000Y-77070000D02*
X136480000Y-77070000D01*
X139080000Y-77070000D02*
X139080000Y-127990000D01*
X139080000Y-127990000D02*
X133880000Y-127990000D01*
%TO.C,C1*%
X121940000Y-120273752D02*
X121940000Y-118851248D01*
X123760000Y-120273752D02*
X123760000Y-118851248D01*
%TO.C,C12*%
X126646267Y-78740000D02*
X126353733Y-78740000D01*
X126646267Y-79760000D02*
X126353733Y-79760000D01*
%TO.C,R5*%
X120995276Y-76877500D02*
X121504724Y-76877500D01*
X120995276Y-77922500D02*
X121504724Y-77922500D01*
%TO.C,R3*%
X122777500Y-104227064D02*
X122777500Y-103772936D01*
X124247500Y-104227064D02*
X124247500Y-103772936D01*
%TO.C,C2*%
X115640000Y-115115835D02*
X115640000Y-114884165D01*
X116360000Y-115115835D02*
X116360000Y-114884165D01*
%TO.C,C3*%
X121940000Y-112726248D02*
X121940000Y-114148752D01*
X123760000Y-112726248D02*
X123760000Y-114148752D01*
%TO.C,C8*%
X123615835Y-84140000D02*
X123384165Y-84140000D01*
X123615835Y-84860000D02*
X123384165Y-84860000D01*
%TO.C,U5*%
X123390000Y-80390000D02*
X126610000Y-80390000D01*
X123390000Y-80590000D02*
X123390000Y-80390000D01*
X123390000Y-83610000D02*
X123390000Y-83410000D01*
X126610000Y-80390000D02*
X126610000Y-80590000D01*
X126610000Y-83410000D02*
X126610000Y-83610000D01*
X126610000Y-83610000D02*
X123390000Y-83610000D01*
X122840000Y-80590000D02*
X122600000Y-80260000D01*
X123080000Y-80260000D01*
X122840000Y-80590000D01*
G36*
X122840000Y-80590000D02*
G01*
X122600000Y-80260000D01*
X123080000Y-80260000D01*
X122840000Y-80590000D01*
G37*
%TO.C,R6*%
X123265000Y-87022936D02*
X123265000Y-87477064D01*
X124735000Y-87022936D02*
X124735000Y-87477064D01*
%TD*%
M02*
